<?xml version="1.0" encoding="utf-8"?>
<svg xmlns="http://www.w3.org/2000/svg" xmlns:xlink="http://www.w3.org/1999/xlink" width="672" height="480" viewBox="0 0 2688 1920">
<defs>
  <clipPath id="clip730">
    <rect x="0" y="0" width="2688" height="1920"/>
  </clipPath>
</defs>
<path clip-path="url(#clip730)" d="M0 1920 L2688 1920 L2688 -4.26326e-14 L0 -4.26326e-14  Z" fill="#ffffff" fill-rule="evenodd" fill-opacity="1"/>
<defs>
  <clipPath id="clip731">
    <rect x="226" y="127" width="2416" height="1607"/>
  </clipPath>
</defs>
<path clip-path="url(#clip730)" d="M226.141 1734.12 L2640.76 1734.12 L2640.76 127.792 L226.141 127.792  Z" fill="#ffffff" fill-rule="evenodd" fill-opacity="1"/>
<polyline clip-path="url(#clip731)" style="stroke:#000000; stroke-linecap:round; stroke-linejoin:round; stroke-width:2; stroke-opacity:0.1; fill:none" points="547.583,1734.12 547.583,127.792 "/>
<polyline clip-path="url(#clip731)" style="stroke:#000000; stroke-linecap:round; stroke-linejoin:round; stroke-width:2; stroke-opacity:0.1; fill:none" points="1053.79,1734.12 1053.79,127.792 "/>
<polyline clip-path="url(#clip731)" style="stroke:#000000; stroke-linecap:round; stroke-linejoin:round; stroke-width:2; stroke-opacity:0.1; fill:none" points="1560,1734.12 1560,127.792 "/>
<polyline clip-path="url(#clip731)" style="stroke:#000000; stroke-linecap:round; stroke-linejoin:round; stroke-width:2; stroke-opacity:0.1; fill:none" points="2066.21,1734.12 2066.21,127.792 "/>
<polyline clip-path="url(#clip731)" style="stroke:#000000; stroke-linecap:round; stroke-linejoin:round; stroke-width:2; stroke-opacity:0.1; fill:none" points="2572.42,1734.12 2572.42,127.792 "/>
<polyline clip-path="url(#clip731)" style="stroke:#000000; stroke-linecap:round; stroke-linejoin:round; stroke-width:2; stroke-opacity:0.1; fill:none" points="226.141,1666.48 2640.76,1666.48 "/>
<polyline clip-path="url(#clip731)" style="stroke:#000000; stroke-linecap:round; stroke-linejoin:round; stroke-width:2; stroke-opacity:0.1; fill:none" points="226.141,1431.19 2640.76,1431.19 "/>
<polyline clip-path="url(#clip731)" style="stroke:#000000; stroke-linecap:round; stroke-linejoin:round; stroke-width:2; stroke-opacity:0.1; fill:none" points="226.141,1195.91 2640.76,1195.91 "/>
<polyline clip-path="url(#clip731)" style="stroke:#000000; stroke-linecap:round; stroke-linejoin:round; stroke-width:2; stroke-opacity:0.1; fill:none" points="226.141,960.625 2640.76,960.625 "/>
<polyline clip-path="url(#clip731)" style="stroke:#000000; stroke-linecap:round; stroke-linejoin:round; stroke-width:2; stroke-opacity:0.1; fill:none" points="226.141,725.342 2640.76,725.342 "/>
<polyline clip-path="url(#clip731)" style="stroke:#000000; stroke-linecap:round; stroke-linejoin:round; stroke-width:2; stroke-opacity:0.1; fill:none" points="226.141,490.059 2640.76,490.059 "/>
<polyline clip-path="url(#clip731)" style="stroke:#000000; stroke-linecap:round; stroke-linejoin:round; stroke-width:2; stroke-opacity:0.1; fill:none" points="226.141,254.776 2640.76,254.776 "/>
<polyline clip-path="url(#clip730)" style="stroke:#000000; stroke-linecap:round; stroke-linejoin:round; stroke-width:4; stroke-opacity:1; fill:none" points="226.141,1734.12 2640.76,1734.12 "/>
<polyline clip-path="url(#clip730)" style="stroke:#000000; stroke-linecap:round; stroke-linejoin:round; stroke-width:4; stroke-opacity:1; fill:none" points="547.583,1734.12 547.583,1715.22 "/>
<polyline clip-path="url(#clip730)" style="stroke:#000000; stroke-linecap:round; stroke-linejoin:round; stroke-width:4; stroke-opacity:1; fill:none" points="1053.79,1734.12 1053.79,1715.22 "/>
<polyline clip-path="url(#clip730)" style="stroke:#000000; stroke-linecap:round; stroke-linejoin:round; stroke-width:4; stroke-opacity:1; fill:none" points="1560,1734.12 1560,1715.22 "/>
<polyline clip-path="url(#clip730)" style="stroke:#000000; stroke-linecap:round; stroke-linejoin:round; stroke-width:4; stroke-opacity:1; fill:none" points="2066.21,1734.12 2066.21,1715.22 "/>
<polyline clip-path="url(#clip730)" style="stroke:#000000; stroke-linecap:round; stroke-linejoin:round; stroke-width:4; stroke-opacity:1; fill:none" points="2572.42,1734.12 2572.42,1715.22 "/>
<path clip-path="url(#clip730)" d="M542.236 1794.89 L558.555 1794.89 L558.555 1798.82 L536.611 1798.82 L536.611 1794.89 Q539.273 1792.13 543.856 1787.5 Q548.463 1782.85 549.643 1781.51 Q551.889 1778.98 552.768 1777.25 Q553.671 1775.49 553.671 1773.8 Q553.671 1771.04 551.727 1769.31 Q549.805 1767.57 546.703 1767.57 Q544.504 1767.57 542.051 1768.34 Q539.62 1769.1 536.842 1770.65 L536.842 1765.93 Q539.666 1764.79 542.12 1764.21 Q544.574 1763.64 546.611 1763.64 Q551.981 1763.64 555.176 1766.32 Q558.37 1769.01 558.37 1773.5 Q558.37 1775.63 557.56 1777.55 Q556.773 1779.45 554.666 1782.04 Q554.088 1782.71 550.986 1785.93 Q547.884 1789.12 542.236 1794.89 Z" fill="#000000" fill-rule="nonzero" fill-opacity="1" /><path clip-path="url(#clip730)" d="M1056.8 1768.34 L1045 1786.78 L1056.8 1786.78 L1056.8 1768.34 M1055.57 1764.26 L1061.45 1764.26 L1061.45 1786.78 L1066.38 1786.78 L1066.38 1790.67 L1061.45 1790.67 L1061.45 1798.82 L1056.8 1798.82 L1056.8 1790.67 L1041.2 1790.67 L1041.2 1786.16 L1055.57 1764.26 Z" fill="#000000" fill-rule="nonzero" fill-opacity="1" /><path clip-path="url(#clip730)" d="M1560.41 1779.68 Q1557.26 1779.68 1555.41 1781.83 Q1553.58 1783.98 1553.58 1787.73 Q1553.58 1791.46 1555.41 1793.64 Q1557.26 1795.79 1560.41 1795.79 Q1563.55 1795.79 1565.38 1793.64 Q1567.23 1791.46 1567.23 1787.73 Q1567.23 1783.98 1565.38 1781.83 Q1563.55 1779.68 1560.41 1779.68 M1569.69 1765.02 L1569.69 1769.28 Q1567.93 1768.45 1566.12 1768.01 Q1564.34 1767.57 1562.58 1767.57 Q1557.95 1767.57 1555.5 1770.7 Q1553.07 1773.82 1552.72 1780.14 Q1554.09 1778.13 1556.15 1777.06 Q1558.21 1775.97 1560.68 1775.97 Q1565.89 1775.97 1568.9 1779.15 Q1571.93 1782.29 1571.93 1787.73 Q1571.93 1793.06 1568.79 1796.27 Q1565.64 1799.49 1560.41 1799.49 Q1554.41 1799.49 1551.24 1794.91 Q1548.07 1790.3 1548.07 1781.58 Q1548.07 1773.38 1551.96 1768.52 Q1555.85 1763.64 1562.4 1763.64 Q1564.16 1763.64 1565.94 1763.98 Q1567.74 1764.33 1569.69 1765.02 Z" fill="#000000" fill-rule="nonzero" fill-opacity="1" /><path clip-path="url(#clip730)" d="M2066.21 1782.41 Q2062.88 1782.41 2060.95 1784.19 Q2059.06 1785.97 2059.06 1789.1 Q2059.06 1792.22 2060.95 1794.01 Q2062.88 1795.79 2066.21 1795.79 Q2069.54 1795.79 2071.46 1794.01 Q2073.38 1792.2 2073.38 1789.1 Q2073.38 1785.97 2071.46 1784.19 Q2069.57 1782.41 2066.21 1782.41 M2061.53 1780.42 Q2058.52 1779.68 2056.83 1777.62 Q2055.17 1775.56 2055.17 1772.59 Q2055.17 1768.45 2058.11 1766.04 Q2061.07 1763.64 2066.21 1763.64 Q2071.37 1763.64 2074.31 1766.04 Q2077.25 1768.45 2077.25 1772.59 Q2077.25 1775.56 2075.56 1777.62 Q2073.89 1779.68 2070.91 1780.42 Q2074.29 1781.21 2076.16 1783.5 Q2078.06 1785.79 2078.06 1789.1 Q2078.06 1794.12 2074.98 1796.81 Q2071.93 1799.49 2066.21 1799.49 Q2060.49 1799.49 2057.41 1796.81 Q2054.36 1794.12 2054.36 1789.1 Q2054.36 1785.79 2056.26 1783.5 Q2058.15 1781.21 2061.53 1780.42 M2059.82 1773.03 Q2059.82 1775.72 2061.49 1777.22 Q2063.18 1778.73 2066.21 1778.73 Q2069.22 1778.73 2070.91 1777.22 Q2072.62 1775.72 2072.62 1773.03 Q2072.62 1770.35 2070.91 1768.84 Q2069.22 1767.34 2066.21 1767.34 Q2063.18 1767.34 2061.49 1768.84 Q2059.82 1770.35 2059.82 1773.03 Z" fill="#000000" fill-rule="nonzero" fill-opacity="1" /><path clip-path="url(#clip730)" d="M2547.11 1794.89 L2554.74 1794.89 L2554.74 1768.52 L2546.43 1770.19 L2546.43 1765.93 L2554.7 1764.26 L2559.37 1764.26 L2559.37 1794.89 L2567.01 1794.89 L2567.01 1798.82 L2547.11 1798.82 L2547.11 1794.89 Z" fill="#000000" fill-rule="nonzero" fill-opacity="1" /><path clip-path="url(#clip730)" d="M2586.46 1767.34 Q2582.85 1767.34 2581.02 1770.9 Q2579.21 1774.45 2579.21 1781.58 Q2579.21 1788.68 2581.02 1792.25 Q2582.85 1795.79 2586.46 1795.79 Q2590.09 1795.79 2591.9 1792.25 Q2593.73 1788.68 2593.73 1781.58 Q2593.73 1774.45 2591.9 1770.9 Q2590.09 1767.34 2586.46 1767.34 M2586.46 1763.64 Q2592.27 1763.64 2595.32 1768.24 Q2598.4 1772.83 2598.4 1781.58 Q2598.4 1790.3 2595.32 1794.91 Q2592.27 1799.49 2586.46 1799.49 Q2580.65 1799.49 2577.57 1794.91 Q2574.51 1790.3 2574.51 1781.58 Q2574.51 1772.83 2577.57 1768.24 Q2580.65 1763.64 2586.46 1763.64 Z" fill="#000000" fill-rule="nonzero" fill-opacity="1" /><path clip-path="url(#clip730)" d="M1340.41 1835.78 L1347.32 1835.78 L1359.13 1853.45 L1371 1835.78 L1377.91 1835.78 L1362.63 1858.6 L1378.93 1883.3 L1372.02 1883.3 L1358.65 1863.09 L1345.19 1883.3 L1338.25 1883.3 L1355.21 1857.93 L1340.41 1835.78 Z" fill="#000000" fill-rule="nonzero" fill-opacity="1" /><path clip-path="url(#clip730)" d="M1380.9 1862.84 L1398.05 1862.84 L1398.05 1868.06 L1380.9 1868.06 L1380.9 1862.84 Z" fill="#000000" fill-rule="nonzero" fill-opacity="1" /><path clip-path="url(#clip730)" d="M1423.58 1865.38 Q1416.48 1865.38 1413.75 1867 Q1411.01 1868.63 1411.01 1872.54 Q1411.01 1875.66 1413.05 1877.51 Q1415.11 1879.32 1418.65 1879.32 Q1423.52 1879.32 1426.45 1875.88 Q1429.41 1872.42 1429.41 1866.69 L1429.41 1865.38 L1423.58 1865.38 M1435.26 1862.96 L1435.26 1883.3 L1429.41 1883.3 L1429.41 1877.89 Q1427.4 1881.14 1424.41 1882.7 Q1421.42 1884.22 1417.09 1884.22 Q1411.61 1884.22 1408.37 1881.17 Q1405.15 1878.08 1405.15 1872.92 Q1405.15 1866.91 1409.16 1863.85 Q1413.21 1860.8 1421.19 1860.8 L1429.41 1860.8 L1429.41 1860.23 Q1429.41 1856.18 1426.73 1853.99 Q1424.09 1851.76 1419.28 1851.76 Q1416.23 1851.76 1413.33 1852.49 Q1410.44 1853.22 1407.76 1854.69 L1407.76 1849.28 Q1410.98 1848.03 1414 1847.43 Q1417.02 1846.79 1419.89 1846.79 Q1427.62 1846.79 1431.44 1850.8 Q1435.26 1854.81 1435.26 1862.96 Z" fill="#000000" fill-rule="nonzero" fill-opacity="1" /><path clip-path="url(#clip730)" d="M1476.96 1847.65 L1464.07 1865 L1477.63 1883.3 L1470.72 1883.3 L1460.34 1869.3 L1449.97 1883.3 L1443.06 1883.3 L1456.91 1864.65 L1444.24 1847.65 L1451.14 1847.65 L1460.6 1860.35 L1470.05 1847.65 L1476.96 1847.65 Z" fill="#000000" fill-rule="nonzero" fill-opacity="1" /><path clip-path="url(#clip730)" d="M1485.9 1847.65 L1491.76 1847.65 L1491.76 1883.3 L1485.9 1883.3 L1485.9 1847.65 M1485.9 1833.78 L1491.76 1833.78 L1491.76 1841.19 L1485.9 1841.19 L1485.9 1833.78 Z" fill="#000000" fill-rule="nonzero" fill-opacity="1" /><path clip-path="url(#clip730)" d="M1526.74 1848.7 L1526.74 1854.24 Q1524.26 1852.97 1521.58 1852.33 Q1518.91 1851.7 1516.04 1851.7 Q1511.68 1851.7 1509.49 1853.03 Q1507.32 1854.37 1507.32 1857.04 Q1507.32 1859.08 1508.88 1860.26 Q1510.44 1861.4 1515.15 1862.45 L1517.16 1862.9 Q1523.4 1864.24 1526.01 1866.69 Q1528.65 1869.11 1528.65 1873.47 Q1528.65 1878.43 1524.7 1881.33 Q1520.79 1884.22 1513.91 1884.22 Q1511.05 1884.22 1507.93 1883.65 Q1504.84 1883.11 1501.4 1882 L1501.4 1875.95 Q1504.65 1877.64 1507.8 1878.49 Q1510.95 1879.32 1514.04 1879.32 Q1518.18 1879.32 1520.4 1877.92 Q1522.63 1876.49 1522.63 1873.91 Q1522.63 1871.52 1521.01 1870.25 Q1519.42 1868.98 1513.97 1867.8 L1511.94 1867.32 Q1506.49 1866.18 1504.08 1863.82 Q1501.66 1861.43 1501.66 1857.3 Q1501.66 1852.27 1505.22 1849.53 Q1508.79 1846.79 1515.34 1846.79 Q1518.59 1846.79 1521.45 1847.27 Q1524.32 1847.75 1526.74 1848.7 Z" fill="#000000" fill-rule="nonzero" fill-opacity="1" /><polyline clip-path="url(#clip730)" style="stroke:#000000; stroke-linecap:round; stroke-linejoin:round; stroke-width:4; stroke-opacity:1; fill:none" points="226.141,1734.12 226.141,127.792 "/>
<polyline clip-path="url(#clip730)" style="stroke:#000000; stroke-linecap:round; stroke-linejoin:round; stroke-width:4; stroke-opacity:1; fill:none" points="226.141,1666.48 245.038,1666.48 "/>
<polyline clip-path="url(#clip730)" style="stroke:#000000; stroke-linecap:round; stroke-linejoin:round; stroke-width:4; stroke-opacity:1; fill:none" points="226.141,1431.19 245.038,1431.19 "/>
<polyline clip-path="url(#clip730)" style="stroke:#000000; stroke-linecap:round; stroke-linejoin:round; stroke-width:4; stroke-opacity:1; fill:none" points="226.141,1195.91 245.038,1195.91 "/>
<polyline clip-path="url(#clip730)" style="stroke:#000000; stroke-linecap:round; stroke-linejoin:round; stroke-width:4; stroke-opacity:1; fill:none" points="226.141,960.625 245.038,960.625 "/>
<polyline clip-path="url(#clip730)" style="stroke:#000000; stroke-linecap:round; stroke-linejoin:round; stroke-width:4; stroke-opacity:1; fill:none" points="226.141,725.342 245.038,725.342 "/>
<polyline clip-path="url(#clip730)" style="stroke:#000000; stroke-linecap:round; stroke-linejoin:round; stroke-width:4; stroke-opacity:1; fill:none" points="226.141,490.059 245.038,490.059 "/>
<polyline clip-path="url(#clip730)" style="stroke:#000000; stroke-linecap:round; stroke-linejoin:round; stroke-width:4; stroke-opacity:1; fill:none" points="226.141,254.776 245.038,254.776 "/>
<path clip-path="url(#clip730)" d="M129.872 1652.27 Q126.261 1652.27 124.432 1655.84 Q122.626 1659.38 122.626 1666.51 Q122.626 1673.62 124.432 1677.18 Q126.261 1680.72 129.872 1680.72 Q133.506 1680.72 135.312 1677.18 Q137.14 1673.62 137.14 1666.51 Q137.14 1659.38 135.312 1655.84 Q133.506 1652.27 129.872 1652.27 M129.872 1648.57 Q135.682 1648.57 138.737 1653.18 Q141.816 1657.76 141.816 1666.51 Q141.816 1675.24 138.737 1679.84 Q135.682 1684.43 129.872 1684.43 Q124.062 1684.43 120.983 1679.84 Q117.927 1675.24 117.927 1666.51 Q117.927 1657.76 120.983 1653.18 Q124.062 1648.57 129.872 1648.57 Z" fill="#000000" fill-rule="nonzero" fill-opacity="1" /><path clip-path="url(#clip730)" d="M150.034 1677.88 L154.918 1677.88 L154.918 1683.76 L150.034 1683.76 L150.034 1677.88 Z" fill="#000000" fill-rule="nonzero" fill-opacity="1" /><path clip-path="url(#clip730)" d="M165.913 1679.82 L173.552 1679.82 L173.552 1653.45 L165.242 1655.12 L165.242 1650.86 L173.506 1649.2 L178.182 1649.2 L178.182 1679.82 L185.821 1679.82 L185.821 1683.76 L165.913 1683.76 L165.913 1679.82 Z" fill="#000000" fill-rule="nonzero" fill-opacity="1" /><path clip-path="url(#clip730)" d="M130.242 1416.99 Q126.631 1416.99 124.802 1420.56 Q122.997 1424.1 122.997 1431.23 Q122.997 1438.33 124.802 1441.9 Q126.631 1445.44 130.242 1445.44 Q133.876 1445.44 135.682 1441.9 Q137.511 1438.33 137.511 1431.23 Q137.511 1424.1 135.682 1420.56 Q133.876 1416.99 130.242 1416.99 M130.242 1413.29 Q136.052 1413.29 139.108 1417.89 Q142.187 1422.48 142.187 1431.23 Q142.187 1439.95 139.108 1444.56 Q136.052 1449.14 130.242 1449.14 Q124.432 1449.14 121.353 1444.56 Q118.298 1439.95 118.298 1431.23 Q118.298 1422.48 121.353 1417.89 Q124.432 1413.29 130.242 1413.29 Z" fill="#000000" fill-rule="nonzero" fill-opacity="1" /><path clip-path="url(#clip730)" d="M150.404 1442.59 L155.288 1442.59 L155.288 1448.47 L150.404 1448.47 L150.404 1442.59 Z" fill="#000000" fill-rule="nonzero" fill-opacity="1" /><path clip-path="url(#clip730)" d="M169.501 1444.54 L185.821 1444.54 L185.821 1448.47 L163.876 1448.47 L163.876 1444.54 Q166.538 1441.78 171.122 1437.15 Q175.728 1432.5 176.909 1431.16 Q179.154 1428.63 180.034 1426.9 Q180.936 1425.14 180.936 1423.45 Q180.936 1420.69 178.992 1418.96 Q177.071 1417.22 173.969 1417.22 Q171.77 1417.22 169.316 1417.99 Q166.885 1418.75 164.108 1420.3 L164.108 1415.58 Q166.932 1414.44 169.385 1413.87 Q171.839 1413.29 173.876 1413.29 Q179.247 1413.29 182.441 1415.97 Q185.635 1418.66 185.635 1423.15 Q185.635 1425.28 184.825 1427.2 Q184.038 1429.1 181.932 1431.69 Q181.353 1432.36 178.251 1435.58 Q175.149 1438.77 169.501 1444.54 Z" fill="#000000" fill-rule="nonzero" fill-opacity="1" /><path clip-path="url(#clip730)" d="M129.293 1181.71 Q125.682 1181.71 123.853 1185.27 Q122.048 1188.81 122.048 1195.94 Q122.048 1203.05 123.853 1206.61 Q125.682 1210.16 129.293 1210.16 Q132.927 1210.16 134.733 1206.61 Q136.562 1203.05 136.562 1195.94 Q136.562 1188.81 134.733 1185.27 Q132.927 1181.71 129.293 1181.71 M129.293 1178 Q135.103 1178 138.159 1182.61 Q141.237 1187.19 141.237 1195.94 Q141.237 1204.67 138.159 1209.28 Q135.103 1213.86 129.293 1213.86 Q123.483 1213.86 120.404 1209.28 Q117.349 1204.67 117.349 1195.94 Q117.349 1187.19 120.404 1182.61 Q123.483 1178 129.293 1178 Z" fill="#000000" fill-rule="nonzero" fill-opacity="1" /><path clip-path="url(#clip730)" d="M149.455 1207.31 L154.339 1207.31 L154.339 1213.19 L149.455 1213.19 L149.455 1207.31 Z" fill="#000000" fill-rule="nonzero" fill-opacity="1" /><path clip-path="url(#clip730)" d="M178.691 1194.55 Q182.047 1195.27 183.922 1197.54 Q185.821 1199.81 185.821 1203.14 Q185.821 1208.26 182.302 1211.06 Q178.784 1213.86 172.302 1213.86 Q170.126 1213.86 167.811 1213.42 Q165.52 1213 163.066 1212.15 L163.066 1207.63 Q165.01 1208.77 167.325 1209.35 Q169.64 1209.92 172.163 1209.92 Q176.561 1209.92 178.853 1208.19 Q181.168 1206.45 181.168 1203.14 Q181.168 1200.09 179.015 1198.37 Q176.885 1196.64 173.066 1196.64 L169.038 1196.64 L169.038 1192.8 L173.251 1192.8 Q176.7 1192.8 178.529 1191.43 Q180.358 1190.04 180.358 1187.45 Q180.358 1184.79 178.459 1183.37 Q176.584 1181.94 173.066 1181.94 Q171.145 1181.94 168.946 1182.36 Q166.747 1182.77 164.108 1183.65 L164.108 1179.49 Q166.77 1178.74 169.085 1178.37 Q171.422 1178 173.483 1178 Q178.807 1178 181.909 1180.43 Q185.01 1182.84 185.01 1186.96 Q185.01 1189.83 183.367 1191.82 Q181.723 1193.79 178.691 1194.55 Z" fill="#000000" fill-rule="nonzero" fill-opacity="1" /><path clip-path="url(#clip730)" d="M128.159 946.424 Q124.548 946.424 122.719 949.989 Q120.913 953.531 120.913 960.66 Q120.913 967.767 122.719 971.331 Q124.548 974.873 128.159 974.873 Q131.793 974.873 133.599 971.331 Q135.427 967.767 135.427 960.66 Q135.427 953.531 133.599 949.989 Q131.793 946.424 128.159 946.424 M128.159 942.72 Q133.969 942.72 137.025 947.327 Q140.103 951.91 140.103 960.66 Q140.103 969.387 137.025 973.993 Q133.969 978.577 128.159 978.577 Q122.349 978.577 119.27 973.993 Q116.214 969.387 116.214 960.66 Q116.214 951.91 119.27 947.327 Q122.349 942.72 128.159 942.72 Z" fill="#000000" fill-rule="nonzero" fill-opacity="1" /><path clip-path="url(#clip730)" d="M148.321 972.026 L153.205 972.026 L153.205 977.905 L148.321 977.905 L148.321 972.026 Z" fill="#000000" fill-rule="nonzero" fill-opacity="1" /><path clip-path="url(#clip730)" d="M176.237 947.42 L164.432 965.868 L176.237 965.868 L176.237 947.42 M175.01 943.345 L180.89 943.345 L180.89 965.868 L185.821 965.868 L185.821 969.757 L180.89 969.757 L180.89 977.905 L176.237 977.905 L176.237 969.757 L160.636 969.757 L160.636 965.243 L175.01 943.345 Z" fill="#000000" fill-rule="nonzero" fill-opacity="1" /><path clip-path="url(#clip730)" d="M129.64 711.141 Q126.029 711.141 124.201 714.706 Q122.395 718.247 122.395 725.377 Q122.395 732.483 124.201 736.048 Q126.029 739.59 129.64 739.59 Q133.275 739.59 135.08 736.048 Q136.909 732.483 136.909 725.377 Q136.909 718.247 135.08 714.706 Q133.275 711.141 129.64 711.141 M129.64 707.437 Q135.45 707.437 138.506 712.044 Q141.585 716.627 141.585 725.377 Q141.585 734.104 138.506 738.71 Q135.45 743.293 129.64 743.293 Q123.83 743.293 120.751 738.71 Q117.696 734.104 117.696 725.377 Q117.696 716.627 120.751 712.044 Q123.83 707.437 129.64 707.437 Z" fill="#000000" fill-rule="nonzero" fill-opacity="1" /><path clip-path="url(#clip730)" d="M149.802 736.743 L154.686 736.743 L154.686 742.622 L149.802 742.622 L149.802 736.743 Z" fill="#000000" fill-rule="nonzero" fill-opacity="1" /><path clip-path="url(#clip730)" d="M164.918 708.062 L183.274 708.062 L183.274 711.997 L169.2 711.997 L169.2 720.469 Q170.219 720.122 171.237 719.96 Q172.256 719.775 173.274 719.775 Q179.061 719.775 182.441 722.946 Q185.821 726.118 185.821 731.534 Q185.821 737.113 182.348 740.215 Q178.876 743.293 172.557 743.293 Q170.381 743.293 168.112 742.923 Q165.867 742.553 163.46 741.812 L163.46 737.113 Q165.543 738.247 167.765 738.803 Q169.987 739.358 172.464 739.358 Q176.469 739.358 178.807 737.252 Q181.145 735.145 181.145 731.534 Q181.145 727.923 178.807 725.817 Q176.469 723.71 172.464 723.71 Q170.589 723.71 168.714 724.127 Q166.862 724.544 164.918 725.423 L164.918 708.062 Z" fill="#000000" fill-rule="nonzero" fill-opacity="1" /><path clip-path="url(#clip730)" d="M128.483 475.858 Q124.872 475.858 123.043 479.422 Q121.238 482.964 121.238 490.094 Q121.238 497.2 123.043 500.765 Q124.872 504.306 128.483 504.306 Q132.117 504.306 133.923 500.765 Q135.751 497.2 135.751 490.094 Q135.751 482.964 133.923 479.422 Q132.117 475.858 128.483 475.858 M128.483 472.154 Q134.293 472.154 137.349 476.76 Q140.427 481.344 140.427 490.094 Q140.427 498.82 137.349 503.427 Q134.293 508.01 128.483 508.01 Q122.673 508.01 119.594 503.427 Q116.539 498.82 116.539 490.094 Q116.539 481.344 119.594 476.76 Q122.673 472.154 128.483 472.154 Z" fill="#000000" fill-rule="nonzero" fill-opacity="1" /><path clip-path="url(#clip730)" d="M148.645 501.459 L153.529 501.459 L153.529 507.339 L148.645 507.339 L148.645 501.459 Z" fill="#000000" fill-rule="nonzero" fill-opacity="1" /><path clip-path="url(#clip730)" d="M174.293 488.195 Q171.145 488.195 169.293 490.348 Q167.464 492.501 167.464 496.251 Q167.464 499.978 169.293 502.154 Q171.145 504.306 174.293 504.306 Q177.441 504.306 179.27 502.154 Q181.122 499.978 181.122 496.251 Q181.122 492.501 179.27 490.348 Q177.441 488.195 174.293 488.195 M183.575 473.543 L183.575 477.802 Q181.816 476.969 180.01 476.529 Q178.228 476.089 176.469 476.089 Q171.839 476.089 169.385 479.214 Q166.955 482.339 166.608 488.658 Q167.973 486.645 170.034 485.58 Q172.094 484.492 174.571 484.492 Q179.779 484.492 182.788 487.663 Q185.821 490.811 185.821 496.251 Q185.821 501.575 182.672 504.793 Q179.524 508.01 174.293 508.01 Q168.297 508.01 165.126 503.427 Q161.955 498.82 161.955 490.094 Q161.955 481.899 165.844 477.038 Q169.733 472.154 176.284 472.154 Q178.043 472.154 179.825 472.501 Q181.631 472.848 183.575 473.543 Z" fill="#000000" fill-rule="nonzero" fill-opacity="1" /><path clip-path="url(#clip730)" d="M129.548 240.574 Q125.937 240.574 124.108 244.139 Q122.302 247.681 122.302 254.81 Q122.302 261.917 124.108 265.482 Q125.937 269.023 129.548 269.023 Q133.182 269.023 134.987 265.482 Q136.816 261.917 136.816 254.81 Q136.816 247.681 134.987 244.139 Q133.182 240.574 129.548 240.574 M129.548 236.871 Q135.358 236.871 138.413 241.477 Q141.492 246.06 141.492 254.81 Q141.492 263.537 138.413 268.144 Q135.358 272.727 129.548 272.727 Q123.738 272.727 120.659 268.144 Q117.603 263.537 117.603 254.81 Q117.603 246.06 120.659 241.477 Q123.738 236.871 129.548 236.871 Z" fill="#000000" fill-rule="nonzero" fill-opacity="1" /><path clip-path="url(#clip730)" d="M149.71 266.176 L154.594 266.176 L154.594 272.056 L149.71 272.056 L149.71 266.176 Z" fill="#000000" fill-rule="nonzero" fill-opacity="1" /><path clip-path="url(#clip730)" d="M163.598 237.496 L185.821 237.496 L185.821 239.486 L173.274 272.056 L168.39 272.056 L180.196 241.431 L163.598 241.431 L163.598 237.496 Z" fill="#000000" fill-rule="nonzero" fill-opacity="1" /><path clip-path="url(#clip730)" d="M14.1184 1022.53 L14.1184 1015.62 L33.6612 1002.44 L14.1184 989.36 L14.1184 982.453 L39.0084 999.259 L61.6384 999.259 L61.6384 1005.72 L39.0084 1005.72 L14.1184 1022.53 Z" fill="#000000" fill-rule="nonzero" fill-opacity="1" /><path clip-path="url(#clip730)" d="M41.1727 987.132 L41.1727 969.976 L46.3926 969.976 L46.3926 987.132 L41.1727 987.132 Z" fill="#000000" fill-rule="nonzero" fill-opacity="1" /><path clip-path="url(#clip730)" d="M43.719 944.45 Q43.719 951.548 45.3422 954.285 Q46.9655 957.022 50.8804 957.022 Q53.9996 957.022 55.8457 954.985 Q57.6599 952.916 57.6599 949.383 Q57.6599 944.514 54.2224 941.585 Q50.7531 938.625 45.0239 938.625 L43.719 938.625 L43.719 944.45 M41.3 932.769 L61.6384 932.769 L61.6384 938.625 L56.2276 938.625 Q59.4741 940.63 61.0337 943.622 Q62.5615 946.614 62.5615 950.943 Q62.5615 956.417 59.5059 959.664 Q56.4186 962.879 51.2623 962.879 Q45.2467 962.879 42.1912 958.868 Q39.1357 954.826 39.1357 946.837 L39.1357 938.625 L38.5628 938.625 Q34.5205 938.625 32.3244 941.299 Q30.0964 943.941 30.0964 948.747 Q30.0964 951.802 30.8284 954.699 Q31.5605 957.595 33.0246 960.269 L27.6137 960.269 Q26.3724 957.054 25.7677 954.03 Q25.1311 951.007 25.1311 948.142 Q25.1311 940.408 29.1415 936.588 Q33.1519 932.769 41.3 932.769 Z" fill="#000000" fill-rule="nonzero" fill-opacity="1" /><path clip-path="url(#clip730)" d="M25.9905 891.073 L43.337 903.964 L61.6384 890.405 L61.6384 897.312 L47.6339 907.688 L61.6384 918.064 L61.6384 924.971 L42.9869 911.125 L25.9905 923.793 L25.9905 916.886 L38.6901 907.433 L25.9905 897.98 L25.9905 891.073 Z" fill="#000000" fill-rule="nonzero" fill-opacity="1" /><path clip-path="url(#clip730)" d="M25.9905 882.13 L25.9905 876.273 L61.6384 876.273 L61.6384 882.13 L25.9905 882.13 M12.1132 882.13 L12.1132 876.273 L19.5293 876.273 L19.5293 882.13 L12.1132 882.13 Z" fill="#000000" fill-rule="nonzero" fill-opacity="1" /><path clip-path="url(#clip730)" d="M27.0408 841.294 L32.579 841.294 Q31.3059 843.776 30.6693 846.45 Q30.0327 849.123 30.0327 851.988 Q30.0327 856.348 31.3695 858.545 Q32.7063 860.709 35.3799 860.709 Q37.4169 860.709 38.5946 859.149 Q39.7404 857.59 40.7908 852.879 L41.2364 850.874 Q42.5732 844.636 45.0239 842.026 Q47.4429 839.384 51.8034 839.384 Q56.7687 839.384 59.6651 843.331 Q62.5615 847.246 62.5615 854.12 Q62.5615 856.985 61.9886 860.104 Q61.4475 863.192 60.3335 866.629 L54.2861 866.629 Q55.973 863.383 56.8323 860.232 Q57.6599 857.081 57.6599 853.993 Q57.6599 849.855 56.2594 847.627 Q54.8271 845.399 52.249 845.399 Q49.8619 845.399 48.5887 847.023 Q47.3156 848.614 46.1379 854.057 L45.6605 856.094 Q44.5147 861.537 42.1594 863.955 Q39.7722 866.374 35.6345 866.374 Q30.6056 866.374 27.8684 862.81 Q25.1311 859.245 25.1311 852.688 Q25.1311 849.442 25.6085 846.577 Q26.086 843.713 27.0408 841.294 Z" fill="#000000" fill-rule="nonzero" fill-opacity="1" /><path clip-path="url(#clip730)" d="M1050.48 16.7545 L1050.48 25.383 Q1046.34 21.5346 1041.64 19.6307 Q1036.99 17.7268 1031.72 17.7268 Q1021.35 17.7268 1015.84 24.0867 Q1010.33 30.4061 1010.33 42.3968 Q1010.33 54.3469 1015.84 60.7069 Q1021.35 67.0263 1031.72 67.0263 Q1036.99 67.0263 1041.64 65.1223 Q1046.34 63.2184 1050.48 59.3701 L1050.48 67.9175 Q1046.18 70.8341 1041.36 72.2924 Q1036.58 73.7508 1031.23 73.7508 Q1017.5 73.7508 1009.6 65.3654 Q1001.7 56.9395 1001.7 42.3968 Q1001.7 27.8135 1009.6 19.4281 Q1017.5 11.0023 1031.23 11.0023 Q1036.66 11.0023 1041.44 12.4606 Q1046.26 13.8784 1050.48 16.7545 Z" fill="#000000" fill-rule="nonzero" fill-opacity="1" /><path clip-path="url(#clip730)" d="M1062.02 54.671 L1062.02 27.2059 L1069.47 27.2059 L1069.47 54.3874 Q1069.47 60.8284 1071.99 64.0691 Q1074.5 67.2693 1079.52 67.2693 Q1085.56 67.2693 1089.04 63.421 Q1092.56 59.5726 1092.56 52.9291 L1092.56 27.2059 L1100.02 27.2059 L1100.02 72.576 L1092.56 72.576 L1092.56 65.6084 Q1089.85 69.7404 1086.25 71.7658 Q1082.68 73.7508 1077.94 73.7508 Q1070.12 73.7508 1066.07 68.8897 Q1062.02 64.0286 1062.02 54.671 M1080.78 26.1121 L1080.78 26.1121 Z" fill="#000000" fill-rule="nonzero" fill-opacity="1" /><path clip-path="url(#clip730)" d="M1144.29 28.5427 L1144.29 35.5912 Q1141.13 33.9709 1137.73 33.1607 Q1134.33 32.3505 1130.68 32.3505 Q1125.13 32.3505 1122.34 34.0519 Q1119.58 35.7533 1119.58 39.156 Q1119.58 41.7486 1121.57 43.2475 Q1123.55 44.7058 1129.55 46.0426 L1132.1 46.6097 Q1140.04 48.3111 1143.36 51.4303 Q1146.73 54.509 1146.73 60.0587 Q1146.73 66.3781 1141.7 70.0644 Q1136.72 73.7508 1127.97 73.7508 Q1124.32 73.7508 1120.35 73.0216 Q1116.42 72.3329 1112.05 70.9151 L1112.05 63.2184 Q1116.18 65.3654 1120.19 66.4591 Q1124.2 67.5124 1128.13 67.5124 Q1133.4 67.5124 1136.23 65.73 Q1139.07 63.9071 1139.07 60.6258 Q1139.07 57.5877 1137 55.9673 Q1134.98 54.3469 1128.05 52.8481 L1125.46 52.2405 Q1118.53 50.7821 1115.45 47.7845 Q1112.37 44.7463 1112.37 39.4801 Q1112.37 33.0797 1116.91 29.5959 Q1121.45 26.1121 1129.79 26.1121 Q1133.92 26.1121 1137.57 26.7198 Q1141.22 27.3274 1144.29 28.5427 Z" fill="#000000" fill-rule="nonzero" fill-opacity="1" /><path clip-path="url(#clip730)" d="M1165.97 14.324 L1165.97 27.2059 L1181.32 27.2059 L1181.32 32.9987 L1165.97 32.9987 L1165.97 57.6282 Q1165.97 63.1779 1167.47 64.7578 Q1169.01 66.3376 1173.66 66.3376 L1181.32 66.3376 L1181.32 72.576 L1173.66 72.576 Q1165.04 72.576 1161.75 69.3758 Q1158.47 66.1351 1158.47 57.6282 L1158.47 32.9987 L1153 32.9987 L1153 27.2059 L1158.47 27.2059 L1158.47 14.324 L1165.97 14.324 Z" fill="#000000" fill-rule="nonzero" fill-opacity="1" /><path clip-path="url(#clip730)" d="M1208.7 32.4315 Q1202.71 32.4315 1199.22 37.1306 Q1195.74 41.7891 1195.74 49.9314 Q1195.74 58.0738 1199.18 62.7728 Q1202.67 67.4314 1208.7 67.4314 Q1214.66 67.4314 1218.14 62.7323 Q1221.63 58.0333 1221.63 49.9314 Q1221.63 41.8701 1218.14 37.1711 Q1214.66 32.4315 1208.7 32.4315 M1208.7 26.1121 Q1218.43 26.1121 1223.98 32.4315 Q1229.53 38.7509 1229.53 49.9314 Q1229.53 61.0714 1223.98 67.4314 Q1218.43 73.7508 1208.7 73.7508 Q1198.94 73.7508 1193.39 67.4314 Q1187.88 61.0714 1187.88 49.9314 Q1187.88 38.7509 1193.39 32.4315 Q1198.94 26.1121 1208.7 26.1121 Z" fill="#000000" fill-rule="nonzero" fill-opacity="1" /><path clip-path="url(#clip730)" d="M1277.2 35.9153 Q1280 30.8922 1283.89 28.5022 Q1287.78 26.1121 1293.04 26.1121 Q1300.13 26.1121 1303.98 31.0947 Q1307.83 36.0368 1307.83 45.1919 L1307.83 72.576 L1300.34 72.576 L1300.34 45.4349 Q1300.34 38.913 1298.03 35.7533 Q1295.72 32.5936 1290.98 32.5936 Q1285.19 32.5936 1281.82 36.4419 Q1278.46 40.2903 1278.46 46.9338 L1278.46 72.576 L1270.97 72.576 L1270.97 45.4349 Q1270.97 38.8725 1268.66 35.7533 Q1266.35 32.5936 1261.53 32.5936 Q1255.82 32.5936 1252.45 36.4824 Q1249.09 40.3308 1249.09 46.9338 L1249.09 72.576 L1241.6 72.576 L1241.6 27.2059 L1249.09 27.2059 L1249.09 34.2544 Q1251.64 30.082 1255.21 28.0971 Q1258.77 26.1121 1263.67 26.1121 Q1268.62 26.1121 1272.06 28.6237 Q1275.54 31.1352 1277.2 35.9153 Z" fill="#000000" fill-rule="nonzero" fill-opacity="1" /><path clip-path="url(#clip730)" d="M1322.7 27.2059 L1330.15 27.2059 L1330.15 72.576 L1322.7 72.576 L1322.7 27.2059 M1322.7 9.54393 L1330.15 9.54393 L1330.15 18.9825 L1322.7 18.9825 L1322.7 9.54393 Z" fill="#000000" fill-rule="nonzero" fill-opacity="1" /><path clip-path="url(#clip730)" d="M1342.51 27.2059 L1377.91 27.2059 L1377.91 34.0114 L1349.88 66.6212 L1377.91 66.6212 L1377.91 72.576 L1341.49 72.576 L1341.49 65.7705 L1369.52 33.1607 L1342.51 33.1607 L1342.51 27.2059 Z" fill="#000000" fill-rule="nonzero" fill-opacity="1" /><path clip-path="url(#clip730)" d="M1428.1 48.0275 L1428.1 51.6733 L1393.83 51.6733 Q1394.32 59.3701 1398.45 63.421 Q1402.62 67.4314 1410.03 67.4314 Q1414.33 67.4314 1418.34 66.3781 Q1422.39 65.3249 1426.36 63.2184 L1426.36 70.267 Q1422.35 71.9684 1418.14 72.8596 Q1413.92 73.7508 1409.59 73.7508 Q1398.73 73.7508 1392.37 67.4314 Q1386.05 61.1119 1386.05 50.3365 Q1386.05 39.1965 1392.05 32.6746 Q1398.08 26.1121 1408.29 26.1121 Q1417.45 26.1121 1422.75 32.0264 Q1428.1 37.9003 1428.1 48.0275 M1420.65 45.84 Q1420.57 39.7232 1417.2 36.0774 Q1413.88 32.4315 1408.37 32.4315 Q1402.13 32.4315 1398.37 35.9558 Q1394.64 39.4801 1394.07 45.8805 L1420.65 45.84 Z" fill="#000000" fill-rule="nonzero" fill-opacity="1" /><path clip-path="url(#clip730)" d="M1470.19 34.0924 L1470.19 9.54393 L1477.64 9.54393 L1477.64 72.576 L1470.19 72.576 L1470.19 65.7705 Q1467.84 69.8214 1464.24 71.8063 Q1460.67 73.7508 1455.65 73.7508 Q1447.42 73.7508 1442.24 67.1883 Q1437.09 60.6258 1437.09 49.9314 Q1437.09 39.2371 1442.24 32.6746 Q1447.42 26.1121 1455.65 26.1121 Q1460.67 26.1121 1464.24 28.0971 Q1467.84 30.0415 1470.19 34.0924 M1444.79 49.9314 Q1444.79 58.1548 1448.15 62.8538 Q1451.56 67.5124 1457.47 67.5124 Q1463.38 67.5124 1466.79 62.8538 Q1470.19 58.1548 1470.19 49.9314 Q1470.19 41.7081 1466.79 37.0496 Q1463.38 32.3505 1457.47 32.3505 Q1451.56 32.3505 1448.15 37.0496 Q1444.79 41.7081 1444.79 49.9314 Z" fill="#000000" fill-rule="nonzero" fill-opacity="1" /><path clip-path="url(#clip730)" d="M1519.69 12.096 L1527.87 12.096 L1527.87 65.6895 L1557.32 65.6895 L1557.32 72.576 L1519.69 72.576 L1519.69 12.096 Z" fill="#000000" fill-rule="nonzero" fill-opacity="1" /><path clip-path="url(#clip730)" d="M1565.59 27.2059 L1573.04 27.2059 L1573.04 72.576 L1565.59 72.576 L1565.59 27.2059 M1565.59 9.54393 L1573.04 9.54393 L1573.04 18.9825 L1565.59 18.9825 L1565.59 9.54393 Z" fill="#000000" fill-rule="nonzero" fill-opacity="1" /><path clip-path="url(#clip730)" d="M1626.35 45.1919 L1626.35 72.576 L1618.9 72.576 L1618.9 45.4349 Q1618.9 38.994 1616.39 35.7938 Q1613.88 32.5936 1608.85 32.5936 Q1602.82 32.5936 1599.33 36.4419 Q1595.85 40.2903 1595.85 46.9338 L1595.85 72.576 L1588.35 72.576 L1588.35 27.2059 L1595.85 27.2059 L1595.85 34.2544 Q1598.52 30.163 1602.13 28.1376 Q1605.77 26.1121 1610.51 26.1121 Q1618.33 26.1121 1622.34 30.9732 Q1626.35 35.7938 1626.35 45.1919 Z" fill="#000000" fill-rule="nonzero" fill-opacity="1" /><path clip-path="url(#clip730)" d="M1680.03 48.0275 L1680.03 51.6733 L1645.76 51.6733 Q1646.24 59.3701 1650.37 63.421 Q1654.55 67.4314 1661.96 67.4314 Q1666.25 67.4314 1670.26 66.3781 Q1674.31 65.3249 1678.28 63.2184 L1678.28 70.267 Q1674.27 71.9684 1670.06 72.8596 Q1665.85 73.7508 1661.51 73.7508 Q1650.66 73.7508 1644.3 67.4314 Q1637.98 61.1119 1637.98 50.3365 Q1637.98 39.1965 1643.97 32.6746 Q1650.01 26.1121 1660.22 26.1121 Q1669.37 26.1121 1674.68 32.0264 Q1680.03 37.9003 1680.03 48.0275 M1672.57 45.84 Q1672.49 39.7232 1669.13 36.0774 Q1665.81 32.4315 1660.3 32.4315 Q1654.06 32.4315 1650.29 35.9558 Q1646.57 39.4801 1646 45.8805 L1672.57 45.84 Z" fill="#000000" fill-rule="nonzero" fill-opacity="1" /><path clip-path="url(#clip730)" d="M1727.14 18.8205 L1727.14 41.5461 L1737.43 41.5461 Q1743.14 41.5461 1746.26 38.5889 Q1749.38 35.6318 1749.38 30.163 Q1749.38 24.7348 1746.26 21.7777 Q1743.14 18.8205 1737.43 18.8205 L1727.14 18.8205 M1718.96 12.096 L1737.43 12.096 Q1747.6 12.096 1752.78 16.714 Q1758.01 21.2916 1758.01 30.163 Q1758.01 39.1155 1752.78 43.6931 Q1747.6 48.2706 1737.43 48.2706 L1727.14 48.2706 L1727.14 72.576 L1718.96 72.576 L1718.96 12.096 Z" fill="#000000" fill-rule="nonzero" fill-opacity="1" /><path clip-path="url(#clip730)" d="M1768.66 9.54393 L1776.11 9.54393 L1776.11 72.576 L1768.66 72.576 L1768.66 9.54393 Z" fill="#000000" fill-rule="nonzero" fill-opacity="1" /><path clip-path="url(#clip730)" d="M1809.29 32.4315 Q1803.3 32.4315 1799.81 37.1306 Q1796.33 41.7891 1796.33 49.9314 Q1796.33 58.0738 1799.77 62.7728 Q1803.26 67.4314 1809.29 67.4314 Q1815.25 67.4314 1818.73 62.7323 Q1822.21 58.0333 1822.21 49.9314 Q1822.21 41.8701 1818.73 37.1711 Q1815.25 32.4315 1809.29 32.4315 M1809.29 26.1121 Q1819.01 26.1121 1824.56 32.4315 Q1830.11 38.7509 1830.11 49.9314 Q1830.11 61.0714 1824.56 67.4314 Q1819.01 73.7508 1809.29 73.7508 Q1799.53 73.7508 1793.98 67.4314 Q1788.47 61.0714 1788.47 49.9314 Q1788.47 38.7509 1793.98 32.4315 Q1799.53 26.1121 1809.29 26.1121 Z" fill="#000000" fill-rule="nonzero" fill-opacity="1" /><path clip-path="url(#clip730)" d="M1849.84 14.324 L1849.84 27.2059 L1865.19 27.2059 L1865.19 32.9987 L1849.84 32.9987 L1849.84 57.6282 Q1849.84 63.1779 1851.34 64.7578 Q1852.88 66.3376 1857.54 66.3376 L1865.19 66.3376 L1865.19 72.576 L1857.54 72.576 Q1848.91 72.576 1845.63 69.3758 Q1842.35 66.1351 1842.35 57.6282 L1842.35 32.9987 L1836.88 32.9987 L1836.88 27.2059 L1842.35 27.2059 L1842.35 14.324 L1849.84 14.324 Z" fill="#000000" fill-rule="nonzero" fill-opacity="1" /><polyline clip-path="url(#clip731)" style="stroke:#ff0000; stroke-linecap:round; stroke-linejoin:round; stroke-width:8; stroke-opacity:1; fill:none" stroke-dasharray="32, 20" points="294.479,355.862 547.583,173.254 800.687,864.533 1053.79,319.054 1306.9,263.79 1560,1375.26 1813.1,1362.04 2066.21,1092.34 2319.31,550.417 2572.42,1688.65 "/>
<circle clip-path="url(#clip731)" cx="294.479" cy="355.862" r="28.8" fill="#ff0000" fill-rule="evenodd" fill-opacity="1" stroke="#000000" stroke-opacity="1" stroke-width="3.84"/>
<circle clip-path="url(#clip731)" cx="547.583" cy="173.254" r="28.8" fill="#ff0000" fill-rule="evenodd" fill-opacity="1" stroke="#000000" stroke-opacity="1" stroke-width="3.84"/>
<circle clip-path="url(#clip731)" cx="800.687" cy="864.533" r="28.8" fill="#ff0000" fill-rule="evenodd" fill-opacity="1" stroke="#000000" stroke-opacity="1" stroke-width="3.84"/>
<circle clip-path="url(#clip731)" cx="1053.79" cy="319.054" r="28.8" fill="#ff0000" fill-rule="evenodd" fill-opacity="1" stroke="#000000" stroke-opacity="1" stroke-width="3.84"/>
<circle clip-path="url(#clip731)" cx="1306.9" cy="263.79" r="28.8" fill="#ff0000" fill-rule="evenodd" fill-opacity="1" stroke="#000000" stroke-opacity="1" stroke-width="3.84"/>
<circle clip-path="url(#clip731)" cx="1560" cy="1375.26" r="28.8" fill="#ff0000" fill-rule="evenodd" fill-opacity="1" stroke="#000000" stroke-opacity="1" stroke-width="3.84"/>
<circle clip-path="url(#clip731)" cx="1813.1" cy="1362.04" r="28.8" fill="#ff0000" fill-rule="evenodd" fill-opacity="1" stroke="#000000" stroke-opacity="1" stroke-width="3.84"/>
<circle clip-path="url(#clip731)" cx="2066.21" cy="1092.34" r="28.8" fill="#ff0000" fill-rule="evenodd" fill-opacity="1" stroke="#000000" stroke-opacity="1" stroke-width="3.84"/>
<circle clip-path="url(#clip731)" cx="2319.31" cy="550.417" r="28.8" fill="#ff0000" fill-rule="evenodd" fill-opacity="1" stroke="#000000" stroke-opacity="1" stroke-width="3.84"/>
<circle clip-path="url(#clip731)" cx="2572.42" cy="1688.65" r="28.8" fill="#ff0000" fill-rule="evenodd" fill-opacity="1" stroke="#000000" stroke-opacity="1" stroke-width="3.84"/>
<path clip-path="url(#clip730)" d="M2266.38 285.016 L2560.27 285.016 L2560.27 181.336 L2266.38 181.336  Z" fill="#ffffff" fill-rule="evenodd" fill-opacity="1"/>
<polyline clip-path="url(#clip730)" style="stroke:#000000; stroke-linecap:round; stroke-linejoin:round; stroke-width:4; stroke-opacity:1; fill:none" points="2266.38,285.016 2560.27,285.016 2560.27,181.336 2266.38,181.336 2266.38,285.016 "/>
<polyline clip-path="url(#clip730)" style="stroke:#ff0000; stroke-linecap:round; stroke-linejoin:round; stroke-width:8; stroke-opacity:1; fill:none" stroke-dasharray="32, 20" points="2293.21,233.176 2454.18,233.176 "/>
<circle clip-path="url(#clip730)" cx="2373.69" cy="233.176" r="21.6847" fill="#ff0000" fill-rule="evenodd" fill-opacity="1" stroke="#000000" stroke-opacity="1" stroke-width="2.89129"/>
<path clip-path="url(#clip730)" d="M2494.85 252.864 Q2493.05 257.493 2491.33 258.905 Q2489.62 260.317 2486.75 260.317 L2483.35 260.317 L2483.35 256.753 L2485.85 256.753 Q2487.61 256.753 2488.58 255.919 Q2489.55 255.086 2490.73 251.984 L2491.5 250.04 L2481.01 224.531 L2485.52 224.531 L2493.63 244.808 L2501.73 224.531 L2506.24 224.531 L2494.85 252.864 Z" fill="#000000" fill-rule="nonzero" fill-opacity="1" /><path clip-path="url(#clip730)" d="M2513.53 246.521 L2521.17 246.521 L2521.17 220.156 L2512.86 221.822 L2512.86 217.563 L2521.12 215.896 L2525.8 215.896 L2525.8 246.521 L2533.44 246.521 L2533.44 250.456 L2513.53 250.456 L2513.53 246.521 Z" fill="#000000" fill-rule="nonzero" fill-opacity="1" /></svg>
