<?xml version="1.0" encoding="utf-8"?>
<svg xmlns="http://www.w3.org/2000/svg" xmlns:xlink="http://www.w3.org/1999/xlink" width="672" height="480" viewBox="0 0 2688 1920">
<defs>
  <clipPath id="clip820">
    <rect x="0" y="0" width="2688" height="1920"/>
  </clipPath>
</defs>
<path clip-path="url(#clip820)" d="M0 1920 L2688 1920 L2688 -4.26326e-14 L0 -4.26326e-14  Z" fill="#ffffff" fill-rule="evenodd" fill-opacity="1"/>
<defs>
  <clipPath id="clip821">
    <rect x="144" y="127" width="2497" height="1674"/>
  </clipPath>
</defs>
<path clip-path="url(#clip820)" d="M144.733 1800.78 L2640.76 1800.78 L2640.76 127.792 L144.733 127.792  Z" fill="#ffffff" fill-rule="evenodd" fill-opacity="1"/>
<polyline clip-path="url(#clip821)" style="stroke:#000000; stroke-linecap:round; stroke-linejoin:round; stroke-width:2; stroke-opacity:0.1; fill:none" points="147.385,1800.78 147.385,127.792 "/>
<polyline clip-path="url(#clip821)" style="stroke:#000000; stroke-linecap:round; stroke-linejoin:round; stroke-width:2; stroke-opacity:0.1; fill:none" points="820.552,1800.78 820.552,127.792 "/>
<polyline clip-path="url(#clip821)" style="stroke:#000000; stroke-linecap:round; stroke-linejoin:round; stroke-width:2; stroke-opacity:0.1; fill:none" points="1493.72,1800.78 1493.72,127.792 "/>
<polyline clip-path="url(#clip821)" style="stroke:#000000; stroke-linecap:round; stroke-linejoin:round; stroke-width:2; stroke-opacity:0.1; fill:none" points="2166.89,1800.78 2166.89,127.792 "/>
<polyline clip-path="url(#clip821)" style="stroke:#000000; stroke-linecap:round; stroke-linejoin:round; stroke-width:2; stroke-opacity:0.1; fill:none" points="144.733,1800.78 2640.76,1800.78 "/>
<polyline clip-path="url(#clip821)" style="stroke:#000000; stroke-linecap:round; stroke-linejoin:round; stroke-width:2; stroke-opacity:0.1; fill:none" points="144.733,1387.7 2640.76,1387.7 "/>
<polyline clip-path="url(#clip821)" style="stroke:#000000; stroke-linecap:round; stroke-linejoin:round; stroke-width:2; stroke-opacity:0.1; fill:none" points="144.733,974.613 2640.76,974.613 "/>
<polyline clip-path="url(#clip821)" style="stroke:#000000; stroke-linecap:round; stroke-linejoin:round; stroke-width:2; stroke-opacity:0.1; fill:none" points="144.733,561.53 2640.76,561.53 "/>
<polyline clip-path="url(#clip821)" style="stroke:#000000; stroke-linecap:round; stroke-linejoin:round; stroke-width:2; stroke-opacity:0.1; fill:none" points="144.733,148.446 2640.76,148.446 "/>
<polyline clip-path="url(#clip820)" style="stroke:#000000; stroke-linecap:round; stroke-linejoin:round; stroke-width:4; stroke-opacity:1; fill:none" points="144.733,1800.78 2640.76,1800.78 "/>
<polyline clip-path="url(#clip820)" style="stroke:#000000; stroke-linecap:round; stroke-linejoin:round; stroke-width:4; stroke-opacity:1; fill:none" points="147.385,1800.78 147.385,1781.88 "/>
<polyline clip-path="url(#clip820)" style="stroke:#000000; stroke-linecap:round; stroke-linejoin:round; stroke-width:4; stroke-opacity:1; fill:none" points="820.552,1800.78 820.552,1781.88 "/>
<polyline clip-path="url(#clip820)" style="stroke:#000000; stroke-linecap:round; stroke-linejoin:round; stroke-width:4; stroke-opacity:1; fill:none" points="1493.72,1800.78 1493.72,1781.88 "/>
<polyline clip-path="url(#clip820)" style="stroke:#000000; stroke-linecap:round; stroke-linejoin:round; stroke-width:4; stroke-opacity:1; fill:none" points="2166.89,1800.78 2166.89,1781.88 "/>
<path clip-path="url(#clip820)" d="M116.286 1848.65 L145.962 1848.65 L145.962 1852.59 L116.286 1852.59 L116.286 1848.65 Z" fill="#000000" fill-rule="nonzero" fill-opacity="1" /><path clip-path="url(#clip820)" d="M168.901 1835 L157.096 1853.45 L168.901 1853.45 L168.901 1835 M167.674 1830.92 L173.554 1830.92 L173.554 1853.45 L178.485 1853.45 L178.485 1857.34 L173.554 1857.34 L173.554 1865.48 L168.901 1865.48 L168.901 1857.34 L153.3 1857.34 L153.3 1852.82 L167.674 1830.92 Z" fill="#000000" fill-rule="nonzero" fill-opacity="1" /><path clip-path="url(#clip820)" d="M790.495 1848.65 L820.17 1848.65 L820.17 1852.59 L790.495 1852.59 L790.495 1848.65 Z" fill="#000000" fill-rule="nonzero" fill-opacity="1" /><path clip-path="url(#clip820)" d="M834.291 1861.55 L850.61 1861.55 L850.61 1865.48 L828.666 1865.48 L828.666 1861.55 Q831.328 1858.79 835.911 1854.16 Q840.518 1849.51 841.698 1848.17 Q843.943 1845.65 844.823 1843.91 Q845.726 1842.15 845.726 1840.46 Q845.726 1837.71 843.781 1835.97 Q841.86 1834.23 838.758 1834.23 Q836.559 1834.23 834.106 1835 Q831.675 1835.76 828.897 1837.31 L828.897 1832.59 Q831.721 1831.46 834.175 1830.88 Q836.629 1830.3 838.666 1830.3 Q844.036 1830.3 847.23 1832.98 Q850.425 1835.67 850.425 1840.16 Q850.425 1842.29 849.615 1844.21 Q848.828 1846.11 846.721 1848.7 Q846.142 1849.37 843.041 1852.59 Q839.939 1855.78 834.291 1861.55 Z" fill="#000000" fill-rule="nonzero" fill-opacity="1" /><path clip-path="url(#clip820)" d="M1493.72 1834 Q1490.11 1834 1488.28 1837.57 Q1486.47 1841.11 1486.47 1848.24 Q1486.47 1855.34 1488.28 1858.91 Q1490.11 1862.45 1493.72 1862.45 Q1497.35 1862.45 1499.16 1858.91 Q1500.99 1855.34 1500.99 1848.24 Q1500.99 1841.11 1499.16 1837.57 Q1497.35 1834 1493.72 1834 M1493.72 1830.3 Q1499.53 1830.3 1502.59 1834.9 Q1505.66 1839.49 1505.66 1848.24 Q1505.66 1856.96 1502.59 1861.57 Q1499.53 1866.15 1493.72 1866.15 Q1487.91 1866.15 1484.83 1861.57 Q1481.78 1856.96 1481.78 1848.24 Q1481.78 1839.49 1484.83 1834.9 Q1487.91 1830.3 1493.72 1830.3 Z" fill="#000000" fill-rule="nonzero" fill-opacity="1" /><path clip-path="url(#clip820)" d="M2161.54 1861.55 L2177.86 1861.55 L2177.86 1865.48 L2155.91 1865.48 L2155.91 1861.55 Q2158.58 1858.79 2163.16 1854.16 Q2167.77 1849.51 2168.95 1848.17 Q2171.19 1845.65 2172.07 1843.91 Q2172.97 1842.15 2172.97 1840.46 Q2172.97 1837.71 2171.03 1835.97 Q2169.11 1834.23 2166.01 1834.23 Q2163.81 1834.23 2161.35 1835 Q2158.92 1835.76 2156.15 1837.31 L2156.15 1832.59 Q2158.97 1831.46 2161.42 1830.88 Q2163.88 1830.3 2165.91 1830.3 Q2171.28 1830.3 2174.48 1832.98 Q2177.67 1835.67 2177.67 1840.16 Q2177.67 1842.29 2176.86 1844.21 Q2176.08 1846.11 2173.97 1848.7 Q2173.39 1849.37 2170.29 1852.59 Q2167.19 1855.78 2161.54 1861.55 Z" fill="#000000" fill-rule="nonzero" fill-opacity="1" /><polyline clip-path="url(#clip820)" style="stroke:#000000; stroke-linecap:round; stroke-linejoin:round; stroke-width:4; stroke-opacity:1; fill:none" points="144.733,1800.78 144.733,127.792 "/>
<polyline clip-path="url(#clip820)" style="stroke:#000000; stroke-linecap:round; stroke-linejoin:round; stroke-width:4; stroke-opacity:1; fill:none" points="144.733,1800.78 163.631,1800.78 "/>
<polyline clip-path="url(#clip820)" style="stroke:#000000; stroke-linecap:round; stroke-linejoin:round; stroke-width:4; stroke-opacity:1; fill:none" points="144.733,1387.7 163.631,1387.7 "/>
<polyline clip-path="url(#clip820)" style="stroke:#000000; stroke-linecap:round; stroke-linejoin:round; stroke-width:4; stroke-opacity:1; fill:none" points="144.733,974.613 163.631,974.613 "/>
<polyline clip-path="url(#clip820)" style="stroke:#000000; stroke-linecap:round; stroke-linejoin:round; stroke-width:4; stroke-opacity:1; fill:none" points="144.733,561.53 163.631,561.53 "/>
<polyline clip-path="url(#clip820)" style="stroke:#000000; stroke-linecap:round; stroke-linejoin:round; stroke-width:4; stroke-opacity:1; fill:none" points="144.733,148.446 163.631,148.446 "/>
<path clip-path="url(#clip820)" d="M92.4686 1786.58 Q88.8575 1786.58 87.0288 1790.14 Q85.2232 1793.68 85.2232 1800.81 Q85.2232 1807.92 87.0288 1811.49 Q88.8575 1815.03 92.4686 1815.03 Q96.1028 1815.03 97.9083 1811.49 Q99.737 1807.92 99.737 1800.81 Q99.737 1793.68 97.9083 1790.14 Q96.1028 1786.58 92.4686 1786.58 M92.4686 1782.87 Q98.2787 1782.87 101.334 1787.48 Q104.413 1792.06 104.413 1800.81 Q104.413 1809.54 101.334 1814.15 Q98.2787 1818.73 92.4686 1818.73 Q86.6584 1818.73 83.5797 1814.15 Q80.5242 1809.54 80.5242 1800.81 Q80.5242 1792.06 83.5797 1787.48 Q86.6584 1782.87 92.4686 1782.87 Z" fill="#000000" fill-rule="nonzero" fill-opacity="1" /><path clip-path="url(#clip820)" d="M56.3345 1401.04 L72.6539 1401.04 L72.6539 1404.98 L50.7095 1404.98 L50.7095 1401.04 Q53.3715 1398.29 57.9549 1393.66 Q62.5613 1389 63.7419 1387.66 Q65.9872 1385.14 66.8668 1383.4 Q67.7696 1381.64 67.7696 1379.95 Q67.7696 1377.2 65.8252 1375.46 Q63.9039 1373.73 60.8021 1373.73 Q58.603 1373.73 56.1493 1374.49 Q53.7188 1375.25 50.941 1376.8 L50.941 1372.08 Q53.7651 1370.95 56.2188 1370.37 Q58.6724 1369.79 60.7095 1369.79 Q66.0798 1369.79 69.2742 1372.48 Q72.4687 1375.16 72.4687 1379.65 Q72.4687 1381.78 71.6585 1383.7 Q70.8715 1385.6 68.765 1388.19 Q68.1863 1388.87 65.0845 1392.08 Q61.9826 1395.28 56.3345 1401.04 Z" fill="#000000" fill-rule="nonzero" fill-opacity="1" /><path clip-path="url(#clip820)" d="M92.4686 1373.49 Q88.8575 1373.49 87.0288 1377.06 Q85.2232 1380.6 85.2232 1387.73 Q85.2232 1394.84 87.0288 1398.4 Q88.8575 1401.94 92.4686 1401.94 Q96.1028 1401.94 97.9083 1398.4 Q99.737 1394.84 99.737 1387.73 Q99.737 1380.6 97.9083 1377.06 Q96.1028 1373.49 92.4686 1373.49 M92.4686 1369.79 Q98.2787 1369.79 101.334 1374.4 Q104.413 1378.98 104.413 1387.73 Q104.413 1396.46 101.334 1401.06 Q98.2787 1405.65 92.4686 1405.65 Q86.6584 1405.65 83.5797 1401.06 Q80.5242 1396.46 80.5242 1387.73 Q80.5242 1378.98 83.5797 1374.4 Q86.6584 1369.79 92.4686 1369.79 Z" fill="#000000" fill-rule="nonzero" fill-opacity="1" /><path clip-path="url(#clip820)" d="M65.1539 961.407 L53.3484 979.856 L65.1539 979.856 L65.1539 961.407 M63.927 957.333 L69.8066 957.333 L69.8066 979.856 L74.7372 979.856 L74.7372 983.745 L69.8066 983.745 L69.8066 991.893 L65.1539 991.893 L65.1539 983.745 L49.5521 983.745 L49.5521 979.231 L63.927 957.333 Z" fill="#000000" fill-rule="nonzero" fill-opacity="1" /><path clip-path="url(#clip820)" d="M92.4686 960.411 Q88.8575 960.411 87.0288 963.976 Q85.2232 967.518 85.2232 974.648 Q85.2232 981.754 87.0288 985.319 Q88.8575 988.86 92.4686 988.86 Q96.1028 988.86 97.9083 985.319 Q99.737 981.754 99.737 974.648 Q99.737 967.518 97.9083 963.976 Q96.1028 960.411 92.4686 960.411 M92.4686 956.708 Q98.2787 956.708 101.334 961.314 Q104.413 965.898 104.413 974.648 Q104.413 983.374 101.334 987.981 Q98.2787 992.564 92.4686 992.564 Q86.6584 992.564 83.5797 987.981 Q80.5242 983.374 80.5242 974.648 Q80.5242 965.898 83.5797 961.314 Q86.6584 956.708 92.4686 956.708 Z" fill="#000000" fill-rule="nonzero" fill-opacity="1" /><path clip-path="url(#clip820)" d="M62.8854 559.666 Q59.7373 559.666 57.8854 561.819 Q56.0567 563.972 56.0567 567.722 Q56.0567 571.448 57.8854 573.624 Q59.7373 575.777 62.8854 575.777 Q66.0335 575.777 67.8622 573.624 Q69.7141 571.448 69.7141 567.722 Q69.7141 563.972 67.8622 561.819 Q66.0335 559.666 62.8854 559.666 M72.1677 545.013 L72.1677 549.273 Q70.4085 548.439 68.6029 548 Q66.8206 547.56 65.0613 547.56 Q60.4317 547.56 57.978 550.685 Q55.5475 553.81 55.2002 560.129 Q56.566 558.115 58.6262 557.05 Q60.6863 555.962 63.1632 555.962 Q68.3715 555.962 71.3807 559.134 Q74.4131 562.282 74.4131 567.722 Q74.4131 573.046 71.265 576.263 Q68.1168 579.481 62.8854 579.481 Q56.89 579.481 53.7188 574.898 Q50.5475 570.291 50.5475 561.564 Q50.5475 553.37 54.4364 548.509 Q58.3252 543.625 64.8761 543.625 Q66.6354 543.625 68.4178 543.972 Q70.2233 544.319 72.1677 545.013 Z" fill="#000000" fill-rule="nonzero" fill-opacity="1" /><path clip-path="url(#clip820)" d="M92.4686 547.328 Q88.8575 547.328 87.0288 550.893 Q85.2232 554.435 85.2232 561.564 Q85.2232 568.671 87.0288 572.236 Q88.8575 575.777 92.4686 575.777 Q96.1028 575.777 97.9083 572.236 Q99.737 568.671 99.737 561.564 Q99.737 554.435 97.9083 550.893 Q96.1028 547.328 92.4686 547.328 M92.4686 543.625 Q98.2787 543.625 101.334 548.231 Q104.413 552.814 104.413 561.564 Q104.413 570.291 101.334 574.898 Q98.2787 579.481 92.4686 579.481 Q86.6584 579.481 83.5797 574.898 Q80.5242 570.291 80.5242 561.564 Q80.5242 552.814 83.5797 548.231 Q86.6584 543.625 92.4686 543.625 Z" fill="#000000" fill-rule="nonzero" fill-opacity="1" /><path clip-path="url(#clip820)" d="M62.3067 149.314 Q58.9734 149.314 57.0521 151.097 Q55.1539 152.879 55.1539 156.004 Q55.1539 159.129 57.0521 160.911 Q58.9734 162.694 62.3067 162.694 Q65.64 162.694 67.5613 160.911 Q69.4826 159.106 69.4826 156.004 Q69.4826 152.879 67.5613 151.097 Q65.6632 149.314 62.3067 149.314 M57.6308 147.324 Q54.6215 146.583 52.9317 144.523 Q51.2651 142.463 51.2651 139.5 Q51.2651 135.356 54.2049 132.949 Q57.1678 130.541 62.3067 130.541 Q67.4687 130.541 70.4085 132.949 Q73.3483 135.356 73.3483 139.5 Q73.3483 142.463 71.6585 144.523 Q69.9918 146.583 67.0057 147.324 Q70.3853 148.111 72.2603 150.402 Q74.1585 152.694 74.1585 156.004 Q74.1585 161.027 71.0798 163.712 Q68.0242 166.398 62.3067 166.398 Q56.5891 166.398 53.5104 163.712 Q50.4549 161.027 50.4549 156.004 Q50.4549 152.694 52.353 150.402 Q54.2512 148.111 57.6308 147.324 M55.9178 139.939 Q55.9178 142.625 57.5845 144.129 Q59.2743 145.634 62.3067 145.634 Q65.3159 145.634 67.0057 144.129 Q68.7187 142.625 68.7187 139.939 Q68.7187 137.254 67.0057 135.75 Q65.3159 134.245 62.3067 134.245 Q59.2743 134.245 57.5845 135.75 Q55.9178 137.254 55.9178 139.939 Z" fill="#000000" fill-rule="nonzero" fill-opacity="1" /><path clip-path="url(#clip820)" d="M92.4686 134.245 Q88.8575 134.245 87.0288 137.81 Q85.2232 141.351 85.2232 148.481 Q85.2232 155.587 87.0288 159.152 Q88.8575 162.694 92.4686 162.694 Q96.1028 162.694 97.9083 159.152 Q99.737 155.587 99.737 148.481 Q99.737 141.351 97.9083 137.81 Q96.1028 134.245 92.4686 134.245 M92.4686 130.541 Q98.2787 130.541 101.334 135.148 Q104.413 139.731 104.413 148.481 Q104.413 157.208 101.334 161.814 Q98.2787 166.398 92.4686 166.398 Q86.6584 166.398 83.5797 161.814 Q80.5242 157.208 80.5242 148.481 Q80.5242 139.731 83.5797 135.148 Q86.6584 130.541 92.4686 130.541 Z" fill="#000000" fill-rule="nonzero" fill-opacity="1" /><path clip-path="url(#clip820)" d="M990.692 12.096 L998.875 12.096 L998.875 36.8875 L1028.61 36.8875 L1028.61 12.096 L1036.79 12.096 L1036.79 72.576 L1028.61 72.576 L1028.61 43.7741 L998.875 43.7741 L998.875 72.576 L990.692 72.576 L990.692 12.096 Z" fill="#000000" fill-rule="nonzero" fill-opacity="1" /><path clip-path="url(#clip820)" d="M1052.75 27.2059 L1060.21 27.2059 L1060.21 72.576 L1052.75 72.576 L1052.75 27.2059 M1052.75 9.54393 L1060.21 9.54393 L1060.21 18.9825 L1052.75 18.9825 L1052.75 9.54393 Z" fill="#000000" fill-rule="nonzero" fill-opacity="1" /><path clip-path="url(#clip820)" d="M1104.73 28.5427 L1104.73 35.5912 Q1101.57 33.9709 1098.16 33.1607 Q1094.76 32.3505 1091.11 32.3505 Q1085.56 32.3505 1082.77 34.0519 Q1080.01 35.7533 1080.01 39.156 Q1080.01 41.7486 1082 43.2475 Q1083.98 44.7058 1089.98 46.0426 L1092.53 46.6097 Q1100.47 48.3111 1103.79 51.4303 Q1107.16 54.509 1107.16 60.0587 Q1107.16 66.3781 1102.13 70.0644 Q1097.15 73.7508 1088.4 73.7508 Q1084.75 73.7508 1080.78 73.0216 Q1076.85 72.3329 1072.48 70.9151 L1072.48 63.2184 Q1076.61 65.3654 1080.62 66.4591 Q1084.63 67.5124 1088.56 67.5124 Q1093.83 67.5124 1096.66 65.73 Q1099.5 63.9071 1099.5 60.6258 Q1099.5 57.5877 1097.43 55.9673 Q1095.41 54.3469 1088.48 52.8481 L1085.89 52.2405 Q1078.96 50.7821 1075.88 47.7845 Q1072.8 44.7463 1072.8 39.4801 Q1072.8 33.0797 1077.34 29.5959 Q1081.88 26.1121 1090.22 26.1121 Q1094.35 26.1121 1098 26.7198 Q1101.65 27.3274 1104.73 28.5427 Z" fill="#000000" fill-rule="nonzero" fill-opacity="1" /><path clip-path="url(#clip820)" d="M1126.4 14.324 L1126.4 27.2059 L1141.75 27.2059 L1141.75 32.9987 L1126.4 32.9987 L1126.4 57.6282 Q1126.4 63.1779 1127.9 64.7578 Q1129.44 66.3376 1134.09 66.3376 L1141.75 66.3376 L1141.75 72.576 L1134.09 72.576 Q1125.47 72.576 1122.18 69.3758 Q1118.9 66.1351 1118.9 57.6282 L1118.9 32.9987 L1113.43 32.9987 L1113.43 27.2059 L1118.9 27.2059 L1118.9 14.324 L1126.4 14.324 Z" fill="#000000" fill-rule="nonzero" fill-opacity="1" /><path clip-path="url(#clip820)" d="M1169.13 32.4315 Q1163.14 32.4315 1159.66 37.1306 Q1156.17 41.7891 1156.17 49.9314 Q1156.17 58.0738 1159.61 62.7728 Q1163.1 67.4314 1169.13 67.4314 Q1175.09 67.4314 1178.57 62.7323 Q1182.06 58.0333 1182.06 49.9314 Q1182.06 41.8701 1178.57 37.1711 Q1175.09 32.4315 1169.13 32.4315 M1169.13 26.1121 Q1178.86 26.1121 1184.41 32.4315 Q1189.96 38.7509 1189.96 49.9314 Q1189.96 61.0714 1184.41 67.4314 Q1178.86 73.7508 1169.13 73.7508 Q1159.37 73.7508 1153.82 67.4314 Q1148.31 61.0714 1148.31 49.9314 Q1148.31 38.7509 1153.82 32.4315 Q1159.37 26.1121 1169.13 26.1121 Z" fill="#000000" fill-rule="nonzero" fill-opacity="1" /><path clip-path="url(#clip820)" d="M1232.17 49.3643 Q1232.17 41.2625 1228.8 36.8065 Q1225.48 32.3505 1219.45 32.3505 Q1213.45 32.3505 1210.09 36.8065 Q1206.77 41.2625 1206.77 49.3643 Q1206.77 57.4256 1210.09 61.8816 Q1213.45 66.3376 1219.45 66.3376 Q1225.48 66.3376 1228.8 61.8816 Q1232.17 57.4256 1232.17 49.3643 M1239.62 66.9452 Q1239.62 78.5308 1234.48 84.1616 Q1229.33 89.8329 1218.72 89.8329 Q1214.79 89.8329 1211.3 89.2252 Q1207.82 88.6581 1204.54 87.4428 L1204.54 80.1917 Q1207.82 81.9741 1211.02 82.8248 Q1214.22 83.6755 1217.54 83.6755 Q1224.87 83.6755 1228.52 79.8271 Q1232.17 76.0193 1232.17 68.282 L1232.17 64.5957 Q1229.86 68.6061 1226.25 70.5911 Q1222.65 72.576 1217.62 72.576 Q1209.28 72.576 1204.17 66.2161 Q1199.07 59.8562 1199.07 49.3643 Q1199.07 38.832 1204.17 32.472 Q1209.28 26.1121 1217.62 26.1121 Q1222.65 26.1121 1226.25 28.0971 Q1229.86 30.082 1232.17 34.0924 L1232.17 27.2059 L1239.62 27.2059 L1239.62 66.9452 Z" fill="#000000" fill-rule="nonzero" fill-opacity="1" /><path clip-path="url(#clip820)" d="M1281.26 34.1734 Q1280.01 33.4443 1278.51 33.1202 Q1277.05 32.7556 1275.27 32.7556 Q1268.95 32.7556 1265.55 36.8875 Q1262.18 40.9789 1262.18 48.6757 L1262.18 72.576 L1254.69 72.576 L1254.69 27.2059 L1262.18 27.2059 L1262.18 34.2544 Q1264.53 30.1225 1268.3 28.1376 Q1272.07 26.1121 1277.46 26.1121 Q1278.23 26.1121 1279.16 26.2337 Q1280.09 26.3147 1281.22 26.5172 L1281.26 34.1734 Z" fill="#000000" fill-rule="nonzero" fill-opacity="1" /><path clip-path="url(#clip820)" d="M1309.7 49.7694 Q1300.67 49.7694 1297.18 51.8354 Q1293.7 53.9013 1293.7 58.8839 Q1293.7 62.8538 1296.29 65.2034 Q1298.93 67.5124 1303.42 67.5124 Q1309.62 67.5124 1313.35 63.1374 Q1317.11 58.7219 1317.11 51.4303 L1317.11 49.7694 L1309.7 49.7694 M1324.57 46.6907 L1324.57 72.576 L1317.11 72.576 L1317.11 65.6895 Q1314.56 69.8214 1310.75 71.8063 Q1306.95 73.7508 1301.44 73.7508 Q1294.47 73.7508 1290.34 69.8619 Q1286.25 65.9325 1286.25 59.3701 Q1286.25 51.7138 1291.35 47.825 Q1296.49 43.9361 1306.66 43.9361 L1317.11 43.9361 L1317.11 43.2069 Q1317.11 38.0623 1313.71 35.2672 Q1310.35 32.4315 1304.23 32.4315 Q1300.34 32.4315 1296.66 33.3632 Q1292.97 34.295 1289.57 36.1584 L1289.57 29.2718 Q1293.66 27.692 1297.51 26.9223 Q1301.36 26.1121 1305 26.1121 Q1314.85 26.1121 1319.71 31.2163 Q1324.57 36.3204 1324.57 46.6907 Z" fill="#000000" fill-rule="nonzero" fill-opacity="1" /><path clip-path="url(#clip820)" d="M1375.24 35.9153 Q1378.04 30.8922 1381.93 28.5022 Q1385.82 26.1121 1391.08 26.1121 Q1398.17 26.1121 1402.02 31.0947 Q1405.87 36.0368 1405.87 45.1919 L1405.87 72.576 L1398.38 72.576 L1398.38 45.4349 Q1398.38 38.913 1396.07 35.7533 Q1393.76 32.5936 1389.02 32.5936 Q1383.22 32.5936 1379.86 36.4419 Q1376.5 40.2903 1376.5 46.9338 L1376.5 72.576 L1369.01 72.576 L1369.01 45.4349 Q1369.01 38.8725 1366.7 35.7533 Q1364.39 32.5936 1359.57 32.5936 Q1353.86 32.5936 1350.49 36.4824 Q1347.13 40.3308 1347.13 46.9338 L1347.13 72.576 L1339.64 72.576 L1339.64 27.2059 L1347.13 27.2059 L1347.13 34.2544 Q1349.68 30.082 1353.25 28.0971 Q1356.81 26.1121 1361.71 26.1121 Q1366.66 26.1121 1370.1 28.6237 Q1373.58 31.1352 1375.24 35.9153 Z" fill="#000000" fill-rule="nonzero" fill-opacity="1" /><path clip-path="url(#clip820)" d="M1447.43 12.096 L1485.67 12.096 L1485.67 18.9825 L1455.61 18.9825 L1455.61 36.8875 L1484.42 36.8875 L1484.42 43.7741 L1455.61 43.7741 L1455.61 65.6895 L1486.4 65.6895 L1486.4 72.576 L1447.43 72.576 L1447.43 12.096 Z" fill="#000000" fill-rule="nonzero" fill-opacity="1" /><path clip-path="url(#clip820)" d="M1537.24 27.2059 L1520.83 49.2833 L1538.09 72.576 L1529.3 72.576 L1516.09 54.752 L1502.89 72.576 L1494.1 72.576 L1511.72 48.8377 L1495.6 27.2059 L1504.39 27.2059 L1516.42 43.369 L1528.45 27.2059 L1537.24 27.2059 Z" fill="#000000" fill-rule="nonzero" fill-opacity="1" /><path clip-path="url(#clip820)" d="M1569.24 49.7694 Q1560.21 49.7694 1556.73 51.8354 Q1553.24 53.9013 1553.24 58.8839 Q1553.24 62.8538 1555.83 65.2034 Q1558.47 67.5124 1562.96 67.5124 Q1569.16 67.5124 1572.89 63.1374 Q1576.66 58.7219 1576.66 51.4303 L1576.66 49.7694 L1569.24 49.7694 M1584.11 46.6907 L1584.11 72.576 L1576.66 72.576 L1576.66 65.6895 Q1574.1 69.8214 1570.3 71.8063 Q1566.49 73.7508 1560.98 73.7508 Q1554.01 73.7508 1549.88 69.8619 Q1545.79 65.9325 1545.79 59.3701 Q1545.79 51.7138 1550.89 47.825 Q1556.04 43.9361 1566.2 43.9361 L1576.66 43.9361 L1576.66 43.2069 Q1576.66 38.0623 1573.25 35.2672 Q1569.89 32.4315 1563.77 32.4315 Q1559.88 32.4315 1556.2 33.3632 Q1552.51 34.295 1549.11 36.1584 L1549.11 29.2718 Q1553.2 27.692 1557.05 26.9223 Q1560.9 26.1121 1564.54 26.1121 Q1574.39 26.1121 1579.25 31.2163 Q1584.11 36.3204 1584.11 46.6907 Z" fill="#000000" fill-rule="nonzero" fill-opacity="1" /><path clip-path="url(#clip820)" d="M1634.79 35.9153 Q1637.58 30.8922 1641.47 28.5022 Q1645.36 26.1121 1650.62 26.1121 Q1657.71 26.1121 1661.56 31.0947 Q1665.41 36.0368 1665.41 45.1919 L1665.41 72.576 L1657.92 72.576 L1657.92 45.4349 Q1657.92 38.913 1655.61 35.7533 Q1653.3 32.5936 1648.56 32.5936 Q1642.77 32.5936 1639.4 36.4419 Q1636.04 40.2903 1636.04 46.9338 L1636.04 72.576 L1628.55 72.576 L1628.55 45.4349 Q1628.55 38.8725 1626.24 35.7533 Q1623.93 32.5936 1619.11 32.5936 Q1613.4 32.5936 1610.03 36.4824 Q1606.67 40.3308 1606.67 46.9338 L1606.67 72.576 L1599.18 72.576 L1599.18 27.2059 L1606.67 27.2059 L1606.67 34.2544 Q1609.22 30.082 1612.79 28.0971 Q1616.35 26.1121 1621.26 26.1121 Q1626.2 26.1121 1629.64 28.6237 Q1633.13 31.1352 1634.79 35.9153 Z" fill="#000000" fill-rule="nonzero" fill-opacity="1" /><path clip-path="url(#clip820)" d="M1687.49 65.7705 L1687.49 89.8329 L1679.99 89.8329 L1679.99 27.2059 L1687.49 27.2059 L1687.49 34.0924 Q1689.84 30.0415 1693.4 28.0971 Q1697.01 26.1121 1701.99 26.1121 Q1710.25 26.1121 1715.4 32.6746 Q1720.58 39.2371 1720.58 49.9314 Q1720.58 60.6258 1715.4 67.1883 Q1710.25 73.7508 1701.99 73.7508 Q1697.01 73.7508 1693.4 71.8063 Q1689.84 69.8214 1687.49 65.7705 M1712.85 49.9314 Q1712.85 41.7081 1709.44 37.0496 Q1706.08 32.3505 1700.17 32.3505 Q1694.25 32.3505 1690.85 37.0496 Q1687.49 41.7081 1687.49 49.9314 Q1687.49 58.1548 1690.85 62.8538 Q1694.25 67.5124 1700.17 67.5124 Q1706.08 67.5124 1709.44 62.8538 Q1712.85 58.1548 1712.85 49.9314 Z" fill="#000000" fill-rule="nonzero" fill-opacity="1" /><path clip-path="url(#clip820)" d="M1732.94 9.54393 L1740.39 9.54393 L1740.39 72.576 L1732.94 72.576 L1732.94 9.54393 Z" fill="#000000" fill-rule="nonzero" fill-opacity="1" /><path clip-path="url(#clip820)" d="M1794.8 48.0275 L1794.8 51.6733 L1760.53 51.6733 Q1761.01 59.3701 1765.14 63.421 Q1769.32 67.4314 1776.73 67.4314 Q1781.02 67.4314 1785.03 66.3781 Q1789.08 65.3249 1793.05 63.2184 L1793.05 70.267 Q1789.04 71.9684 1784.83 72.8596 Q1780.62 73.7508 1776.28 73.7508 Q1765.43 73.7508 1759.07 67.4314 Q1752.75 61.1119 1752.75 50.3365 Q1752.75 39.1965 1758.74 32.6746 Q1764.78 26.1121 1774.99 26.1121 Q1784.14 26.1121 1789.45 32.0264 Q1794.8 37.9003 1794.8 48.0275 M1787.34 45.84 Q1787.26 39.7232 1783.9 36.0774 Q1780.58 32.4315 1775.07 32.4315 Q1768.83 32.4315 1765.06 35.9558 Q1761.34 39.4801 1760.77 45.8805 L1787.34 45.84 Z" fill="#000000" fill-rule="nonzero" fill-opacity="1" /><path clip-path="url(#clip821)" d="M282.019 1780.13 L282.019 1800.78 L349.335 1800.78 L349.335 1780.13 L282.019 1780.13 L282.019 1780.13  Z" fill="#009af9" fill-rule="evenodd" fill-opacity="1"/>
<polyline clip-path="url(#clip821)" style="stroke:#000000; stroke-linecap:round; stroke-linejoin:round; stroke-width:4; stroke-opacity:1; fill:none" points="282.019,1780.13 282.019,1800.78 349.335,1800.78 349.335,1780.13 282.019,1780.13 "/>
<path clip-path="url(#clip821)" d="M349.335 1800.78 L349.335 1800.78 L416.652 1800.78 L416.652 1800.78 L349.335 1800.78 L349.335 1800.78  Z" fill="#009af9" fill-rule="evenodd" fill-opacity="1"/>
<polyline clip-path="url(#clip821)" style="stroke:#000000; stroke-linecap:round; stroke-linejoin:round; stroke-width:4; stroke-opacity:1; fill:none" points="349.335,1800.78 349.335,1800.78 416.652,1800.78 349.335,1800.78 "/>
<path clip-path="url(#clip821)" d="M416.652 1800.78 L416.652 1800.78 L483.969 1800.78 L483.969 1800.78 L416.652 1800.78 L416.652 1800.78  Z" fill="#009af9" fill-rule="evenodd" fill-opacity="1"/>
<polyline clip-path="url(#clip821)" style="stroke:#000000; stroke-linecap:round; stroke-linejoin:round; stroke-width:4; stroke-opacity:1; fill:none" points="416.652,1800.78 416.652,1800.78 483.969,1800.78 416.652,1800.78 "/>
<path clip-path="url(#clip821)" d="M483.969 1759.47 L483.969 1800.78 L551.286 1800.78 L551.286 1759.47 L483.969 1759.47 L483.969 1759.47  Z" fill="#009af9" fill-rule="evenodd" fill-opacity="1"/>
<polyline clip-path="url(#clip821)" style="stroke:#000000; stroke-linecap:round; stroke-linejoin:round; stroke-width:4; stroke-opacity:1; fill:none" points="483.969,1759.47 483.969,1800.78 551.286,1800.78 551.286,1759.47 483.969,1759.47 "/>
<path clip-path="url(#clip821)" d="M551.286 1759.47 L551.286 1800.78 L618.602 1800.78 L618.602 1759.47 L551.286 1759.47 L551.286 1759.47  Z" fill="#009af9" fill-rule="evenodd" fill-opacity="1"/>
<polyline clip-path="url(#clip821)" style="stroke:#000000; stroke-linecap:round; stroke-linejoin:round; stroke-width:4; stroke-opacity:1; fill:none" points="551.286,1759.47 551.286,1800.78 618.602,1800.78 618.602,1759.47 551.286,1759.47 "/>
<path clip-path="url(#clip821)" d="M618.602 1718.16 L618.602 1800.78 L685.919 1800.78 L685.919 1718.16 L618.602 1718.16 L618.602 1718.16  Z" fill="#009af9" fill-rule="evenodd" fill-opacity="1"/>
<polyline clip-path="url(#clip821)" style="stroke:#000000; stroke-linecap:round; stroke-linejoin:round; stroke-width:4; stroke-opacity:1; fill:none" points="618.602,1718.16 618.602,1800.78 685.919,1800.78 685.919,1718.16 618.602,1718.16 "/>
<path clip-path="url(#clip821)" d="M685.919 1656.2 L685.919 1800.78 L753.236 1800.78 L753.236 1656.2 L685.919 1656.2 L685.919 1656.2  Z" fill="#009af9" fill-rule="evenodd" fill-opacity="1"/>
<polyline clip-path="url(#clip821)" style="stroke:#000000; stroke-linecap:round; stroke-linejoin:round; stroke-width:4; stroke-opacity:1; fill:none" points="685.919,1656.2 685.919,1800.78 753.236,1800.78 753.236,1656.2 685.919,1656.2 "/>
<path clip-path="url(#clip821)" d="M753.236 1614.89 L753.236 1800.78 L820.552 1800.78 L820.552 1614.89 L753.236 1614.89 L753.236 1614.89  Z" fill="#009af9" fill-rule="evenodd" fill-opacity="1"/>
<polyline clip-path="url(#clip821)" style="stroke:#000000; stroke-linecap:round; stroke-linejoin:round; stroke-width:4; stroke-opacity:1; fill:none" points="753.236,1614.89 753.236,1800.78 820.552,1800.78 820.552,1614.89 753.236,1614.89 "/>
<path clip-path="url(#clip821)" d="M820.552 1470.31 L820.552 1800.78 L887.869 1800.78 L887.869 1470.31 L820.552 1470.31 L820.552 1470.31  Z" fill="#009af9" fill-rule="evenodd" fill-opacity="1"/>
<polyline clip-path="url(#clip821)" style="stroke:#000000; stroke-linecap:round; stroke-linejoin:round; stroke-width:4; stroke-opacity:1; fill:none" points="820.552,1470.31 820.552,1800.78 887.869,1800.78 887.869,1470.31 820.552,1470.31 "/>
<path clip-path="url(#clip821)" d="M887.869 1408.35 L887.869 1800.78 L955.186 1800.78 L955.186 1408.35 L887.869 1408.35 L887.869 1408.35  Z" fill="#009af9" fill-rule="evenodd" fill-opacity="1"/>
<polyline clip-path="url(#clip821)" style="stroke:#000000; stroke-linecap:round; stroke-linejoin:round; stroke-width:4; stroke-opacity:1; fill:none" points="887.869,1408.35 887.869,1800.78 955.186,1800.78 955.186,1408.35 887.869,1408.35 "/>
<path clip-path="url(#clip821)" d="M955.186 1408.35 L955.186 1800.78 L1022.5 1800.78 L1022.5 1408.35 L955.186 1408.35 L955.186 1408.35  Z" fill="#009af9" fill-rule="evenodd" fill-opacity="1"/>
<polyline clip-path="url(#clip821)" style="stroke:#000000; stroke-linecap:round; stroke-linejoin:round; stroke-width:4; stroke-opacity:1; fill:none" points="955.186,1408.35 955.186,1800.78 1022.5,1800.78 1022.5,1408.35 955.186,1408.35 "/>
<path clip-path="url(#clip821)" d="M1022.5 1119.19 L1022.5 1800.78 L1089.82 1800.78 L1089.82 1119.19 L1022.5 1119.19 L1022.5 1119.19  Z" fill="#009af9" fill-rule="evenodd" fill-opacity="1"/>
<polyline clip-path="url(#clip821)" style="stroke:#000000; stroke-linecap:round; stroke-linejoin:round; stroke-width:4; stroke-opacity:1; fill:none" points="1022.5,1119.19 1022.5,1800.78 1089.82,1800.78 1089.82,1119.19 1022.5,1119.19 "/>
<path clip-path="url(#clip821)" d="M1089.82 933.304 L1089.82 1800.78 L1157.14 1800.78 L1157.14 933.304 L1089.82 933.304 L1089.82 933.304  Z" fill="#009af9" fill-rule="evenodd" fill-opacity="1"/>
<polyline clip-path="url(#clip821)" style="stroke:#000000; stroke-linecap:round; stroke-linejoin:round; stroke-width:4; stroke-opacity:1; fill:none" points="1089.82,933.304 1089.82,1800.78 1157.14,1800.78 1157.14,933.304 1089.82,933.304 "/>
<path clip-path="url(#clip821)" d="M1157.14 747.417 L1157.14 1800.78 L1224.45 1800.78 L1224.45 747.417 L1157.14 747.417 L1157.14 747.417  Z" fill="#009af9" fill-rule="evenodd" fill-opacity="1"/>
<polyline clip-path="url(#clip821)" style="stroke:#000000; stroke-linecap:round; stroke-linejoin:round; stroke-width:4; stroke-opacity:1; fill:none" points="1157.14,747.417 1157.14,1800.78 1224.45,1800.78 1224.45,747.417 1157.14,747.417 "/>
<path clip-path="url(#clip821)" d="M1224.45 768.071 L1224.45 1800.78 L1291.77 1800.78 L1291.77 768.071 L1224.45 768.071 L1224.45 768.071  Z" fill="#009af9" fill-rule="evenodd" fill-opacity="1"/>
<polyline clip-path="url(#clip821)" style="stroke:#000000; stroke-linecap:round; stroke-linejoin:round; stroke-width:4; stroke-opacity:1; fill:none" points="1224.45,768.071 1224.45,1800.78 1291.77,1800.78 1291.77,768.071 1224.45,768.071 "/>
<path clip-path="url(#clip821)" d="M1291.77 210.409 L1291.77 1800.78 L1359.09 1800.78 L1359.09 210.409 L1291.77 210.409 L1291.77 210.409  Z" fill="#009af9" fill-rule="evenodd" fill-opacity="1"/>
<polyline clip-path="url(#clip821)" style="stroke:#000000; stroke-linecap:round; stroke-linejoin:round; stroke-width:4; stroke-opacity:1; fill:none" points="1291.77,210.409 1291.77,1800.78 1359.09,1800.78 1359.09,210.409 1291.77,210.409 "/>
<path clip-path="url(#clip821)" d="M1359.09 127.792 L1359.09 1800.78 L1426.4 1800.78 L1426.4 127.792 L1359.09 127.792 L1359.09 127.792  Z" fill="#009af9" fill-rule="evenodd" fill-opacity="1"/>
<polyline clip-path="url(#clip821)" style="stroke:#000000; stroke-linecap:round; stroke-linejoin:round; stroke-width:4; stroke-opacity:1; fill:none" points="1359.09,127.792 1359.09,1800.78 1426.4,1800.78 1426.4,127.792 1359.09,127.792 "/>
<path clip-path="url(#clip821)" d="M1426.4 169.1 L1426.4 1800.78 L1493.72 1800.78 L1493.72 169.1 L1426.4 169.1 L1426.4 169.1  Z" fill="#009af9" fill-rule="evenodd" fill-opacity="1"/>
<polyline clip-path="url(#clip821)" style="stroke:#000000; stroke-linecap:round; stroke-linejoin:round; stroke-width:4; stroke-opacity:1; fill:none" points="1426.4,169.1 1426.4,1800.78 1493.72,1800.78 1493.72,169.1 1426.4,169.1 "/>
<path clip-path="url(#clip821)" d="M1493.72 293.025 L1493.72 1800.78 L1561.04 1800.78 L1561.04 293.025 L1493.72 293.025 L1493.72 293.025  Z" fill="#009af9" fill-rule="evenodd" fill-opacity="1"/>
<polyline clip-path="url(#clip821)" style="stroke:#000000; stroke-linecap:round; stroke-linejoin:round; stroke-width:4; stroke-opacity:1; fill:none" points="1493.72,293.025 1493.72,1800.78 1561.04,1800.78 1561.04,293.025 1493.72,293.025 "/>
<path clip-path="url(#clip821)" d="M1561.04 334.334 L1561.04 1800.78 L1628.35 1800.78 L1628.35 334.334 L1561.04 334.334 L1561.04 334.334  Z" fill="#009af9" fill-rule="evenodd" fill-opacity="1"/>
<polyline clip-path="url(#clip821)" style="stroke:#000000; stroke-linecap:round; stroke-linejoin:round; stroke-width:4; stroke-opacity:1; fill:none" points="1561.04,334.334 1561.04,1800.78 1628.35,1800.78 1628.35,334.334 1561.04,334.334 "/>
<path clip-path="url(#clip821)" d="M1628.35 210.409 L1628.35 1800.78 L1695.67 1800.78 L1695.67 210.409 L1628.35 210.409 L1628.35 210.409  Z" fill="#009af9" fill-rule="evenodd" fill-opacity="1"/>
<polyline clip-path="url(#clip821)" style="stroke:#000000; stroke-linecap:round; stroke-linejoin:round; stroke-width:4; stroke-opacity:1; fill:none" points="1628.35,210.409 1628.35,1800.78 1695.67,1800.78 1695.67,210.409 1628.35,210.409 "/>
<path clip-path="url(#clip821)" d="M1695.67 272.371 L1695.67 1800.78 L1762.99 1800.78 L1762.99 272.371 L1695.67 272.371 L1695.67 272.371  Z" fill="#009af9" fill-rule="evenodd" fill-opacity="1"/>
<polyline clip-path="url(#clip821)" style="stroke:#000000; stroke-linecap:round; stroke-linejoin:round; stroke-width:4; stroke-opacity:1; fill:none" points="1695.67,272.371 1695.67,1800.78 1762.99,1800.78 1762.99,272.371 1695.67,272.371 "/>
<path clip-path="url(#clip821)" d="M1762.99 788.725 L1762.99 1800.78 L1830.3 1800.78 L1830.3 788.725 L1762.99 788.725 L1762.99 788.725  Z" fill="#009af9" fill-rule="evenodd" fill-opacity="1"/>
<polyline clip-path="url(#clip821)" style="stroke:#000000; stroke-linecap:round; stroke-linejoin:round; stroke-width:4; stroke-opacity:1; fill:none" points="1762.99,788.725 1762.99,1800.78 1830.3,1800.78 1830.3,788.725 1762.99,788.725 "/>
<path clip-path="url(#clip821)" d="M1830.3 768.071 L1830.3 1800.78 L1897.62 1800.78 L1897.62 768.071 L1830.3 768.071 L1830.3 768.071  Z" fill="#009af9" fill-rule="evenodd" fill-opacity="1"/>
<polyline clip-path="url(#clip821)" style="stroke:#000000; stroke-linecap:round; stroke-linejoin:round; stroke-width:4; stroke-opacity:1; fill:none" points="1830.3,768.071 1830.3,1800.78 1897.62,1800.78 1897.62,768.071 1830.3,768.071 "/>
<path clip-path="url(#clip821)" d="M1897.62 850.688 L1897.62 1800.78 L1964.94 1800.78 L1964.94 850.688 L1897.62 850.688 L1897.62 850.688  Z" fill="#009af9" fill-rule="evenodd" fill-opacity="1"/>
<polyline clip-path="url(#clip821)" style="stroke:#000000; stroke-linecap:round; stroke-linejoin:round; stroke-width:4; stroke-opacity:1; fill:none" points="1897.62,850.688 1897.62,1800.78 1964.94,1800.78 1964.94,850.688 1897.62,850.688 "/>
<path clip-path="url(#clip821)" d="M1964.94 1305.08 L1964.94 1800.78 L2032.25 1800.78 L2032.25 1305.08 L1964.94 1305.08 L1964.94 1305.08  Z" fill="#009af9" fill-rule="evenodd" fill-opacity="1"/>
<polyline clip-path="url(#clip821)" style="stroke:#000000; stroke-linecap:round; stroke-linejoin:round; stroke-width:4; stroke-opacity:1; fill:none" points="1964.94,1305.08 1964.94,1800.78 2032.25,1800.78 2032.25,1305.08 1964.94,1305.08 "/>
<path clip-path="url(#clip821)" d="M2032.25 1470.31 L2032.25 1800.78 L2099.57 1800.78 L2099.57 1470.31 L2032.25 1470.31 L2032.25 1470.31  Z" fill="#009af9" fill-rule="evenodd" fill-opacity="1"/>
<polyline clip-path="url(#clip821)" style="stroke:#000000; stroke-linecap:round; stroke-linejoin:round; stroke-width:4; stroke-opacity:1; fill:none" points="2032.25,1470.31 2032.25,1800.78 2099.57,1800.78 2099.57,1470.31 2032.25,1470.31 "/>
<path clip-path="url(#clip821)" d="M2099.57 1635.55 L2099.57 1800.78 L2166.89 1800.78 L2166.89 1635.55 L2099.57 1635.55 L2099.57 1635.55  Z" fill="#009af9" fill-rule="evenodd" fill-opacity="1"/>
<polyline clip-path="url(#clip821)" style="stroke:#000000; stroke-linecap:round; stroke-linejoin:round; stroke-width:4; stroke-opacity:1; fill:none" points="2099.57,1635.55 2099.57,1800.78 2166.89,1800.78 2166.89,1635.55 2099.57,1635.55 "/>
<path clip-path="url(#clip821)" d="M2166.89 1635.55 L2166.89 1800.78 L2234.2 1800.78 L2234.2 1635.55 L2166.89 1635.55 L2166.89 1635.55  Z" fill="#009af9" fill-rule="evenodd" fill-opacity="1"/>
<polyline clip-path="url(#clip821)" style="stroke:#000000; stroke-linecap:round; stroke-linejoin:round; stroke-width:4; stroke-opacity:1; fill:none" points="2166.89,1635.55 2166.89,1800.78 2234.2,1800.78 2234.2,1635.55 2166.89,1635.55 "/>
<path clip-path="url(#clip821)" d="M2234.2 1718.16 L2234.2 1800.78 L2301.52 1800.78 L2301.52 1718.16 L2234.2 1718.16 L2234.2 1718.16  Z" fill="#009af9" fill-rule="evenodd" fill-opacity="1"/>
<polyline clip-path="url(#clip821)" style="stroke:#000000; stroke-linecap:round; stroke-linejoin:round; stroke-width:4; stroke-opacity:1; fill:none" points="2234.2,1718.16 2234.2,1800.78 2301.52,1800.78 2301.52,1718.16 2234.2,1718.16 "/>
<path clip-path="url(#clip821)" d="M2301.52 1738.82 L2301.52 1800.78 L2368.84 1800.78 L2368.84 1738.82 L2301.52 1738.82 L2301.52 1738.82  Z" fill="#009af9" fill-rule="evenodd" fill-opacity="1"/>
<polyline clip-path="url(#clip821)" style="stroke:#000000; stroke-linecap:round; stroke-linejoin:round; stroke-width:4; stroke-opacity:1; fill:none" points="2301.52,1738.82 2301.52,1800.78 2368.84,1800.78 2368.84,1738.82 2301.52,1738.82 "/>
<path clip-path="url(#clip821)" d="M2368.84 1738.82 L2368.84 1800.78 L2436.15 1800.78 L2436.15 1738.82 L2368.84 1738.82 L2368.84 1738.82  Z" fill="#009af9" fill-rule="evenodd" fill-opacity="1"/>
<polyline clip-path="url(#clip821)" style="stroke:#000000; stroke-linecap:round; stroke-linejoin:round; stroke-width:4; stroke-opacity:1; fill:none" points="2368.84,1738.82 2368.84,1800.78 2436.15,1800.78 2436.15,1738.82 2368.84,1738.82 "/>
<path clip-path="url(#clip821)" d="M2436.15 1759.47 L2436.15 1800.78 L2503.47 1800.78 L2503.47 1759.47 L2436.15 1759.47 L2436.15 1759.47  Z" fill="#009af9" fill-rule="evenodd" fill-opacity="1"/>
<polyline clip-path="url(#clip821)" style="stroke:#000000; stroke-linecap:round; stroke-linejoin:round; stroke-width:4; stroke-opacity:1; fill:none" points="2436.15,1759.47 2436.15,1800.78 2503.47,1800.78 2503.47,1759.47 2436.15,1759.47 "/>
<circle clip-path="url(#clip821)" style="fill:#009af9; stroke:none; fill-opacity:0" cx="315.677" cy="1780.13" r="2"/>
<circle clip-path="url(#clip821)" style="fill:#009af9; stroke:none; fill-opacity:0" cx="382.994" cy="1800.78" r="2"/>
<circle clip-path="url(#clip821)" style="fill:#009af9; stroke:none; fill-opacity:0" cx="450.31" cy="1800.78" r="2"/>
<circle clip-path="url(#clip821)" style="fill:#009af9; stroke:none; fill-opacity:0" cx="517.627" cy="1759.47" r="2"/>
<circle clip-path="url(#clip821)" style="fill:#009af9; stroke:none; fill-opacity:0" cx="584.944" cy="1759.47" r="2"/>
<circle clip-path="url(#clip821)" style="fill:#009af9; stroke:none; fill-opacity:0" cx="652.261" cy="1718.16" r="2"/>
<circle clip-path="url(#clip821)" style="fill:#009af9; stroke:none; fill-opacity:0" cx="719.577" cy="1656.2" r="2"/>
<circle clip-path="url(#clip821)" style="fill:#009af9; stroke:none; fill-opacity:0" cx="786.894" cy="1614.89" r="2"/>
<circle clip-path="url(#clip821)" style="fill:#009af9; stroke:none; fill-opacity:0" cx="854.211" cy="1470.31" r="2"/>
<circle clip-path="url(#clip821)" style="fill:#009af9; stroke:none; fill-opacity:0" cx="921.527" cy="1408.35" r="2"/>
<circle clip-path="url(#clip821)" style="fill:#009af9; stroke:none; fill-opacity:0" cx="988.844" cy="1408.35" r="2"/>
<circle clip-path="url(#clip821)" style="fill:#009af9; stroke:none; fill-opacity:0" cx="1056.16" cy="1119.19" r="2"/>
<circle clip-path="url(#clip821)" style="fill:#009af9; stroke:none; fill-opacity:0" cx="1123.48" cy="933.304" r="2"/>
<circle clip-path="url(#clip821)" style="fill:#009af9; stroke:none; fill-opacity:0" cx="1190.79" cy="747.417" r="2"/>
<circle clip-path="url(#clip821)" style="fill:#009af9; stroke:none; fill-opacity:0" cx="1258.11" cy="768.071" r="2"/>
<circle clip-path="url(#clip821)" style="fill:#009af9; stroke:none; fill-opacity:0" cx="1325.43" cy="210.409" r="2"/>
<circle clip-path="url(#clip821)" style="fill:#009af9; stroke:none; fill-opacity:0" cx="1392.74" cy="127.792" r="2"/>
<circle clip-path="url(#clip821)" style="fill:#009af9; stroke:none; fill-opacity:0" cx="1460.06" cy="169.1" r="2"/>
<circle clip-path="url(#clip821)" style="fill:#009af9; stroke:none; fill-opacity:0" cx="1527.38" cy="293.025" r="2"/>
<circle clip-path="url(#clip821)" style="fill:#009af9; stroke:none; fill-opacity:0" cx="1594.69" cy="334.334" r="2"/>
<circle clip-path="url(#clip821)" style="fill:#009af9; stroke:none; fill-opacity:0" cx="1662.01" cy="210.409" r="2"/>
<circle clip-path="url(#clip821)" style="fill:#009af9; stroke:none; fill-opacity:0" cx="1729.33" cy="272.371" r="2"/>
<circle clip-path="url(#clip821)" style="fill:#009af9; stroke:none; fill-opacity:0" cx="1796.64" cy="788.725" r="2"/>
<circle clip-path="url(#clip821)" style="fill:#009af9; stroke:none; fill-opacity:0" cx="1863.96" cy="768.071" r="2"/>
<circle clip-path="url(#clip821)" style="fill:#009af9; stroke:none; fill-opacity:0" cx="1931.28" cy="850.688" r="2"/>
<circle clip-path="url(#clip821)" style="fill:#009af9; stroke:none; fill-opacity:0" cx="1998.59" cy="1305.08" r="2"/>
<circle clip-path="url(#clip821)" style="fill:#009af9; stroke:none; fill-opacity:0" cx="2065.91" cy="1470.31" r="2"/>
<circle clip-path="url(#clip821)" style="fill:#009af9; stroke:none; fill-opacity:0" cx="2133.23" cy="1635.55" r="2"/>
<circle clip-path="url(#clip821)" style="fill:#009af9; stroke:none; fill-opacity:0" cx="2200.54" cy="1635.55" r="2"/>
<circle clip-path="url(#clip821)" style="fill:#009af9; stroke:none; fill-opacity:0" cx="2267.86" cy="1718.16" r="2"/>
<circle clip-path="url(#clip821)" style="fill:#009af9; stroke:none; fill-opacity:0" cx="2335.18" cy="1738.82" r="2"/>
<circle clip-path="url(#clip821)" style="fill:#009af9; stroke:none; fill-opacity:0" cx="2402.5" cy="1738.82" r="2"/>
<circle clip-path="url(#clip821)" style="fill:#009af9; stroke:none; fill-opacity:0" cx="2469.81" cy="1759.47" r="2"/>
<path clip-path="url(#clip820)" d="M2255.52 287.238 L2557.56 287.238 L2557.56 183.558 L2255.52 183.558  Z" fill="#ffffff" fill-rule="evenodd" fill-opacity="1"/>
<polyline clip-path="url(#clip820)" style="stroke:#000000; stroke-linecap:round; stroke-linejoin:round; stroke-width:4; stroke-opacity:1; fill:none" points="2255.52,287.238 2557.56,287.238 2557.56,183.558 2255.52,183.558 2255.52,287.238 "/>
<path clip-path="url(#clip820)" d="M2283.26 256.134 L2449.66 256.134 L2449.66 214.662 L2283.26 214.662 L2283.26 256.134  Z" fill="#009af9" fill-rule="evenodd" fill-opacity="1"/>
<polyline clip-path="url(#clip820)" style="stroke:#000000; stroke-linecap:round; stroke-linejoin:round; stroke-width:4; stroke-opacity:1; fill:none" points="2283.26,256.134 2449.66,256.134 2449.66,214.662 2283.26,214.662 2283.26,256.134 "/>
<path clip-path="url(#clip820)" d="M2491.23 255.086 Q2489.43 259.715 2487.72 261.127 Q2486 262.539 2483.13 262.539 L2479.73 262.539 L2479.73 258.975 L2482.23 258.975 Q2483.99 258.975 2484.96 258.141 Q2485.93 257.308 2487.11 254.206 L2487.88 252.262 L2477.39 226.753 L2481.91 226.753 L2490.01 247.03 L2498.11 226.753 L2502.62 226.753 L2491.23 255.086 Z" fill="#000000" fill-rule="nonzero" fill-opacity="1" /><path clip-path="url(#clip820)" d="M2509.91 248.743 L2517.55 248.743 L2517.55 222.378 L2509.24 224.044 L2509.24 219.785 L2517.51 218.118 L2522.18 218.118 L2522.18 248.743 L2529.82 248.743 L2529.82 252.678 L2509.91 252.678 L2509.91 248.743 Z" fill="#000000" fill-rule="nonzero" fill-opacity="1" /></svg>
