<?xml version="1.0" encoding="utf-8"?>
<svg xmlns="http://www.w3.org/2000/svg" xmlns:xlink="http://www.w3.org/1999/xlink" width="672" height="480" viewBox="0 0 2688 1920">
<defs>
  <clipPath id="clip850">
    <rect x="0" y="0" width="2688" height="1920"/>
  </clipPath>
</defs>
<path clip-path="url(#clip850)" d="M0 1920 L2688 1920 L2688 -4.26326e-14 L0 -4.26326e-14  Z" fill="#ffffff" fill-rule="evenodd" fill-opacity="1"/>
<defs>
  <clipPath id="clip851">
    <rect x="115" y="127" width="2527" height="1674"/>
  </clipPath>
</defs>
<path clip-path="url(#clip850)" d="M115.057 1800.78 L2640.76 1800.78 L2640.76 127.792 L115.057 127.792  Z" fill="#ffffff" fill-rule="evenodd" fill-opacity="1"/>
<polyline clip-path="url(#clip851)" style="stroke:#000000; stroke-linecap:round; stroke-linejoin:round; stroke-width:2; stroke-opacity:0.1; fill:none" points="437.353,1800.78 437.353,127.792 "/>
<polyline clip-path="url(#clip851)" style="stroke:#000000; stroke-linecap:round; stroke-linejoin:round; stroke-width:2; stroke-opacity:0.1; fill:none" points="1064.39,1800.78 1064.39,127.792 "/>
<polyline clip-path="url(#clip851)" style="stroke:#000000; stroke-linecap:round; stroke-linejoin:round; stroke-width:2; stroke-opacity:0.1; fill:none" points="1691.42,1800.78 1691.42,127.792 "/>
<polyline clip-path="url(#clip851)" style="stroke:#000000; stroke-linecap:round; stroke-linejoin:round; stroke-width:2; stroke-opacity:0.1; fill:none" points="2318.46,1800.78 2318.46,127.792 "/>
<polyline clip-path="url(#clip851)" style="stroke:#000000; stroke-linecap:round; stroke-linejoin:round; stroke-width:2; stroke-opacity:0.1; fill:none" points="115.057,1493.36 2640.76,1493.36 "/>
<polyline clip-path="url(#clip851)" style="stroke:#000000; stroke-linecap:round; stroke-linejoin:round; stroke-width:2; stroke-opacity:0.1; fill:none" points="115.057,1046.14 2640.76,1046.14 "/>
<polyline clip-path="url(#clip851)" style="stroke:#000000; stroke-linecap:round; stroke-linejoin:round; stroke-width:2; stroke-opacity:0.1; fill:none" points="115.057,598.928 2640.76,598.928 "/>
<polyline clip-path="url(#clip851)" style="stroke:#000000; stroke-linecap:round; stroke-linejoin:round; stroke-width:2; stroke-opacity:0.1; fill:none" points="115.057,151.712 2640.76,151.712 "/>
<polyline clip-path="url(#clip850)" style="stroke:#000000; stroke-linecap:round; stroke-linejoin:round; stroke-width:4; stroke-opacity:1; fill:none" points="115.057,1800.78 2640.76,1800.78 "/>
<polyline clip-path="url(#clip850)" style="stroke:#000000; stroke-linecap:round; stroke-linejoin:round; stroke-width:4; stroke-opacity:1; fill:none" points="437.353,1800.78 437.353,1781.88 "/>
<polyline clip-path="url(#clip850)" style="stroke:#000000; stroke-linecap:round; stroke-linejoin:round; stroke-width:4; stroke-opacity:1; fill:none" points="1064.39,1800.78 1064.39,1781.88 "/>
<polyline clip-path="url(#clip850)" style="stroke:#000000; stroke-linecap:round; stroke-linejoin:round; stroke-width:4; stroke-opacity:1; fill:none" points="1691.42,1800.78 1691.42,1781.88 "/>
<polyline clip-path="url(#clip850)" style="stroke:#000000; stroke-linecap:round; stroke-linejoin:round; stroke-width:4; stroke-opacity:1; fill:none" points="2318.46,1800.78 2318.46,1781.88 "/>
<path clip-path="url(#clip850)" d="M427.735 1861.55 L435.374 1861.55 L435.374 1835.18 L427.064 1836.85 L427.064 1832.59 L435.328 1830.92 L440.004 1830.92 L440.004 1861.55 L447.643 1861.55 L447.643 1865.48 L427.735 1865.48 L427.735 1861.55 Z" fill="#000000" fill-rule="nonzero" fill-opacity="1" /><path clip-path="url(#clip850)" d="M1059.04 1861.55 L1075.36 1861.55 L1075.36 1865.48 L1053.42 1865.48 L1053.42 1861.55 Q1056.08 1858.79 1060.66 1854.16 Q1065.27 1849.51 1066.45 1848.17 Q1068.69 1845.65 1069.57 1843.91 Q1070.48 1842.15 1070.48 1840.46 Q1070.48 1837.71 1068.53 1835.97 Q1066.61 1834.23 1063.51 1834.23 Q1061.31 1834.23 1058.86 1835 Q1056.43 1835.76 1053.65 1837.31 L1053.65 1832.59 Q1056.47 1831.46 1058.93 1830.88 Q1061.38 1830.3 1063.42 1830.3 Q1068.79 1830.3 1071.98 1832.98 Q1075.18 1835.67 1075.18 1840.16 Q1075.18 1842.29 1074.37 1844.21 Q1073.58 1846.11 1071.47 1848.7 Q1070.89 1849.37 1067.79 1852.59 Q1064.69 1855.78 1059.04 1861.55 Z" fill="#000000" fill-rule="nonzero" fill-opacity="1" /><path clip-path="url(#clip850)" d="M1695.67 1846.85 Q1699.03 1847.57 1700.9 1849.84 Q1702.8 1852.1 1702.8 1855.44 Q1702.8 1860.55 1699.28 1863.35 Q1695.76 1866.15 1689.28 1866.15 Q1687.11 1866.15 1684.79 1865.71 Q1682.5 1865.3 1680.05 1864.44 L1680.05 1859.93 Q1681.99 1861.06 1684.31 1861.64 Q1686.62 1862.22 1689.14 1862.22 Q1693.54 1862.22 1695.83 1860.48 Q1698.15 1858.75 1698.15 1855.44 Q1698.15 1852.38 1696 1850.67 Q1693.87 1848.93 1690.05 1848.93 L1686.02 1848.93 L1686.02 1845.09 L1690.23 1845.09 Q1693.68 1845.09 1695.51 1843.72 Q1697.34 1842.34 1697.34 1839.74 Q1697.34 1837.08 1695.44 1835.67 Q1693.57 1834.23 1690.05 1834.23 Q1688.13 1834.23 1685.93 1834.65 Q1683.73 1835.07 1681.09 1835.95 L1681.09 1831.78 Q1683.75 1831.04 1686.07 1830.67 Q1688.4 1830.3 1690.46 1830.3 Q1695.79 1830.3 1698.89 1832.73 Q1701.99 1835.14 1701.99 1839.26 Q1701.99 1842.13 1700.35 1844.12 Q1698.7 1846.09 1695.67 1846.85 Z" fill="#000000" fill-rule="nonzero" fill-opacity="1" /><path clip-path="url(#clip850)" d="M2321.47 1835 L2309.66 1853.45 L2321.47 1853.45 L2321.47 1835 M2320.24 1830.92 L2326.12 1830.92 L2326.12 1853.45 L2331.05 1853.45 L2331.05 1857.34 L2326.12 1857.34 L2326.12 1865.48 L2321.47 1865.48 L2321.47 1857.34 L2305.87 1857.34 L2305.87 1852.82 L2320.24 1830.92 Z" fill="#000000" fill-rule="nonzero" fill-opacity="1" /><polyline clip-path="url(#clip850)" style="stroke:#000000; stroke-linecap:round; stroke-linejoin:round; stroke-width:4; stroke-opacity:1; fill:none" points="115.057,1800.78 115.057,127.792 "/>
<polyline clip-path="url(#clip850)" style="stroke:#000000; stroke-linecap:round; stroke-linejoin:round; stroke-width:4; stroke-opacity:1; fill:none" points="115.057,1493.36 133.955,1493.36 "/>
<polyline clip-path="url(#clip850)" style="stroke:#000000; stroke-linecap:round; stroke-linejoin:round; stroke-width:4; stroke-opacity:1; fill:none" points="115.057,1046.14 133.955,1046.14 "/>
<polyline clip-path="url(#clip850)" style="stroke:#000000; stroke-linecap:round; stroke-linejoin:round; stroke-width:4; stroke-opacity:1; fill:none" points="115.057,598.928 133.955,598.928 "/>
<polyline clip-path="url(#clip850)" style="stroke:#000000; stroke-linecap:round; stroke-linejoin:round; stroke-width:4; stroke-opacity:1; fill:none" points="115.057,151.712 133.955,151.712 "/>
<path clip-path="url(#clip850)" d="M62.7928 1479.16 Q59.1817 1479.16 57.353 1482.72 Q55.5475 1486.26 55.5475 1493.39 Q55.5475 1500.5 57.353 1504.07 Q59.1817 1507.61 62.7928 1507.61 Q66.427 1507.61 68.2326 1504.07 Q70.0613 1500.5 70.0613 1493.39 Q70.0613 1486.26 68.2326 1482.72 Q66.427 1479.16 62.7928 1479.16 M62.7928 1475.45 Q68.6029 1475.45 71.6585 1480.06 Q74.7372 1484.64 74.7372 1493.39 Q74.7372 1502.12 71.6585 1506.73 Q68.6029 1511.31 62.7928 1511.31 Q56.9826 1511.31 53.904 1506.73 Q50.8484 1502.12 50.8484 1493.39 Q50.8484 1484.64 53.904 1480.06 Q56.9826 1475.45 62.7928 1475.45 Z" fill="#000000" fill-rule="nonzero" fill-opacity="1" /><path clip-path="url(#clip850)" d="M58.4178 1059.49 L74.7372 1059.49 L74.7372 1063.42 L52.7928 1063.42 L52.7928 1059.49 Q55.4549 1056.73 60.0382 1052.1 Q64.6446 1047.45 65.8252 1046.11 Q68.0705 1043.59 68.9502 1041.85 Q69.8529 1040.09 69.8529 1038.4 Q69.8529 1035.65 67.9085 1033.91 Q65.9872 1032.17 62.8854 1032.17 Q60.6863 1032.17 58.2326 1032.94 Q55.8021 1033.7 53.0243 1035.25 L53.0243 1030.53 Q55.8484 1029.4 58.3021 1028.82 Q60.7558 1028.24 62.7928 1028.24 Q68.1631 1028.24 71.3576 1030.92 Q74.552 1033.61 74.552 1038.1 Q74.552 1040.23 73.7418 1042.15 Q72.9548 1044.05 70.8483 1046.64 Q70.2696 1047.31 67.1678 1050.53 Q64.0659 1053.72 58.4178 1059.49 Z" fill="#000000" fill-rule="nonzero" fill-opacity="1" /><path clip-path="url(#clip850)" d="M65.1539 585.722 L53.3484 604.171 L65.1539 604.171 L65.1539 585.722 M63.927 581.648 L69.8066 581.648 L69.8066 604.171 L74.7372 604.171 L74.7372 608.06 L69.8066 608.06 L69.8066 616.208 L65.1539 616.208 L65.1539 608.06 L49.5521 608.06 L49.5521 603.546 L63.927 581.648 Z" fill="#000000" fill-rule="nonzero" fill-opacity="1" /><path clip-path="url(#clip850)" d="M63.2095 149.849 Q60.0613 149.849 58.2095 152.002 Q56.3808 154.154 56.3808 157.904 Q56.3808 161.631 58.2095 163.807 Q60.0613 165.96 63.2095 165.96 Q66.3576 165.96 68.1863 163.807 Q70.0381 161.631 70.0381 157.904 Q70.0381 154.154 68.1863 152.002 Q66.3576 149.849 63.2095 149.849 M72.4918 135.196 L72.4918 139.455 Q70.7326 138.622 68.927 138.182 Q67.1446 137.742 65.3854 137.742 Q60.7558 137.742 58.3021 140.867 Q55.8715 143.992 55.5243 150.312 Q56.89 148.298 58.9502 147.233 Q61.0104 146.145 63.4872 146.145 Q68.6955 146.145 71.7048 149.316 Q74.7372 152.465 74.7372 157.904 Q74.7372 163.228 71.589 166.446 Q68.4409 169.664 63.2095 169.664 Q57.2141 169.664 54.0428 165.08 Q50.8716 160.474 50.8716 151.747 Q50.8716 143.553 54.7604 138.692 Q58.6493 133.807 65.2002 133.807 Q66.9594 133.807 68.7418 134.155 Q70.5474 134.502 72.4918 135.196 Z" fill="#000000" fill-rule="nonzero" fill-opacity="1" /><path clip-path="url(#clip850)" d="M1030.74 43.6931 L1030.74 65.8515 L1043.87 65.8515 Q1050.47 65.8515 1053.63 63.1374 Q1056.83 60.3828 1056.83 54.752 Q1056.83 49.0808 1053.63 46.4072 Q1050.47 43.6931 1043.87 43.6931 L1030.74 43.6931 M1030.74 18.8205 L1030.74 37.0496 L1042.86 37.0496 Q1048.85 37.0496 1051.77 34.8216 Q1054.73 32.5531 1054.73 27.935 Q1054.73 23.3575 1051.77 21.089 Q1048.85 18.8205 1042.86 18.8205 L1030.74 18.8205 M1022.56 12.096 L1043.46 12.096 Q1052.82 12.096 1057.89 15.9849 Q1062.95 19.8737 1062.95 27.0438 Q1062.95 32.5936 1060.36 35.8748 Q1057.76 39.156 1052.74 39.9662 Q1058.78 41.2625 1062.1 45.3944 Q1065.46 49.4858 1065.46 55.6432 Q1065.46 63.745 1059.95 68.1605 Q1054.44 72.576 1044.27 72.576 L1022.56 72.576 L1022.56 12.096 Z" fill="#000000" fill-rule="nonzero" fill-opacity="1" /><path clip-path="url(#clip850)" d="M1096.73 32.4315 Q1090.74 32.4315 1087.25 37.1306 Q1083.77 41.7891 1083.77 49.9314 Q1083.77 58.0738 1087.21 62.7728 Q1090.7 67.4314 1096.73 67.4314 Q1102.69 67.4314 1106.17 62.7323 Q1109.66 58.0333 1109.66 49.9314 Q1109.66 41.8701 1106.17 37.1711 Q1102.69 32.4315 1096.73 32.4315 M1096.73 26.1121 Q1106.46 26.1121 1112.01 32.4315 Q1117.55 38.7509 1117.55 49.9314 Q1117.55 61.0714 1112.01 67.4314 Q1106.46 73.7508 1096.73 73.7508 Q1086.97 73.7508 1081.42 67.4314 Q1075.91 61.0714 1075.91 49.9314 Q1075.91 38.7509 1081.42 32.4315 Q1086.97 26.1121 1096.73 26.1121 Z" fill="#000000" fill-rule="nonzero" fill-opacity="1" /><path clip-path="url(#clip850)" d="M1165.07 27.2059 L1148.67 49.2833 L1165.92 72.576 L1157.13 72.576 L1143.93 54.752 L1130.72 72.576 L1121.93 72.576 L1139.55 48.8377 L1123.43 27.2059 L1132.22 27.2059 L1144.25 43.369 L1156.28 27.2059 L1165.07 27.2059 Z" fill="#000000" fill-rule="nonzero" fill-opacity="1" /><path clip-path="url(#clip850)" d="M1211.33 18.8205 L1211.33 41.5461 L1221.62 41.5461 Q1227.33 41.5461 1230.45 38.5889 Q1233.57 35.6318 1233.57 30.163 Q1233.57 24.7348 1230.45 21.7777 Q1227.33 18.8205 1221.62 18.8205 L1211.33 18.8205 M1203.15 12.096 L1221.62 12.096 Q1231.79 12.096 1236.98 16.714 Q1242.2 21.2916 1242.2 30.163 Q1242.2 39.1155 1236.98 43.6931 Q1231.79 48.2706 1221.62 48.2706 L1211.33 48.2706 L1211.33 72.576 L1203.15 72.576 L1203.15 12.096 Z" fill="#000000" fill-rule="nonzero" fill-opacity="1" /><path clip-path="url(#clip850)" d="M1252.86 9.54393 L1260.31 9.54393 L1260.31 72.576 L1252.86 72.576 L1252.86 9.54393 Z" fill="#000000" fill-rule="nonzero" fill-opacity="1" /><path clip-path="url(#clip850)" d="M1293.49 32.4315 Q1287.49 32.4315 1284.01 37.1306 Q1280.52 41.7891 1280.52 49.9314 Q1280.52 58.0738 1283.97 62.7728 Q1287.45 67.4314 1293.49 67.4314 Q1299.44 67.4314 1302.92 62.7323 Q1306.41 58.0333 1306.41 49.9314 Q1306.41 41.8701 1302.92 37.1711 Q1299.44 32.4315 1293.49 32.4315 M1293.49 26.1121 Q1303.21 26.1121 1308.76 32.4315 Q1314.31 38.7509 1314.31 49.9314 Q1314.31 61.0714 1308.76 67.4314 Q1303.21 73.7508 1293.49 73.7508 Q1283.72 73.7508 1278.17 67.4314 Q1272.66 61.0714 1272.66 49.9314 Q1272.66 38.7509 1278.17 32.4315 Q1283.72 26.1121 1293.49 26.1121 Z" fill="#000000" fill-rule="nonzero" fill-opacity="1" /><path clip-path="url(#clip850)" d="M1334.04 14.324 L1334.04 27.2059 L1349.39 27.2059 L1349.39 32.9987 L1334.04 32.9987 L1334.04 57.6282 Q1334.04 63.1779 1335.53 64.7578 Q1337.07 66.3376 1341.73 66.3376 L1349.39 66.3376 L1349.39 72.576 L1341.73 72.576 Q1333.1 72.576 1329.82 69.3758 Q1326.54 66.1351 1326.54 57.6282 L1326.54 32.9987 L1321.07 32.9987 L1321.07 27.2059 L1326.54 27.2059 L1326.54 14.324 L1334.04 14.324 Z" fill="#000000" fill-rule="nonzero" fill-opacity="1" /><path clip-path="url(#clip850)" d="M1385.89 12.096 L1424.13 12.096 L1424.13 18.9825 L1394.07 18.9825 L1394.07 36.8875 L1422.87 36.8875 L1422.87 43.7741 L1394.07 43.7741 L1394.07 65.6895 L1424.86 65.6895 L1424.86 72.576 L1385.89 72.576 L1385.89 12.096 Z" fill="#000000" fill-rule="nonzero" fill-opacity="1" /><path clip-path="url(#clip850)" d="M1475.7 27.2059 L1459.29 49.2833 L1476.55 72.576 L1467.76 72.576 L1454.55 54.752 L1441.34 72.576 L1432.55 72.576 L1450.17 48.8377 L1434.05 27.2059 L1442.84 27.2059 L1454.87 43.369 L1466.9 27.2059 L1475.7 27.2059 Z" fill="#000000" fill-rule="nonzero" fill-opacity="1" /><path clip-path="url(#clip850)" d="M1507.7 49.7694 Q1498.66 49.7694 1495.18 51.8354 Q1491.7 53.9013 1491.7 58.8839 Q1491.7 62.8538 1494.29 65.2034 Q1496.92 67.5124 1501.42 67.5124 Q1507.62 67.5124 1511.34 63.1374 Q1515.11 58.7219 1515.11 51.4303 L1515.11 49.7694 L1507.7 49.7694 M1522.56 46.6907 L1522.56 72.576 L1515.11 72.576 L1515.11 65.6895 Q1512.56 69.8214 1508.75 71.8063 Q1504.94 73.7508 1499.43 73.7508 Q1492.47 73.7508 1488.33 69.8619 Q1484.24 65.9325 1484.24 59.3701 Q1484.24 51.7138 1489.35 47.825 Q1494.49 43.9361 1504.66 43.9361 L1515.11 43.9361 L1515.11 43.2069 Q1515.11 38.0623 1511.71 35.2672 Q1508.35 32.4315 1502.23 32.4315 Q1498.34 32.4315 1494.65 33.3632 Q1490.97 34.295 1487.56 36.1584 L1487.56 29.2718 Q1491.66 27.692 1495.5 26.9223 Q1499.35 26.1121 1503 26.1121 Q1512.84 26.1121 1517.7 31.2163 Q1522.56 36.3204 1522.56 46.6907 Z" fill="#000000" fill-rule="nonzero" fill-opacity="1" /><path clip-path="url(#clip850)" d="M1573.24 35.9153 Q1576.04 30.8922 1579.93 28.5022 Q1583.81 26.1121 1589.08 26.1121 Q1596.17 26.1121 1600.02 31.0947 Q1603.87 36.0368 1603.87 45.1919 L1603.87 72.576 L1596.37 72.576 L1596.37 45.4349 Q1596.37 38.913 1594.06 35.7533 Q1591.75 32.5936 1587.01 32.5936 Q1581.22 32.5936 1577.86 36.4419 Q1574.5 40.2903 1574.5 46.9338 L1574.5 72.576 L1567 72.576 L1567 45.4349 Q1567 38.8725 1564.69 35.7533 Q1562.38 32.5936 1557.56 32.5936 Q1551.85 32.5936 1548.49 36.4824 Q1545.13 40.3308 1545.13 46.9338 L1545.13 72.576 L1537.63 72.576 L1537.63 27.2059 L1545.13 27.2059 L1545.13 34.2544 Q1547.68 30.082 1551.24 28.0971 Q1554.81 26.1121 1559.71 26.1121 Q1564.65 26.1121 1568.1 28.6237 Q1571.58 31.1352 1573.24 35.9153 Z" fill="#000000" fill-rule="nonzero" fill-opacity="1" /><path clip-path="url(#clip850)" d="M1625.94 65.7705 L1625.94 89.8329 L1618.45 89.8329 L1618.45 27.2059 L1625.94 27.2059 L1625.94 34.0924 Q1628.29 30.0415 1631.86 28.0971 Q1635.46 26.1121 1640.45 26.1121 Q1648.71 26.1121 1653.85 32.6746 Q1659.04 39.2371 1659.04 49.9314 Q1659.04 60.6258 1653.85 67.1883 Q1648.71 73.7508 1640.45 73.7508 Q1635.46 73.7508 1631.86 71.8063 Q1628.29 69.8214 1625.94 65.7705 M1651.3 49.9314 Q1651.3 41.7081 1647.9 37.0496 Q1644.54 32.3505 1638.62 32.3505 Q1632.71 32.3505 1629.31 37.0496 Q1625.94 41.7081 1625.94 49.9314 Q1625.94 58.1548 1629.31 62.8538 Q1632.71 67.5124 1638.62 67.5124 Q1644.54 67.5124 1647.9 62.8538 Q1651.3 58.1548 1651.3 49.9314 Z" fill="#000000" fill-rule="nonzero" fill-opacity="1" /><path clip-path="url(#clip850)" d="M1671.39 9.54393 L1678.85 9.54393 L1678.85 72.576 L1671.39 72.576 L1671.39 9.54393 Z" fill="#000000" fill-rule="nonzero" fill-opacity="1" /><path clip-path="url(#clip850)" d="M1733.25 48.0275 L1733.25 51.6733 L1698.98 51.6733 Q1699.47 59.3701 1703.6 63.421 Q1707.77 67.4314 1715.18 67.4314 Q1719.48 67.4314 1723.49 66.3781 Q1727.54 65.3249 1731.51 63.2184 L1731.51 70.267 Q1727.5 71.9684 1723.29 72.8596 Q1719.07 73.7508 1714.74 73.7508 Q1703.88 73.7508 1697.52 67.4314 Q1691.2 61.1119 1691.2 50.3365 Q1691.2 39.1965 1697.2 32.6746 Q1703.23 26.1121 1713.44 26.1121 Q1722.6 26.1121 1727.9 32.0264 Q1733.25 37.9003 1733.25 48.0275 M1725.8 45.84 Q1725.72 39.7232 1722.35 36.0774 Q1719.03 32.4315 1713.52 32.4315 Q1707.29 32.4315 1703.52 35.9558 Q1699.79 39.4801 1699.22 45.8805 L1725.8 45.84 Z" fill="#000000" fill-rule="nonzero" fill-opacity="1" /><path clip-path="url(#clip851)" d="M437.353 1753.43 L311.946 1753.43 L562.76 1753.43 L437.353 1753.43 L437.353 1484.65 L437.353 1753.43  Z" fill="#009af9" fill-rule="evenodd" fill-opacity="1"/>
<polyline clip-path="url(#clip851)" style="stroke:#000000; stroke-linecap:round; stroke-linejoin:round; stroke-width:4; stroke-opacity:1; fill:none" points="437.353,1753.43 311.946,1753.43 562.76,1753.43 437.353,1753.43 437.353,1484.65 437.353,1753.43 "/>
<path clip-path="url(#clip851)" d="M688.168 1484.65 L688.168 1295.83 L186.539 1295.83 L186.539 1484.65 L688.168 1484.65 L688.168 1295.83 L688.168 1484.65  Z" fill="#009af9" fill-rule="evenodd" fill-opacity="1"/>
<polyline clip-path="url(#clip851)" style="stroke:#000000; stroke-linecap:round; stroke-linejoin:round; stroke-width:4; stroke-opacity:1; fill:none" points="688.168,1484.65 688.168,1295.83 186.539,1295.83 186.539,1484.65 688.168,1484.65 688.168,1295.83 688.168,1484.65 "/>
<path clip-path="url(#clip851)" d="M688.168 1158.28 L186.539 1158.28 L186.539 1295.83 L688.168 1295.83 L688.168 1158.28 L437.353 1158.28 L688.168 1158.28  Z" fill="#009af9" fill-rule="evenodd" fill-opacity="1"/>
<polyline clip-path="url(#clip851)" style="stroke:#000000; stroke-linecap:round; stroke-linejoin:round; stroke-width:4; stroke-opacity:1; fill:none" points="688.168,1158.28 186.539,1158.28 186.539,1295.83 688.168,1295.83 688.168,1158.28 437.353,1158.28 688.168,1158.28 "/>
<path clip-path="url(#clip851)" d="M437.353 871.559 L311.946 871.559 L562.76 871.559 L437.353 871.559 L437.353 1158.28 L437.353 871.559  Z" fill="#009af9" fill-rule="evenodd" fill-opacity="1"/>
<polyline clip-path="url(#clip851)" style="stroke:#000000; stroke-linecap:round; stroke-linejoin:round; stroke-width:4; stroke-opacity:1; fill:none" points="437.353,871.559 311.946,871.559 562.76,871.559 437.353,871.559 437.353,1158.28 437.353,871.559 "/>
<path clip-path="url(#clip851)" d="M1064.39 1492.11 L938.982 1492.11 L1189.8 1492.11 L1064.39 1492.11 L1064.39 1117.71 L1064.39 1492.11  Z" fill="#009af9" fill-rule="evenodd" fill-opacity="1"/>
<polyline clip-path="url(#clip851)" style="stroke:#000000; stroke-linecap:round; stroke-linejoin:round; stroke-width:4; stroke-opacity:1; fill:none" points="1064.39,1492.11 938.982,1492.11 1189.8,1492.11 1064.39,1492.11 1064.39,1117.71 1064.39,1492.11 "/>
<path clip-path="url(#clip851)" d="M1315.2 1117.71 L1315.2 988.797 L813.575 988.797 L813.575 1117.71 L1315.2 1117.71 L1315.2 988.797 L1315.2 1117.71  Z" fill="#009af9" fill-rule="evenodd" fill-opacity="1"/>
<polyline clip-path="url(#clip851)" style="stroke:#000000; stroke-linecap:round; stroke-linejoin:round; stroke-width:4; stroke-opacity:1; fill:none" points="1315.2,1117.71 1315.2,988.797 813.575,988.797 813.575,1117.71 1315.2,1117.71 1315.2,988.797 1315.2,1117.71 "/>
<path clip-path="url(#clip851)" d="M1315.2 822.478 L813.575 822.478 L813.575 988.797 L1315.2 988.797 L1315.2 822.478 L1064.39 822.478 L1315.2 822.478  Z" fill="#009af9" fill-rule="evenodd" fill-opacity="1"/>
<polyline clip-path="url(#clip851)" style="stroke:#000000; stroke-linecap:round; stroke-linejoin:round; stroke-width:4; stroke-opacity:1; fill:none" points="1315.2,822.478 813.575,822.478 813.575,988.797 1315.2,988.797 1315.2,822.478 1064.39,822.478 1315.2,822.478 "/>
<path clip-path="url(#clip851)" d="M1064.39 638.978 L938.982 638.978 L1189.8 638.978 L1064.39 638.978 L1064.39 822.478 L1064.39 638.978  Z" fill="#009af9" fill-rule="evenodd" fill-opacity="1"/>
<polyline clip-path="url(#clip851)" style="stroke:#000000; stroke-linecap:round; stroke-linejoin:round; stroke-width:4; stroke-opacity:1; fill:none" points="1064.39,638.978 938.982,638.978 1189.8,638.978 1064.39,638.978 1064.39,822.478 1064.39,638.978 "/>
<path clip-path="url(#clip851)" d="M1691.42 1313.33 L1566.02 1313.33 L1816.83 1313.33 L1691.42 1313.33 L1691.42 1018.61 L1691.42 1313.33  Z" fill="#009af9" fill-rule="evenodd" fill-opacity="1"/>
<polyline clip-path="url(#clip851)" style="stroke:#000000; stroke-linecap:round; stroke-linejoin:round; stroke-width:4; stroke-opacity:1; fill:none" points="1691.42,1313.33 1566.02,1313.33 1816.83,1313.33 1691.42,1313.33 1691.42,1018.61 1691.42,1313.33 "/>
<path clip-path="url(#clip851)" d="M1942.24 1018.61 L1942.24 924.007 L1440.61 924.007 L1440.61 1018.61 L1942.24 1018.61 L1942.24 924.007 L1942.24 1018.61  Z" fill="#009af9" fill-rule="evenodd" fill-opacity="1"/>
<polyline clip-path="url(#clip851)" style="stroke:#000000; stroke-linecap:round; stroke-linejoin:round; stroke-width:4; stroke-opacity:1; fill:none" points="1942.24,1018.61 1942.24,924.007 1440.61,924.007 1440.61,1018.61 1942.24,1018.61 1942.24,924.007 1942.24,1018.61 "/>
<path clip-path="url(#clip851)" d="M1942.24 767.619 L1440.61 767.619 L1440.61 924.007 L1942.24 924.007 L1942.24 767.619 L1691.42 767.619 L1942.24 767.619  Z" fill="#009af9" fill-rule="evenodd" fill-opacity="1"/>
<polyline clip-path="url(#clip851)" style="stroke:#000000; stroke-linecap:round; stroke-linejoin:round; stroke-width:4; stroke-opacity:1; fill:none" points="1942.24,767.619 1440.61,767.619 1440.61,924.007 1942.24,924.007 1942.24,767.619 1691.42,767.619 1942.24,767.619 "/>
<path clip-path="url(#clip851)" d="M1691.42 404.638 L1566.02 404.638 L1816.83 404.638 L1691.42 404.638 L1691.42 767.619 L1691.42 404.638  Z" fill="#009af9" fill-rule="evenodd" fill-opacity="1"/>
<polyline clip-path="url(#clip851)" style="stroke:#000000; stroke-linecap:round; stroke-linejoin:round; stroke-width:4; stroke-opacity:1; fill:none" points="1691.42,404.638 1566.02,404.638 1816.83,404.638 1691.42,404.638 1691.42,767.619 1691.42,404.638 "/>
<path clip-path="url(#clip851)" d="M2318.46 1087.04 L2193.05 1087.04 L2443.87 1087.04 L2318.46 1087.04 L2318.46 864.253 L2318.46 1087.04  Z" fill="#009af9" fill-rule="evenodd" fill-opacity="1"/>
<polyline clip-path="url(#clip851)" style="stroke:#000000; stroke-linecap:round; stroke-linejoin:round; stroke-width:4; stroke-opacity:1; fill:none" points="2318.46,1087.04 2193.05,1087.04 2443.87,1087.04 2318.46,1087.04 2318.46,864.253 2318.46,1087.04 "/>
<path clip-path="url(#clip851)" d="M2569.27 864.253 L2569.27 615.538 L2067.65 615.538 L2067.65 864.253 L2569.27 864.253 L2569.27 615.538 L2569.27 864.253  Z" fill="#009af9" fill-rule="evenodd" fill-opacity="1"/>
<polyline clip-path="url(#clip851)" style="stroke:#000000; stroke-linecap:round; stroke-linejoin:round; stroke-width:4; stroke-opacity:1; fill:none" points="2569.27,864.253 2569.27,615.538 2067.65,615.538 2067.65,864.253 2569.27,864.253 2569.27,615.538 2569.27,864.253 "/>
<path clip-path="url(#clip851)" d="M2569.27 519.003 L2067.65 519.003 L2067.65 615.538 L2569.27 615.538 L2569.27 519.003 L2318.46 519.003 L2569.27 519.003  Z" fill="#009af9" fill-rule="evenodd" fill-opacity="1"/>
<polyline clip-path="url(#clip851)" style="stroke:#000000; stroke-linecap:round; stroke-linejoin:round; stroke-width:4; stroke-opacity:1; fill:none" points="2569.27,519.003 2067.65,519.003 2067.65,615.538 2569.27,615.538 2569.27,519.003 2318.46,519.003 2569.27,519.003 "/>
<path clip-path="url(#clip851)" d="M2318.46 175.141 L2193.05 175.141 L2443.87 175.141 L2318.46 175.141 L2318.46 519.003 L2318.46 175.141  Z" fill="#009af9" fill-rule="evenodd" fill-opacity="1"/>
<polyline clip-path="url(#clip851)" style="stroke:#000000; stroke-linecap:round; stroke-linejoin:round; stroke-width:4; stroke-opacity:1; fill:none" points="2318.46,175.141 2193.05,175.141 2443.87,175.141 2318.46,175.141 2318.46,519.003 2318.46,175.141 "/>
<circle clip-path="url(#clip851)" cx="1691.42" cy="340.498" r="14.4" fill="#009af9" fill-rule="evenodd" fill-opacity="1" stroke="#000000" stroke-opacity="1" stroke-width="3.84"/>
<polyline clip-path="url(#clip851)" style="stroke:#009af9; stroke-linecap:round; stroke-linejoin:round; stroke-width:0; stroke-opacity:1; fill:none" points="437.353,1753.43 311.946,1753.43 562.76,1753.43 437.353,1753.43 437.353,1484.65 "/>
<polyline clip-path="url(#clip851)" style="stroke:#009af9; stroke-linecap:round; stroke-linejoin:round; stroke-width:0; stroke-opacity:1; fill:none" points="688.168,1484.65 688.168,1295.83 186.539,1295.83 186.539,1484.65 688.168,1484.65 688.168,1295.83 "/>
<polyline clip-path="url(#clip851)" style="stroke:#009af9; stroke-linecap:round; stroke-linejoin:round; stroke-width:0; stroke-opacity:1; fill:none" points="688.168,1158.28 186.539,1158.28 186.539,1295.83 688.168,1295.83 688.168,1158.28 437.353,1158.28 "/>
<polyline clip-path="url(#clip851)" style="stroke:#009af9; stroke-linecap:round; stroke-linejoin:round; stroke-width:0; stroke-opacity:1; fill:none" points="437.353,871.559 311.946,871.559 562.76,871.559 437.353,871.559 437.353,1158.28 "/>
<polyline clip-path="url(#clip851)" style="stroke:#009af9; stroke-linecap:round; stroke-linejoin:round; stroke-width:0; stroke-opacity:1; fill:none" points="1064.39,1492.11 938.982,1492.11 1189.8,1492.11 1064.39,1492.11 1064.39,1117.71 "/>
<polyline clip-path="url(#clip851)" style="stroke:#009af9; stroke-linecap:round; stroke-linejoin:round; stroke-width:0; stroke-opacity:1; fill:none" points="1315.2,1117.71 1315.2,988.797 813.575,988.797 813.575,1117.71 1315.2,1117.71 1315.2,988.797 "/>
<polyline clip-path="url(#clip851)" style="stroke:#009af9; stroke-linecap:round; stroke-linejoin:round; stroke-width:0; stroke-opacity:1; fill:none" points="1315.2,822.478 813.575,822.478 813.575,988.797 1315.2,988.797 1315.2,822.478 1064.39,822.478 "/>
<polyline clip-path="url(#clip851)" style="stroke:#009af9; stroke-linecap:round; stroke-linejoin:round; stroke-width:0; stroke-opacity:1; fill:none" points="1064.39,638.978 938.982,638.978 1189.8,638.978 1064.39,638.978 1064.39,822.478 "/>
<polyline clip-path="url(#clip851)" style="stroke:#009af9; stroke-linecap:round; stroke-linejoin:round; stroke-width:0; stroke-opacity:1; fill:none" points="1691.42,1313.33 1566.02,1313.33 1816.83,1313.33 1691.42,1313.33 1691.42,1018.61 "/>
<polyline clip-path="url(#clip851)" style="stroke:#009af9; stroke-linecap:round; stroke-linejoin:round; stroke-width:0; stroke-opacity:1; fill:none" points="1942.24,1018.61 1942.24,924.007 1440.61,924.007 1440.61,1018.61 1942.24,1018.61 1942.24,924.007 "/>
<polyline clip-path="url(#clip851)" style="stroke:#009af9; stroke-linecap:round; stroke-linejoin:round; stroke-width:0; stroke-opacity:1; fill:none" points="1942.24,767.619 1440.61,767.619 1440.61,924.007 1942.24,924.007 1942.24,767.619 1691.42,767.619 "/>
<polyline clip-path="url(#clip851)" style="stroke:#009af9; stroke-linecap:round; stroke-linejoin:round; stroke-width:0; stroke-opacity:1; fill:none" points="1691.42,404.638 1566.02,404.638 1816.83,404.638 1691.42,404.638 1691.42,767.619 "/>
<polyline clip-path="url(#clip851)" style="stroke:#009af9; stroke-linecap:round; stroke-linejoin:round; stroke-width:0; stroke-opacity:1; fill:none" points="2318.46,1087.04 2193.05,1087.04 2443.87,1087.04 2318.46,1087.04 2318.46,864.253 "/>
<polyline clip-path="url(#clip851)" style="stroke:#009af9; stroke-linecap:round; stroke-linejoin:round; stroke-width:0; stroke-opacity:1; fill:none" points="2569.27,864.253 2569.27,615.538 2067.65,615.538 2067.65,864.253 2569.27,864.253 2569.27,615.538 "/>
<polyline clip-path="url(#clip851)" style="stroke:#009af9; stroke-linecap:round; stroke-linejoin:round; stroke-width:0; stroke-opacity:1; fill:none" points="2569.27,519.003 2067.65,519.003 2067.65,615.538 2569.27,615.538 2569.27,519.003 2318.46,519.003 "/>
<polyline clip-path="url(#clip851)" style="stroke:#009af9; stroke-linecap:round; stroke-linejoin:round; stroke-width:0; stroke-opacity:1; fill:none" points="2318.46,175.141 2193.05,175.141 2443.87,175.141 2318.46,175.141 2318.46,519.003 "/>
<path clip-path="url(#clip850)" d="M199.247 287.238 L504.247 287.238 L504.247 183.558 L199.247 183.558  Z" fill="#ffffff" fill-rule="evenodd" fill-opacity="1"/>
<polyline clip-path="url(#clip850)" style="stroke:#000000; stroke-linecap:round; stroke-linejoin:round; stroke-width:4; stroke-opacity:1; fill:none" points="199.247,287.238 504.247,287.238 504.247,183.558 199.247,183.558 199.247,287.238 "/>
<path clip-path="url(#clip850)" d="M227.31 256.134 L395.69 256.134 L395.69 214.662 L227.31 214.662 L227.31 256.134  Z" fill="#009af9" fill-rule="evenodd" fill-opacity="1"/>
<polyline clip-path="url(#clip850)" style="stroke:#000000; stroke-linecap:round; stroke-linejoin:round; stroke-width:4; stroke-opacity:1; fill:none" points="227.31,256.134 395.69,256.134 395.69,214.662 227.31,214.662 227.31,256.134 "/>
<path clip-path="url(#clip850)" d="M437.596 255.086 Q435.791 259.715 434.078 261.127 Q432.365 262.539 429.494 262.539 L426.092 262.539 L426.092 258.975 L428.592 258.975 Q430.351 258.975 431.323 258.141 Q432.295 257.308 433.476 254.206 L434.24 252.262 L423.754 226.753 L428.268 226.753 L436.369 247.03 L444.471 226.753 L448.985 226.753 L437.596 255.086 Z" fill="#000000" fill-rule="nonzero" fill-opacity="1" /><path clip-path="url(#clip850)" d="M456.277 248.743 L463.916 248.743 L463.916 222.378 L455.605 224.044 L455.605 219.785 L463.869 218.118 L468.545 218.118 L468.545 248.743 L476.184 248.743 L476.184 252.678 L456.277 252.678 L456.277 248.743 Z" fill="#000000" fill-rule="nonzero" fill-opacity="1" /></svg>
