<?xml version="1.0" encoding="utf-8"?>
<svg xmlns="http://www.w3.org/2000/svg" xmlns:xlink="http://www.w3.org/1999/xlink" width="672" height="480" viewBox="0 0 2688 1920">
<defs>
  <clipPath id="clip790">
    <rect x="0" y="0" width="2688" height="1920"/>
  </clipPath>
</defs>
<path clip-path="url(#clip790)" d="M0 1920 L2688 1920 L2688 -4.26326e-14 L0 -4.26326e-14  Z" fill="#ffffff" fill-rule="evenodd" fill-opacity="1"/>
<defs>
  <clipPath id="clip791">
    <rect x="143" y="127" width="2498" height="1674"/>
  </clipPath>
</defs>
<path clip-path="url(#clip790)" d="M143.576 1800.78 L2640.76 1800.78 L2640.76 127.792 L143.576 127.792  Z" fill="#ffffff" fill-rule="evenodd" fill-opacity="1"/>
<polyline clip-path="url(#clip791)" style="stroke:#000000; stroke-linecap:round; stroke-linejoin:round; stroke-width:2; stroke-opacity:0.1; fill:none" points="514.87,1800.78 514.87,127.792 "/>
<polyline clip-path="url(#clip791)" style="stroke:#000000; stroke-linecap:round; stroke-linejoin:round; stroke-width:2; stroke-opacity:0.1; fill:none" points="1099.73,1800.78 1099.73,127.792 "/>
<polyline clip-path="url(#clip791)" style="stroke:#000000; stroke-linecap:round; stroke-linejoin:round; stroke-width:2; stroke-opacity:0.1; fill:none" points="1684.6,1800.78 1684.6,127.792 "/>
<polyline clip-path="url(#clip791)" style="stroke:#000000; stroke-linecap:round; stroke-linejoin:round; stroke-width:2; stroke-opacity:0.1; fill:none" points="2269.46,1800.78 2269.46,127.792 "/>
<polyline clip-path="url(#clip791)" style="stroke:#000000; stroke-linecap:round; stroke-linejoin:round; stroke-width:2; stroke-opacity:0.1; fill:none" points="143.576,1800.78 2640.76,1800.78 "/>
<polyline clip-path="url(#clip791)" style="stroke:#000000; stroke-linecap:round; stroke-linejoin:round; stroke-width:2; stroke-opacity:0.1; fill:none" points="143.576,1243.12 2640.76,1243.12 "/>
<polyline clip-path="url(#clip791)" style="stroke:#000000; stroke-linecap:round; stroke-linejoin:round; stroke-width:2; stroke-opacity:0.1; fill:none" points="143.576,685.455 2640.76,685.455 "/>
<polyline clip-path="url(#clip791)" style="stroke:#000000; stroke-linecap:round; stroke-linejoin:round; stroke-width:2; stroke-opacity:0.1; fill:none" points="143.576,127.792 2640.76,127.792 "/>
<polyline clip-path="url(#clip790)" style="stroke:#000000; stroke-linecap:round; stroke-linejoin:round; stroke-width:4; stroke-opacity:1; fill:none" points="143.576,1800.78 2640.76,1800.78 "/>
<polyline clip-path="url(#clip790)" style="stroke:#000000; stroke-linecap:round; stroke-linejoin:round; stroke-width:4; stroke-opacity:1; fill:none" points="514.87,1800.78 514.87,1781.88 "/>
<polyline clip-path="url(#clip790)" style="stroke:#000000; stroke-linecap:round; stroke-linejoin:round; stroke-width:4; stroke-opacity:1; fill:none" points="1099.73,1800.78 1099.73,1781.88 "/>
<polyline clip-path="url(#clip790)" style="stroke:#000000; stroke-linecap:round; stroke-linejoin:round; stroke-width:4; stroke-opacity:1; fill:none" points="1684.6,1800.78 1684.6,1781.88 "/>
<polyline clip-path="url(#clip790)" style="stroke:#000000; stroke-linecap:round; stroke-linejoin:round; stroke-width:4; stroke-opacity:1; fill:none" points="2269.46,1800.78 2269.46,1781.88 "/>
<path clip-path="url(#clip790)" d="M514.87 1835.53 L508.528 1852.73 L521.236 1852.73 L514.87 1835.53 M512.231 1830.92 L517.532 1830.92 L530.704 1865.48 L525.843 1865.48 L522.694 1856.62 L507.116 1856.62 L503.968 1865.48 L499.037 1865.48 L512.231 1830.92 Z" fill="#000000" fill-rule="nonzero" fill-opacity="1" /><path clip-path="url(#clip790)" d="M1092.15 1848.98 L1092.15 1861.64 L1099.65 1861.64 Q1103.43 1861.64 1105.23 1860.09 Q1107.06 1858.52 1107.06 1855.3 Q1107.06 1852.06 1105.23 1850.53 Q1103.43 1848.98 1099.65 1848.98 L1092.15 1848.98 M1092.15 1834.77 L1092.15 1845.18 L1099.07 1845.18 Q1102.5 1845.18 1104.17 1843.91 Q1105.86 1842.61 1105.86 1839.97 Q1105.86 1837.36 1104.17 1836.06 Q1102.5 1834.77 1099.07 1834.77 L1092.15 1834.77 M1087.48 1830.92 L1099.42 1830.92 Q1104.77 1830.92 1107.66 1833.15 Q1110.56 1835.37 1110.56 1839.46 Q1110.56 1842.64 1109.07 1844.51 Q1107.59 1846.39 1104.72 1846.85 Q1108.17 1847.59 1110.07 1849.95 Q1111.99 1852.29 1111.99 1855.81 Q1111.99 1860.44 1108.84 1862.96 Q1105.69 1865.48 1099.88 1865.48 L1087.48 1865.48 L1087.48 1830.92 Z" fill="#000000" fill-rule="nonzero" fill-opacity="1" /><path clip-path="url(#clip790)" d="M1698.53 1833.59 L1698.53 1838.52 Q1696.17 1836.32 1693.49 1835.23 Q1690.82 1834.14 1687.82 1834.14 Q1681.89 1834.14 1678.74 1837.78 Q1675.59 1841.39 1675.59 1848.24 Q1675.59 1855.07 1678.74 1858.7 Q1681.89 1862.31 1687.82 1862.31 Q1690.82 1862.31 1693.49 1861.22 Q1696.17 1860.14 1698.53 1857.94 L1698.53 1862.82 Q1696.08 1864.49 1693.32 1865.32 Q1690.59 1866.15 1687.54 1866.15 Q1679.69 1866.15 1675.18 1861.36 Q1670.66 1856.55 1670.66 1848.24 Q1670.66 1839.9 1675.18 1835.11 Q1679.69 1830.3 1687.54 1830.3 Q1690.64 1830.3 1693.37 1831.13 Q1696.13 1831.94 1698.53 1833.59 Z" fill="#000000" fill-rule="nonzero" fill-opacity="1" /><path clip-path="url(#clip790)" d="M2259.61 1834.77 L2259.61 1861.64 L2265.26 1861.64 Q2272.41 1861.64 2275.72 1858.4 Q2279.06 1855.16 2279.06 1848.17 Q2279.06 1841.22 2275.72 1838.01 Q2272.41 1834.77 2265.26 1834.77 L2259.61 1834.77 M2254.94 1830.92 L2264.54 1830.92 Q2274.59 1830.92 2279.29 1835.11 Q2283.99 1839.28 2283.99 1848.17 Q2283.99 1857.1 2279.26 1861.29 Q2274.54 1865.48 2264.54 1865.48 L2254.94 1865.48 L2254.94 1830.92 Z" fill="#000000" fill-rule="nonzero" fill-opacity="1" /><polyline clip-path="url(#clip790)" style="stroke:#000000; stroke-linecap:round; stroke-linejoin:round; stroke-width:4; stroke-opacity:1; fill:none" points="143.576,1800.78 143.576,127.792 "/>
<polyline clip-path="url(#clip790)" style="stroke:#000000; stroke-linecap:round; stroke-linejoin:round; stroke-width:4; stroke-opacity:1; fill:none" points="143.576,1800.78 162.473,1800.78 "/>
<polyline clip-path="url(#clip790)" style="stroke:#000000; stroke-linecap:round; stroke-linejoin:round; stroke-width:4; stroke-opacity:1; fill:none" points="143.576,1243.12 162.473,1243.12 "/>
<polyline clip-path="url(#clip790)" style="stroke:#000000; stroke-linecap:round; stroke-linejoin:round; stroke-width:4; stroke-opacity:1; fill:none" points="143.576,685.455 162.473,685.455 "/>
<polyline clip-path="url(#clip790)" style="stroke:#000000; stroke-linecap:round; stroke-linejoin:round; stroke-width:4; stroke-opacity:1; fill:none" points="143.576,127.792 162.473,127.792 "/>
<path clip-path="url(#clip790)" d="M91.3112 1786.58 Q87.7001 1786.58 85.8714 1790.14 Q84.0658 1793.68 84.0658 1800.81 Q84.0658 1807.92 85.8714 1811.49 Q87.7001 1815.03 91.3112 1815.03 Q94.9454 1815.03 96.7509 1811.49 Q98.5796 1807.92 98.5796 1800.81 Q98.5796 1793.68 96.7509 1790.14 Q94.9454 1786.58 91.3112 1786.58 M91.3112 1782.87 Q97.1213 1782.87 100.177 1787.48 Q103.256 1792.06 103.256 1800.81 Q103.256 1809.54 100.177 1814.15 Q97.1213 1818.73 91.3112 1818.73 Q85.501 1818.73 82.4223 1814.15 Q79.3668 1809.54 79.3668 1800.81 Q79.3668 1792.06 82.4223 1787.48 Q85.501 1782.87 91.3112 1782.87 Z" fill="#000000" fill-rule="nonzero" fill-opacity="1" /><path clip-path="url(#clip790)" d="M51.9595 1256.46 L59.5984 1256.46 L59.5984 1230.1 L51.2882 1231.76 L51.2882 1227.5 L59.5521 1225.84 L64.228 1225.84 L64.228 1256.46 L71.8668 1256.46 L71.8668 1260.4 L51.9595 1260.4 L51.9595 1256.46 Z" fill="#000000" fill-rule="nonzero" fill-opacity="1" /><path clip-path="url(#clip790)" d="M91.3112 1228.92 Q87.7001 1228.92 85.8714 1232.48 Q84.0658 1236.02 84.0658 1243.15 Q84.0658 1250.26 85.8714 1253.82 Q87.7001 1257.36 91.3112 1257.36 Q94.9454 1257.36 96.7509 1253.82 Q98.5796 1250.26 98.5796 1243.15 Q98.5796 1236.02 96.7509 1232.48 Q94.9454 1228.92 91.3112 1228.92 M91.3112 1225.21 Q97.1213 1225.21 100.177 1229.82 Q103.256 1234.4 103.256 1243.15 Q103.256 1251.88 100.177 1256.48 Q97.1213 1261.07 91.3112 1261.07 Q85.501 1261.07 82.4223 1256.48 Q79.3668 1251.88 79.3668 1243.15 Q79.3668 1234.4 82.4223 1229.82 Q85.501 1225.21 91.3112 1225.21 Z" fill="#000000" fill-rule="nonzero" fill-opacity="1" /><path clip-path="url(#clip790)" d="M55.1771 698.799 L71.4965 698.799 L71.4965 702.735 L49.5521 702.735 L49.5521 698.799 Q52.2141 696.045 56.7975 691.415 Q61.4039 686.762 62.5845 685.42 Q64.8298 682.897 65.7094 681.161 Q66.6122 679.401 66.6122 677.712 Q66.6122 674.957 64.6678 673.221 Q62.7465 671.485 59.6447 671.485 Q57.4456 671.485 54.9919 672.249 Q52.5614 673.012 49.7836 674.563 L49.7836 669.841 Q52.6077 668.707 55.0614 668.128 Q57.515 667.55 59.5521 667.55 Q64.9224 667.55 68.1168 670.235 Q71.3113 672.92 71.3113 677.411 Q71.3113 679.54 70.5011 681.461 Q69.7141 683.36 67.6076 685.952 Q67.0289 686.623 63.927 689.841 Q60.8252 693.035 55.1771 698.799 Z" fill="#000000" fill-rule="nonzero" fill-opacity="1" /><path clip-path="url(#clip790)" d="M91.3112 671.253 Q87.7001 671.253 85.8714 674.818 Q84.0658 678.36 84.0658 685.489 Q84.0658 692.596 85.8714 696.16 Q87.7001 699.702 91.3112 699.702 Q94.9454 699.702 96.7509 696.16 Q98.5796 692.596 98.5796 685.489 Q98.5796 678.36 96.7509 674.818 Q94.9454 671.253 91.3112 671.253 M91.3112 667.55 Q97.1213 667.55 100.177 672.156 Q103.256 676.739 103.256 685.489 Q103.256 694.216 100.177 698.823 Q97.1213 703.406 91.3112 703.406 Q85.501 703.406 82.4223 698.823 Q79.3668 694.216 79.3668 685.489 Q79.3668 676.739 82.4223 672.156 Q85.501 667.55 91.3112 667.55 Z" fill="#000000" fill-rule="nonzero" fill-opacity="1" /><path clip-path="url(#clip790)" d="M65.3159 126.438 Q68.6724 127.156 70.5474 129.424 Q72.4455 131.693 72.4455 135.026 Q72.4455 140.142 68.927 142.943 Q65.4085 145.743 58.9271 145.743 Q56.7512 145.743 54.4364 145.304 Q52.1447 144.887 49.691 144.03 L49.691 139.517 Q51.6354 140.651 53.9503 141.23 Q56.2651 141.808 58.7882 141.808 Q63.1863 141.808 65.478 140.072 Q67.7928 138.336 67.7928 135.026 Q67.7928 131.97 65.64 130.257 Q63.5104 128.521 59.691 128.521 L55.6632 128.521 L55.6632 124.679 L59.8761 124.679 Q63.3252 124.679 65.1539 123.313 Q66.9826 121.924 66.9826 119.332 Q66.9826 116.67 65.0845 115.257 Q63.2095 113.822 59.691 113.822 Q57.7697 113.822 55.5706 114.239 Q53.3715 114.656 50.7327 115.535 L50.7327 111.369 Q53.3947 110.628 55.7095 110.257 Q58.0475 109.887 60.1076 109.887 Q65.4317 109.887 68.5335 112.318 Q71.6353 114.725 71.6353 118.845 Q71.6353 121.716 69.9918 123.706 Q68.3483 125.674 65.3159 126.438 Z" fill="#000000" fill-rule="nonzero" fill-opacity="1" /><path clip-path="url(#clip790)" d="M91.3112 113.591 Q87.7001 113.591 85.8714 117.156 Q84.0658 120.697 84.0658 127.827 Q84.0658 134.933 85.8714 138.498 Q87.7001 142.04 91.3112 142.04 Q94.9454 142.04 96.7509 138.498 Q98.5796 134.933 98.5796 127.827 Q98.5796 120.697 96.7509 117.156 Q94.9454 113.591 91.3112 113.591 M91.3112 109.887 Q97.1213 109.887 100.177 114.494 Q103.256 119.077 103.256 127.827 Q103.256 136.554 100.177 141.16 Q97.1213 145.743 91.3112 145.743 Q85.501 145.743 82.4223 141.16 Q79.3668 136.554 79.3668 127.827 Q79.3668 119.077 82.4223 114.494 Q85.501 109.887 91.3112 109.887 Z" fill="#000000" fill-rule="nonzero" fill-opacity="1" /><path clip-path="url(#clip790)" d="M1051.18 43.6931 L1051.18 65.8515 L1064.31 65.8515 Q1070.91 65.8515 1074.07 63.1374 Q1077.27 60.3828 1077.27 54.752 Q1077.27 49.0808 1074.07 46.4072 Q1070.91 43.6931 1064.31 43.6931 L1051.18 43.6931 M1051.18 18.8205 L1051.18 37.0496 L1063.29 37.0496 Q1069.29 37.0496 1072.21 34.8216 Q1075.16 32.5531 1075.16 27.935 Q1075.16 23.3575 1072.21 21.089 Q1069.29 18.8205 1063.29 18.8205 L1051.18 18.8205 M1043 12.096 L1063.9 12.096 Q1073.26 12.096 1078.32 15.9849 Q1083.39 19.8737 1083.39 27.0438 Q1083.39 32.5936 1080.79 35.8748 Q1078.2 39.156 1073.18 39.9662 Q1079.21 41.2625 1082.53 45.3944 Q1085.9 49.4858 1085.9 55.6432 Q1085.9 63.745 1080.39 68.1605 Q1074.88 72.576 1064.71 72.576 L1043 72.576 L1043 12.096 Z" fill="#000000" fill-rule="nonzero" fill-opacity="1" /><path clip-path="url(#clip790)" d="M1120.21 49.7694 Q1111.17 49.7694 1107.69 51.8354 Q1104.21 53.9013 1104.21 58.8839 Q1104.21 62.8538 1106.8 65.2034 Q1109.43 67.5124 1113.93 67.5124 Q1120.13 67.5124 1123.85 63.1374 Q1127.62 58.7219 1127.62 51.4303 L1127.62 49.7694 L1120.21 49.7694 M1135.08 46.6907 L1135.08 72.576 L1127.62 72.576 L1127.62 65.6895 Q1125.07 69.8214 1121.26 71.8063 Q1117.45 73.7508 1111.94 73.7508 Q1104.98 73.7508 1100.84 69.8619 Q1096.75 65.9325 1096.75 59.3701 Q1096.75 51.7138 1101.86 47.825 Q1107 43.9361 1117.17 43.9361 L1127.62 43.9361 L1127.62 43.2069 Q1127.62 38.0623 1124.22 35.2672 Q1120.86 32.4315 1114.74 32.4315 Q1110.85 32.4315 1107.16 33.3632 Q1103.48 34.295 1100.08 36.1584 L1100.08 29.2718 Q1104.17 27.692 1108.02 26.9223 Q1111.86 26.1121 1115.51 26.1121 Q1125.35 26.1121 1130.21 31.2163 Q1135.08 36.3204 1135.08 46.6907 Z" fill="#000000" fill-rule="nonzero" fill-opacity="1" /><path clip-path="url(#clip790)" d="M1176.72 34.1734 Q1175.46 33.4443 1173.96 33.1202 Q1172.51 32.7556 1170.72 32.7556 Q1164.4 32.7556 1161 36.8875 Q1157.64 40.9789 1157.64 48.6757 L1157.64 72.576 L1150.14 72.576 L1150.14 27.2059 L1157.64 27.2059 L1157.64 34.2544 Q1159.99 30.1225 1163.76 28.1376 Q1167.52 26.1121 1172.91 26.1121 Q1173.68 26.1121 1174.61 26.2337 Q1175.54 26.3147 1176.68 26.5172 L1176.72 34.1734 Z" fill="#000000" fill-rule="nonzero" fill-opacity="1" /><path clip-path="url(#clip790)" d="M1219.41 18.8205 L1219.41 41.5461 L1229.7 41.5461 Q1235.42 41.5461 1238.54 38.5889 Q1241.65 35.6318 1241.65 30.163 Q1241.65 24.7348 1238.54 21.7777 Q1235.42 18.8205 1229.7 18.8205 L1219.41 18.8205 M1211.23 12.096 L1229.7 12.096 Q1239.87 12.096 1245.06 16.714 Q1250.28 21.2916 1250.28 30.163 Q1250.28 39.1155 1245.06 43.6931 Q1239.87 48.2706 1229.7 48.2706 L1219.41 48.2706 L1219.41 72.576 L1211.23 72.576 L1211.23 12.096 Z" fill="#000000" fill-rule="nonzero" fill-opacity="1" /><path clip-path="url(#clip790)" d="M1260.94 9.54393 L1268.39 9.54393 L1268.39 72.576 L1260.94 72.576 L1260.94 9.54393 Z" fill="#000000" fill-rule="nonzero" fill-opacity="1" /><path clip-path="url(#clip790)" d="M1301.57 32.4315 Q1295.57 32.4315 1292.09 37.1306 Q1288.6 41.7891 1288.6 49.9314 Q1288.6 58.0738 1292.05 62.7728 Q1295.53 67.4314 1301.57 67.4314 Q1307.52 67.4314 1311.01 62.7323 Q1314.49 58.0333 1314.49 49.9314 Q1314.49 41.8701 1311.01 37.1711 Q1307.52 32.4315 1301.57 32.4315 M1301.57 26.1121 Q1311.29 26.1121 1316.84 32.4315 Q1322.39 38.7509 1322.39 49.9314 Q1322.39 61.0714 1316.84 67.4314 Q1311.29 73.7508 1301.57 73.7508 Q1291.8 73.7508 1286.25 67.4314 Q1280.75 61.0714 1280.75 49.9314 Q1280.75 38.7509 1286.25 32.4315 Q1291.8 26.1121 1301.57 26.1121 Z" fill="#000000" fill-rule="nonzero" fill-opacity="1" /><path clip-path="url(#clip790)" d="M1342.12 14.324 L1342.12 27.2059 L1357.47 27.2059 L1357.47 32.9987 L1342.12 32.9987 L1342.12 57.6282 Q1342.12 63.1779 1343.62 64.7578 Q1345.15 66.3376 1349.81 66.3376 L1357.47 66.3376 L1357.47 72.576 L1349.81 72.576 Q1341.19 72.576 1337.9 69.3758 Q1334.62 66.1351 1334.62 57.6282 L1334.62 32.9987 L1329.15 32.9987 L1329.15 27.2059 L1334.62 27.2059 L1334.62 14.324 L1342.12 14.324 Z" fill="#000000" fill-rule="nonzero" fill-opacity="1" /><path clip-path="url(#clip790)" d="M1393.97 12.096 L1432.21 12.096 L1432.21 18.9825 L1402.15 18.9825 L1402.15 36.8875 L1430.95 36.8875 L1430.95 43.7741 L1402.15 43.7741 L1402.15 65.6895 L1432.94 65.6895 L1432.94 72.576 L1393.97 72.576 L1393.97 12.096 Z" fill="#000000" fill-rule="nonzero" fill-opacity="1" /><path clip-path="url(#clip790)" d="M1483.78 27.2059 L1467.37 49.2833 L1484.63 72.576 L1475.84 72.576 L1462.63 54.752 L1449.43 72.576 L1440.63 72.576 L1458.26 48.8377 L1442.13 27.2059 L1450.92 27.2059 L1462.96 43.369 L1474.99 27.2059 L1483.78 27.2059 Z" fill="#000000" fill-rule="nonzero" fill-opacity="1" /><path clip-path="url(#clip790)" d="M1515.78 49.7694 Q1506.75 49.7694 1503.26 51.8354 Q1499.78 53.9013 1499.78 58.8839 Q1499.78 62.8538 1502.37 65.2034 Q1505 67.5124 1509.5 67.5124 Q1515.7 67.5124 1519.42 63.1374 Q1523.19 58.7219 1523.19 51.4303 L1523.19 49.7694 L1515.78 49.7694 M1530.65 46.6907 L1530.65 72.576 L1523.19 72.576 L1523.19 65.6895 Q1520.64 69.8214 1516.83 71.8063 Q1513.02 73.7508 1507.52 73.7508 Q1500.55 73.7508 1496.42 69.8619 Q1492.32 65.9325 1492.32 59.3701 Q1492.32 51.7138 1497.43 47.825 Q1502.57 43.9361 1512.74 43.9361 L1523.19 43.9361 L1523.19 43.2069 Q1523.19 38.0623 1519.79 35.2672 Q1516.43 32.4315 1510.31 32.4315 Q1506.42 32.4315 1502.74 33.3632 Q1499.05 34.295 1495.65 36.1584 L1495.65 29.2718 Q1499.74 27.692 1503.59 26.9223 Q1507.43 26.1121 1511.08 26.1121 Q1520.92 26.1121 1525.78 31.2163 Q1530.65 36.3204 1530.65 46.6907 Z" fill="#000000" fill-rule="nonzero" fill-opacity="1" /><path clip-path="url(#clip790)" d="M1581.32 35.9153 Q1584.12 30.8922 1588.01 28.5022 Q1591.9 26.1121 1597.16 26.1121 Q1604.25 26.1121 1608.1 31.0947 Q1611.95 36.0368 1611.95 45.1919 L1611.95 72.576 L1604.45 72.576 L1604.45 45.4349 Q1604.45 38.913 1602.14 35.7533 Q1599.84 32.5936 1595.1 32.5936 Q1589.3 32.5936 1585.94 36.4419 Q1582.58 40.2903 1582.58 46.9338 L1582.58 72.576 L1575.08 72.576 L1575.08 45.4349 Q1575.08 38.8725 1572.78 35.7533 Q1570.47 32.5936 1565.65 32.5936 Q1559.93 32.5936 1556.57 36.4824 Q1553.21 40.3308 1553.21 46.9338 L1553.21 72.576 L1545.72 72.576 L1545.72 27.2059 L1553.21 27.2059 L1553.21 34.2544 Q1555.76 30.082 1559.33 28.0971 Q1562.89 26.1121 1567.79 26.1121 Q1572.73 26.1121 1576.18 28.6237 Q1579.66 31.1352 1581.32 35.9153 Z" fill="#000000" fill-rule="nonzero" fill-opacity="1" /><path clip-path="url(#clip790)" d="M1634.02 65.7705 L1634.02 89.8329 L1626.53 89.8329 L1626.53 27.2059 L1634.02 27.2059 L1634.02 34.0924 Q1636.37 30.0415 1639.94 28.0971 Q1643.54 26.1121 1648.53 26.1121 Q1656.79 26.1121 1661.94 32.6746 Q1667.12 39.2371 1667.12 49.9314 Q1667.12 60.6258 1661.94 67.1883 Q1656.79 73.7508 1648.53 73.7508 Q1643.54 73.7508 1639.94 71.8063 Q1636.37 69.8214 1634.02 65.7705 M1659.38 49.9314 Q1659.38 41.7081 1655.98 37.0496 Q1652.62 32.3505 1646.7 32.3505 Q1640.79 32.3505 1637.39 37.0496 Q1634.02 41.7081 1634.02 49.9314 Q1634.02 58.1548 1637.39 62.8538 Q1640.79 67.5124 1646.7 67.5124 Q1652.62 67.5124 1655.98 62.8538 Q1659.38 58.1548 1659.38 49.9314 Z" fill="#000000" fill-rule="nonzero" fill-opacity="1" /><path clip-path="url(#clip790)" d="M1679.48 9.54393 L1686.93 9.54393 L1686.93 72.576 L1679.48 72.576 L1679.48 9.54393 Z" fill="#000000" fill-rule="nonzero" fill-opacity="1" /><path clip-path="url(#clip790)" d="M1741.33 48.0275 L1741.33 51.6733 L1707.06 51.6733 Q1707.55 59.3701 1711.68 63.421 Q1715.85 67.4314 1723.27 67.4314 Q1727.56 67.4314 1731.57 66.3781 Q1735.62 65.3249 1739.59 63.2184 L1739.59 70.267 Q1735.58 71.9684 1731.37 72.8596 Q1727.16 73.7508 1722.82 73.7508 Q1711.96 73.7508 1705.6 67.4314 Q1699.29 61.1119 1699.29 50.3365 Q1699.29 39.1965 1705.28 32.6746 Q1711.32 26.1121 1721.52 26.1121 Q1730.68 26.1121 1735.99 32.0264 Q1741.33 37.9003 1741.33 48.0275 M1733.88 45.84 Q1733.8 39.7232 1730.44 36.0774 Q1727.11 32.4315 1721.61 32.4315 Q1715.37 32.4315 1711.6 35.9558 Q1707.87 39.4801 1707.31 45.8805 L1733.88 45.84 Z" fill="#000000" fill-rule="nonzero" fill-opacity="1" /><path clip-path="url(#clip791)" d="M280.925 964.286 L280.925 1800.78 L748.816 1800.78 L748.816 964.286 L280.925 964.286 L280.925 964.286  Z" fill="#009af9" fill-rule="evenodd" fill-opacity="1"/>
<polyline clip-path="url(#clip791)" style="stroke:#000000; stroke-linecap:round; stroke-linejoin:round; stroke-width:4; stroke-opacity:1; fill:none" points="280.925,964.286 280.925,1800.78 748.816,1800.78 748.816,964.286 280.925,964.286 "/>
<path clip-path="url(#clip791)" d="M865.788 518.156 L865.788 1800.78 L1333.68 1800.78 L1333.68 518.156 L865.788 518.156 L865.788 518.156  Z" fill="#009af9" fill-rule="evenodd" fill-opacity="1"/>
<polyline clip-path="url(#clip791)" style="stroke:#000000; stroke-linecap:round; stroke-linejoin:round; stroke-width:4; stroke-opacity:1; fill:none" points="865.788,518.156 865.788,1800.78 1333.68,1800.78 1333.68,518.156 865.788,518.156 "/>
<path clip-path="url(#clip791)" d="M1450.65 796.987 L1450.65 1800.78 L1918.54 1800.78 L1918.54 796.987 L1450.65 796.987 L1450.65 796.987  Z" fill="#009af9" fill-rule="evenodd" fill-opacity="1"/>
<polyline clip-path="url(#clip791)" style="stroke:#000000; stroke-linecap:round; stroke-linejoin:round; stroke-width:4; stroke-opacity:1; fill:none" points="1450.65,796.987 1450.65,1800.78 1918.54,1800.78 1918.54,796.987 1450.65,796.987 "/>
<path clip-path="url(#clip791)" d="M2035.52 127.792 L2035.52 1800.78 L2503.41 1800.78 L2503.41 127.792 L2035.52 127.792 L2035.52 127.792  Z" fill="#009af9" fill-rule="evenodd" fill-opacity="1"/>
<polyline clip-path="url(#clip791)" style="stroke:#000000; stroke-linecap:round; stroke-linejoin:round; stroke-width:4; stroke-opacity:1; fill:none" points="2035.52,127.792 2035.52,1800.78 2503.41,1800.78 2503.41,127.792 2035.52,127.792 "/>
<circle clip-path="url(#clip791)" style="fill:#009af9; stroke:none; fill-opacity:0" cx="514.87" cy="964.286" r="2"/>
<circle clip-path="url(#clip791)" style="fill:#009af9; stroke:none; fill-opacity:0" cx="1099.73" cy="518.156" r="2"/>
<circle clip-path="url(#clip791)" style="fill:#009af9; stroke:none; fill-opacity:0" cx="1684.6" cy="796.987" r="2"/>
<circle clip-path="url(#clip791)" style="fill:#009af9; stroke:none; fill-opacity:0" cx="2269.46" cy="127.792" r="2"/>
<path clip-path="url(#clip790)" d="M226.815 287.238 L528.963 287.238 L528.963 183.558 L226.815 183.558  Z" fill="#ffffff" fill-rule="evenodd" fill-opacity="1"/>
<polyline clip-path="url(#clip790)" style="stroke:#000000; stroke-linecap:round; stroke-linejoin:round; stroke-width:4; stroke-opacity:1; fill:none" points="226.815,287.238 528.963,287.238 528.963,183.558 226.815,183.558 226.815,287.238 "/>
<path clip-path="url(#clip790)" d="M254.561 256.134 L421.04 256.134 L421.04 214.662 L254.561 214.662 L254.561 256.134  Z" fill="#009af9" fill-rule="evenodd" fill-opacity="1"/>
<polyline clip-path="url(#clip790)" style="stroke:#000000; stroke-linecap:round; stroke-linejoin:round; stroke-width:4; stroke-opacity:1; fill:none" points="254.561,256.134 421.04,256.134 421.04,214.662 254.561,214.662 254.561,256.134 "/>
<path clip-path="url(#clip790)" d="M462.629 255.086 Q460.823 259.715 459.11 261.127 Q457.398 262.539 454.527 262.539 L451.124 262.539 L451.124 258.975 L453.624 258.975 Q455.384 258.975 456.356 258.141 Q457.328 257.308 458.509 254.206 L459.273 252.262 L448.786 226.753 L453.3 226.753 L461.402 247.03 L469.504 226.753 L474.018 226.753 L462.629 255.086 Z" fill="#000000" fill-rule="nonzero" fill-opacity="1" /><path clip-path="url(#clip790)" d="M481.309 248.743 L488.948 248.743 L488.948 222.378 L480.638 224.044 L480.638 219.785 L488.902 218.118 L493.578 218.118 L493.578 248.743 L501.217 248.743 L501.217 252.678 L481.309 252.678 L481.309 248.743 Z" fill="#000000" fill-rule="nonzero" fill-opacity="1" /></svg>
