<?xml version="1.0" encoding="utf-8"?>
<svg xmlns="http://www.w3.org/2000/svg" xmlns:xlink="http://www.w3.org/1999/xlink" width="672" height="480" viewBox="0 0 2688 1920">
<defs>
  <clipPath id="clip760">
    <rect x="0" y="0" width="2688" height="1920"/>
  </clipPath>
</defs>
<path clip-path="url(#clip760)" d="M0 1920 L2688 1920 L2688 -4.26326e-14 L0 -4.26326e-14  Z" fill="#ffffff" fill-rule="evenodd" fill-opacity="1"/>
<defs>
  <clipPath id="clip761">
    <rect x="226" y="127" width="2416" height="1607"/>
  </clipPath>
</defs>
<path clip-path="url(#clip760)" d="M226.141 1734.12 L2640.76 1734.12 L2640.76 127.792 L226.141 127.792  Z" fill="#ffffff" fill-rule="evenodd" fill-opacity="1"/>
<polyline clip-path="url(#clip761)" style="stroke:#000000; stroke-linecap:round; stroke-linejoin:round; stroke-width:2; stroke-opacity:0.1; fill:none" points="774.045,1734.12 774.045,127.792 "/>
<polyline clip-path="url(#clip761)" style="stroke:#000000; stroke-linecap:round; stroke-linejoin:round; stroke-width:2; stroke-opacity:0.1; fill:none" points="1373.5,1734.12 1373.5,127.792 "/>
<polyline clip-path="url(#clip761)" style="stroke:#000000; stroke-linecap:round; stroke-linejoin:round; stroke-width:2; stroke-opacity:0.1; fill:none" points="1972.96,1734.12 1972.96,127.792 "/>
<polyline clip-path="url(#clip761)" style="stroke:#000000; stroke-linecap:round; stroke-linejoin:round; stroke-width:2; stroke-opacity:0.1; fill:none" points="2572.42,1734.12 2572.42,127.792 "/>
<polyline clip-path="url(#clip761)" style="stroke:#000000; stroke-linecap:round; stroke-linejoin:round; stroke-width:2; stroke-opacity:0.1; fill:none" points="226.141,1461.48 2640.76,1461.48 "/>
<polyline clip-path="url(#clip761)" style="stroke:#000000; stroke-linecap:round; stroke-linejoin:round; stroke-width:2; stroke-opacity:0.1; fill:none" points="226.141,1136.44 2640.76,1136.44 "/>
<polyline clip-path="url(#clip761)" style="stroke:#000000; stroke-linecap:round; stroke-linejoin:round; stroke-width:2; stroke-opacity:0.1; fill:none" points="226.141,811.41 2640.76,811.41 "/>
<polyline clip-path="url(#clip761)" style="stroke:#000000; stroke-linecap:round; stroke-linejoin:round; stroke-width:2; stroke-opacity:0.1; fill:none" points="226.141,486.375 2640.76,486.375 "/>
<polyline clip-path="url(#clip761)" style="stroke:#000000; stroke-linecap:round; stroke-linejoin:round; stroke-width:2; stroke-opacity:0.1; fill:none" points="226.141,161.339 2640.76,161.339 "/>
<polyline clip-path="url(#clip760)" style="stroke:#000000; stroke-linecap:round; stroke-linejoin:round; stroke-width:4; stroke-opacity:1; fill:none" points="226.141,1734.12 2640.76,1734.12 "/>
<polyline clip-path="url(#clip760)" style="stroke:#000000; stroke-linecap:round; stroke-linejoin:round; stroke-width:4; stroke-opacity:1; fill:none" points="774.045,1734.12 774.045,1715.22 "/>
<polyline clip-path="url(#clip760)" style="stroke:#000000; stroke-linecap:round; stroke-linejoin:round; stroke-width:4; stroke-opacity:1; fill:none" points="1373.5,1734.12 1373.5,1715.22 "/>
<polyline clip-path="url(#clip760)" style="stroke:#000000; stroke-linecap:round; stroke-linejoin:round; stroke-width:4; stroke-opacity:1; fill:none" points="1972.96,1734.12 1972.96,1715.22 "/>
<polyline clip-path="url(#clip760)" style="stroke:#000000; stroke-linecap:round; stroke-linejoin:round; stroke-width:4; stroke-opacity:1; fill:none" points="2572.42,1734.12 2572.42,1715.22 "/>
<path clip-path="url(#clip760)" d="M764.323 1764.26 L782.679 1764.26 L782.679 1768.2 L768.605 1768.2 L768.605 1776.67 Q769.624 1776.32 770.642 1776.16 Q771.661 1775.97 772.679 1775.97 Q778.466 1775.97 781.846 1779.15 Q785.225 1782.32 785.225 1787.73 Q785.225 1793.31 781.753 1796.41 Q778.281 1799.49 771.962 1799.49 Q769.786 1799.49 767.517 1799.12 Q765.272 1798.75 762.864 1798.01 L762.864 1793.31 Q764.948 1794.45 767.17 1795 Q769.392 1795.56 771.869 1795.56 Q775.874 1795.56 778.211 1793.45 Q780.549 1791.34 780.549 1787.73 Q780.549 1784.12 778.211 1782.02 Q775.874 1779.91 771.869 1779.91 Q769.994 1779.91 768.119 1780.33 Q766.267 1780.74 764.323 1781.62 L764.323 1764.26 Z" fill="#000000" fill-rule="nonzero" fill-opacity="1" /><path clip-path="url(#clip760)" d="M1348.19 1794.89 L1355.83 1794.89 L1355.83 1768.52 L1347.52 1770.19 L1347.52 1765.93 L1355.78 1764.26 L1360.46 1764.26 L1360.46 1794.89 L1368.1 1794.89 L1368.1 1798.82 L1348.19 1798.82 L1348.19 1794.89 Z" fill="#000000" fill-rule="nonzero" fill-opacity="1" /><path clip-path="url(#clip760)" d="M1387.54 1767.34 Q1383.93 1767.34 1382.1 1770.9 Q1380.3 1774.45 1380.3 1781.58 Q1380.3 1788.68 1382.1 1792.25 Q1383.93 1795.79 1387.54 1795.79 Q1391.18 1795.79 1392.98 1792.25 Q1394.81 1788.68 1394.81 1781.58 Q1394.81 1774.45 1392.98 1770.9 Q1391.18 1767.34 1387.54 1767.34 M1387.54 1763.64 Q1393.35 1763.64 1396.41 1768.24 Q1399.49 1772.83 1399.49 1781.58 Q1399.49 1790.3 1396.41 1794.91 Q1393.35 1799.49 1387.54 1799.49 Q1381.73 1799.49 1378.65 1794.91 Q1375.6 1790.3 1375.6 1781.58 Q1375.6 1772.83 1378.65 1768.24 Q1381.73 1763.64 1387.54 1763.64 Z" fill="#000000" fill-rule="nonzero" fill-opacity="1" /><path clip-path="url(#clip760)" d="M1948.15 1794.89 L1955.78 1794.89 L1955.78 1768.52 L1947.47 1770.19 L1947.47 1765.93 L1955.74 1764.26 L1960.41 1764.26 L1960.41 1794.89 L1968.05 1794.89 L1968.05 1798.82 L1948.15 1798.82 L1948.15 1794.89 Z" fill="#000000" fill-rule="nonzero" fill-opacity="1" /><path clip-path="url(#clip760)" d="M1977.54 1764.26 L1995.9 1764.26 L1995.9 1768.2 L1981.83 1768.2 L1981.83 1776.67 Q1982.84 1776.32 1983.86 1776.16 Q1984.88 1775.97 1985.9 1775.97 Q1991.69 1775.97 1995.07 1779.15 Q1998.45 1782.32 1998.45 1787.73 Q1998.45 1793.31 1994.97 1796.41 Q1991.5 1799.49 1985.18 1799.49 Q1983.01 1799.49 1980.74 1799.12 Q1978.49 1798.75 1976.09 1798.01 L1976.09 1793.31 Q1978.17 1794.45 1980.39 1795 Q1982.61 1795.56 1985.09 1795.56 Q1989.09 1795.56 1991.43 1793.45 Q1993.77 1791.34 1993.77 1787.73 Q1993.77 1784.12 1991.43 1782.02 Q1989.09 1779.91 1985.09 1779.91 Q1983.21 1779.91 1981.34 1780.33 Q1979.49 1780.74 1977.54 1781.62 L1977.54 1764.26 Z" fill="#000000" fill-rule="nonzero" fill-opacity="1" /><path clip-path="url(#clip760)" d="M2551.19 1794.89 L2567.51 1794.89 L2567.51 1798.82 L2545.57 1798.82 L2545.57 1794.89 Q2548.23 1792.13 2552.81 1787.5 Q2557.42 1782.85 2558.6 1781.51 Q2560.84 1778.98 2561.72 1777.25 Q2562.63 1775.49 2562.63 1773.8 Q2562.63 1771.04 2560.68 1769.31 Q2558.76 1767.57 2555.66 1767.57 Q2553.46 1767.57 2551.01 1768.34 Q2548.58 1769.1 2545.8 1770.65 L2545.8 1765.93 Q2548.62 1764.79 2551.08 1764.21 Q2553.53 1763.64 2555.57 1763.64 Q2560.94 1763.64 2564.13 1766.32 Q2567.33 1769.01 2567.33 1773.5 Q2567.33 1775.63 2566.51 1777.55 Q2565.73 1779.45 2563.62 1782.04 Q2563.04 1782.71 2559.94 1785.93 Q2556.84 1789.12 2551.19 1794.89 Z" fill="#000000" fill-rule="nonzero" fill-opacity="1" /><path clip-path="url(#clip760)" d="M2587.33 1767.34 Q2583.71 1767.34 2581.89 1770.9 Q2580.08 1774.45 2580.08 1781.58 Q2580.08 1788.68 2581.89 1792.25 Q2583.71 1795.79 2587.33 1795.79 Q2590.96 1795.79 2592.76 1792.25 Q2594.59 1788.68 2594.59 1781.58 Q2594.59 1774.45 2592.76 1770.9 Q2590.96 1767.34 2587.33 1767.34 M2587.33 1763.64 Q2593.14 1763.64 2596.19 1768.24 Q2599.27 1772.83 2599.27 1781.58 Q2599.27 1790.3 2596.19 1794.91 Q2593.14 1799.49 2587.33 1799.49 Q2581.51 1799.49 2578.44 1794.91 Q2575.38 1790.3 2575.38 1781.58 Q2575.38 1772.83 2578.44 1768.24 Q2581.51 1763.64 2587.33 1763.64 Z" fill="#000000" fill-rule="nonzero" fill-opacity="1" /><path clip-path="url(#clip760)" d="M1340.41 1835.78 L1347.32 1835.78 L1359.13 1853.45 L1371 1835.78 L1377.91 1835.78 L1362.63 1858.6 L1378.93 1883.3 L1372.02 1883.3 L1358.65 1863.09 L1345.19 1883.3 L1338.25 1883.3 L1355.21 1857.93 L1340.41 1835.78 Z" fill="#000000" fill-rule="nonzero" fill-opacity="1" /><path clip-path="url(#clip760)" d="M1380.9 1862.84 L1398.05 1862.84 L1398.05 1868.06 L1380.9 1868.06 L1380.9 1862.84 Z" fill="#000000" fill-rule="nonzero" fill-opacity="1" /><path clip-path="url(#clip760)" d="M1423.58 1865.38 Q1416.48 1865.38 1413.75 1867 Q1411.01 1868.63 1411.01 1872.54 Q1411.01 1875.66 1413.05 1877.51 Q1415.11 1879.32 1418.65 1879.32 Q1423.52 1879.32 1426.45 1875.88 Q1429.41 1872.42 1429.41 1866.69 L1429.41 1865.38 L1423.58 1865.38 M1435.26 1862.96 L1435.26 1883.3 L1429.41 1883.3 L1429.41 1877.89 Q1427.4 1881.14 1424.41 1882.7 Q1421.42 1884.22 1417.09 1884.22 Q1411.61 1884.22 1408.37 1881.17 Q1405.15 1878.08 1405.15 1872.92 Q1405.15 1866.91 1409.16 1863.85 Q1413.21 1860.8 1421.19 1860.8 L1429.41 1860.8 L1429.41 1860.23 Q1429.41 1856.18 1426.73 1853.99 Q1424.09 1851.76 1419.28 1851.76 Q1416.23 1851.76 1413.33 1852.49 Q1410.44 1853.22 1407.76 1854.69 L1407.76 1849.28 Q1410.98 1848.03 1414 1847.43 Q1417.02 1846.79 1419.89 1846.79 Q1427.62 1846.79 1431.44 1850.8 Q1435.26 1854.81 1435.26 1862.96 Z" fill="#000000" fill-rule="nonzero" fill-opacity="1" /><path clip-path="url(#clip760)" d="M1476.96 1847.65 L1464.07 1865 L1477.63 1883.3 L1470.72 1883.3 L1460.34 1869.3 L1449.97 1883.3 L1443.06 1883.3 L1456.91 1864.65 L1444.24 1847.65 L1451.14 1847.65 L1460.6 1860.35 L1470.05 1847.65 L1476.96 1847.65 Z" fill="#000000" fill-rule="nonzero" fill-opacity="1" /><path clip-path="url(#clip760)" d="M1485.9 1847.65 L1491.76 1847.65 L1491.76 1883.3 L1485.9 1883.3 L1485.9 1847.65 M1485.9 1833.78 L1491.76 1833.78 L1491.76 1841.19 L1485.9 1841.19 L1485.9 1833.78 Z" fill="#000000" fill-rule="nonzero" fill-opacity="1" /><path clip-path="url(#clip760)" d="M1526.74 1848.7 L1526.74 1854.24 Q1524.26 1852.97 1521.58 1852.33 Q1518.91 1851.7 1516.04 1851.7 Q1511.68 1851.7 1509.49 1853.03 Q1507.32 1854.37 1507.32 1857.04 Q1507.32 1859.08 1508.88 1860.26 Q1510.44 1861.4 1515.15 1862.45 L1517.16 1862.9 Q1523.4 1864.24 1526.01 1866.69 Q1528.65 1869.11 1528.65 1873.47 Q1528.65 1878.43 1524.7 1881.33 Q1520.79 1884.22 1513.91 1884.22 Q1511.05 1884.22 1507.93 1883.65 Q1504.84 1883.11 1501.4 1882 L1501.4 1875.95 Q1504.65 1877.64 1507.8 1878.49 Q1510.95 1879.32 1514.04 1879.32 Q1518.18 1879.32 1520.4 1877.92 Q1522.63 1876.49 1522.63 1873.91 Q1522.63 1871.52 1521.01 1870.25 Q1519.42 1868.98 1513.97 1867.8 L1511.94 1867.32 Q1506.49 1866.18 1504.08 1863.82 Q1501.66 1861.43 1501.66 1857.3 Q1501.66 1852.27 1505.22 1849.53 Q1508.79 1846.79 1515.34 1846.79 Q1518.59 1846.79 1521.45 1847.27 Q1524.32 1847.75 1526.74 1848.7 Z" fill="#000000" fill-rule="nonzero" fill-opacity="1" /><polyline clip-path="url(#clip760)" style="stroke:#000000; stroke-linecap:round; stroke-linejoin:round; stroke-width:4; stroke-opacity:1; fill:none" points="226.141,1734.12 226.141,127.792 "/>
<polyline clip-path="url(#clip760)" style="stroke:#000000; stroke-linecap:round; stroke-linejoin:round; stroke-width:4; stroke-opacity:1; fill:none" points="226.141,1461.48 245.038,1461.48 "/>
<polyline clip-path="url(#clip760)" style="stroke:#000000; stroke-linecap:round; stroke-linejoin:round; stroke-width:4; stroke-opacity:1; fill:none" points="226.141,1136.44 245.038,1136.44 "/>
<polyline clip-path="url(#clip760)" style="stroke:#000000; stroke-linecap:round; stroke-linejoin:round; stroke-width:4; stroke-opacity:1; fill:none" points="226.141,811.41 245.038,811.41 "/>
<polyline clip-path="url(#clip760)" style="stroke:#000000; stroke-linecap:round; stroke-linejoin:round; stroke-width:4; stroke-opacity:1; fill:none" points="226.141,486.375 245.038,486.375 "/>
<polyline clip-path="url(#clip760)" style="stroke:#000000; stroke-linecap:round; stroke-linejoin:round; stroke-width:4; stroke-opacity:1; fill:none" points="226.141,161.339 245.038,161.339 "/>
<path clip-path="url(#clip760)" d="M130.242 1447.28 Q126.631 1447.28 124.802 1450.84 Q122.997 1454.39 122.997 1461.51 Q122.997 1468.62 124.802 1472.19 Q126.631 1475.73 130.242 1475.73 Q133.876 1475.73 135.682 1472.19 Q137.511 1468.62 137.511 1461.51 Q137.511 1454.39 135.682 1450.84 Q133.876 1447.28 130.242 1447.28 M130.242 1443.58 Q136.052 1443.58 139.108 1448.18 Q142.187 1452.76 142.187 1461.51 Q142.187 1470.24 139.108 1474.85 Q136.052 1479.43 130.242 1479.43 Q124.432 1479.43 121.353 1474.85 Q118.298 1470.24 118.298 1461.51 Q118.298 1452.76 121.353 1448.18 Q124.432 1443.58 130.242 1443.58 Z" fill="#000000" fill-rule="nonzero" fill-opacity="1" /><path clip-path="url(#clip760)" d="M150.404 1472.88 L155.288 1472.88 L155.288 1478.76 L150.404 1478.76 L150.404 1472.88 Z" fill="#000000" fill-rule="nonzero" fill-opacity="1" /><path clip-path="url(#clip760)" d="M169.501 1474.82 L185.821 1474.82 L185.821 1478.76 L163.876 1478.76 L163.876 1474.82 Q166.538 1472.07 171.122 1467.44 Q175.728 1462.79 176.909 1461.45 Q179.154 1458.92 180.034 1457.19 Q180.936 1455.43 180.936 1453.74 Q180.936 1450.98 178.992 1449.25 Q177.071 1447.51 173.969 1447.51 Q171.77 1447.51 169.316 1448.27 Q166.885 1449.04 164.108 1450.59 L164.108 1445.87 Q166.932 1444.73 169.385 1444.15 Q171.839 1443.58 173.876 1443.58 Q179.247 1443.58 182.441 1446.26 Q185.635 1448.95 185.635 1453.44 Q185.635 1455.57 184.825 1457.49 Q184.038 1459.39 181.932 1461.98 Q181.353 1462.65 178.251 1465.87 Q175.149 1469.06 169.501 1474.82 Z" fill="#000000" fill-rule="nonzero" fill-opacity="1" /><path clip-path="url(#clip760)" d="M128.159 1122.24 Q124.548 1122.24 122.719 1125.81 Q120.913 1129.35 120.913 1136.48 Q120.913 1143.59 122.719 1147.15 Q124.548 1150.69 128.159 1150.69 Q131.793 1150.69 133.599 1147.15 Q135.427 1143.59 135.427 1136.48 Q135.427 1129.35 133.599 1125.81 Q131.793 1122.24 128.159 1122.24 M128.159 1118.54 Q133.969 1118.54 137.025 1123.15 Q140.103 1127.73 140.103 1136.48 Q140.103 1145.21 137.025 1149.81 Q133.969 1154.4 128.159 1154.4 Q122.349 1154.4 119.27 1149.81 Q116.214 1145.21 116.214 1136.48 Q116.214 1127.73 119.27 1123.15 Q122.349 1118.54 128.159 1118.54 Z" fill="#000000" fill-rule="nonzero" fill-opacity="1" /><path clip-path="url(#clip760)" d="M148.321 1147.85 L153.205 1147.85 L153.205 1153.72 L148.321 1153.72 L148.321 1147.85 Z" fill="#000000" fill-rule="nonzero" fill-opacity="1" /><path clip-path="url(#clip760)" d="M176.237 1123.24 L164.432 1141.69 L176.237 1141.69 L176.237 1123.24 M175.01 1119.16 L180.89 1119.16 L180.89 1141.69 L185.821 1141.69 L185.821 1145.58 L180.89 1145.58 L180.89 1153.72 L176.237 1153.72 L176.237 1145.58 L160.636 1145.58 L160.636 1141.06 L175.01 1119.16 Z" fill="#000000" fill-rule="nonzero" fill-opacity="1" /><path clip-path="url(#clip760)" d="M128.483 797.208 Q124.872 797.208 123.043 800.773 Q121.238 804.315 121.238 811.444 Q121.238 818.551 123.043 822.116 Q124.872 825.657 128.483 825.657 Q132.117 825.657 133.923 822.116 Q135.751 818.551 135.751 811.444 Q135.751 804.315 133.923 800.773 Q132.117 797.208 128.483 797.208 M128.483 793.505 Q134.293 793.505 137.349 798.111 Q140.427 802.695 140.427 811.444 Q140.427 820.171 137.349 824.778 Q134.293 829.361 128.483 829.361 Q122.673 829.361 119.594 824.778 Q116.539 820.171 116.539 811.444 Q116.539 802.695 119.594 798.111 Q122.673 793.505 128.483 793.505 Z" fill="#000000" fill-rule="nonzero" fill-opacity="1" /><path clip-path="url(#clip760)" d="M148.645 822.81 L153.529 822.81 L153.529 828.69 L148.645 828.69 L148.645 822.81 Z" fill="#000000" fill-rule="nonzero" fill-opacity="1" /><path clip-path="url(#clip760)" d="M174.293 809.546 Q171.145 809.546 169.293 811.699 Q167.464 813.852 167.464 817.602 Q167.464 821.329 169.293 823.505 Q171.145 825.657 174.293 825.657 Q177.441 825.657 179.27 823.505 Q181.122 821.329 181.122 817.602 Q181.122 813.852 179.27 811.699 Q177.441 809.546 174.293 809.546 M183.575 794.894 L183.575 799.153 Q181.816 798.32 180.01 797.88 Q178.228 797.44 176.469 797.44 Q171.839 797.44 169.385 800.565 Q166.955 803.69 166.608 810.009 Q167.973 807.995 170.034 806.931 Q172.094 805.843 174.571 805.843 Q179.779 805.843 182.788 809.014 Q185.821 812.162 185.821 817.602 Q185.821 822.926 182.672 826.143 Q179.524 829.361 174.293 829.361 Q168.297 829.361 165.126 824.778 Q161.955 820.171 161.955 811.444 Q161.955 803.25 165.844 798.389 Q169.733 793.505 176.284 793.505 Q178.043 793.505 179.825 793.852 Q181.631 794.199 183.575 794.894 Z" fill="#000000" fill-rule="nonzero" fill-opacity="1" /><path clip-path="url(#clip760)" d="M128.738 472.173 Q125.126 472.173 123.298 475.738 Q121.492 479.28 121.492 486.409 Q121.492 493.516 123.298 497.081 Q125.126 500.622 128.738 500.622 Q132.372 500.622 134.177 497.081 Q136.006 493.516 136.006 486.409 Q136.006 479.28 134.177 475.738 Q132.372 472.173 128.738 472.173 M128.738 468.47 Q134.548 468.47 137.603 473.076 Q140.682 477.659 140.682 486.409 Q140.682 495.136 137.603 499.743 Q134.548 504.326 128.738 504.326 Q122.927 504.326 119.849 499.743 Q116.793 495.136 116.793 486.409 Q116.793 477.659 119.849 473.076 Q122.927 468.47 128.738 468.47 Z" fill="#000000" fill-rule="nonzero" fill-opacity="1" /><path clip-path="url(#clip760)" d="M148.899 497.775 L153.784 497.775 L153.784 503.655 L148.899 503.655 L148.899 497.775 Z" fill="#000000" fill-rule="nonzero" fill-opacity="1" /><path clip-path="url(#clip760)" d="M173.969 487.243 Q170.635 487.243 168.714 489.025 Q166.816 490.807 166.816 493.932 Q166.816 497.057 168.714 498.84 Q170.635 500.622 173.969 500.622 Q177.302 500.622 179.223 498.84 Q181.145 497.034 181.145 493.932 Q181.145 490.807 179.223 489.025 Q177.325 487.243 173.969 487.243 M169.293 485.252 Q166.284 484.511 164.594 482.451 Q162.927 480.391 162.927 477.428 Q162.927 473.284 165.867 470.877 Q168.83 468.47 173.969 468.47 Q179.131 468.47 182.071 470.877 Q185.01 473.284 185.01 477.428 Q185.01 480.391 183.321 482.451 Q181.654 484.511 178.668 485.252 Q182.047 486.039 183.922 488.331 Q185.821 490.622 185.821 493.932 Q185.821 498.956 182.742 501.641 Q179.686 504.326 173.969 504.326 Q168.251 504.326 165.173 501.641 Q162.117 498.956 162.117 493.932 Q162.117 490.622 164.015 488.331 Q165.913 486.039 169.293 485.252 M167.58 477.868 Q167.58 480.553 169.247 482.057 Q170.936 483.562 173.969 483.562 Q176.978 483.562 178.668 482.057 Q180.381 480.553 180.381 477.868 Q180.381 475.183 178.668 473.678 Q176.978 472.173 173.969 472.173 Q170.936 472.173 169.247 473.678 Q167.58 475.183 167.58 477.868 Z" fill="#000000" fill-rule="nonzero" fill-opacity="1" /><path clip-path="url(#clip760)" d="M119.455 174.684 L127.094 174.684 L127.094 148.319 L118.784 149.985 L118.784 145.726 L127.048 144.059 L131.724 144.059 L131.724 174.684 L139.362 174.684 L139.362 178.619 L119.455 178.619 L119.455 174.684 Z" fill="#000000" fill-rule="nonzero" fill-opacity="1" /><path clip-path="url(#clip760)" d="M148.807 172.74 L153.691 172.74 L153.691 178.619 L148.807 178.619 L148.807 172.74 Z" fill="#000000" fill-rule="nonzero" fill-opacity="1" /><path clip-path="url(#clip760)" d="M173.876 147.138 Q170.265 147.138 168.436 150.703 Q166.631 154.245 166.631 161.374 Q166.631 168.481 168.436 172.045 Q170.265 175.587 173.876 175.587 Q177.51 175.587 179.316 172.045 Q181.145 168.481 181.145 161.374 Q181.145 154.245 179.316 150.703 Q177.51 147.138 173.876 147.138 M173.876 143.434 Q179.686 143.434 182.742 148.041 Q185.821 152.624 185.821 161.374 Q185.821 170.101 182.742 174.707 Q179.686 179.291 173.876 179.291 Q168.066 179.291 164.987 174.707 Q161.932 170.101 161.932 161.374 Q161.932 152.624 164.987 148.041 Q168.066 143.434 173.876 143.434 Z" fill="#000000" fill-rule="nonzero" fill-opacity="1" /><path clip-path="url(#clip760)" d="M14.1184 1022.53 L14.1184 1015.62 L33.6612 1002.44 L14.1184 989.36 L14.1184 982.453 L39.0084 999.259 L61.6384 999.259 L61.6384 1005.72 L39.0084 1005.72 L14.1184 1022.53 Z" fill="#000000" fill-rule="nonzero" fill-opacity="1" /><path clip-path="url(#clip760)" d="M41.1727 987.132 L41.1727 969.976 L46.3926 969.976 L46.3926 987.132 L41.1727 987.132 Z" fill="#000000" fill-rule="nonzero" fill-opacity="1" /><path clip-path="url(#clip760)" d="M43.719 944.45 Q43.719 951.548 45.3422 954.285 Q46.9655 957.022 50.8804 957.022 Q53.9996 957.022 55.8457 954.985 Q57.6599 952.916 57.6599 949.383 Q57.6599 944.514 54.2224 941.585 Q50.7531 938.625 45.0239 938.625 L43.719 938.625 L43.719 944.45 M41.3 932.769 L61.6384 932.769 L61.6384 938.625 L56.2276 938.625 Q59.4741 940.63 61.0337 943.622 Q62.5615 946.614 62.5615 950.943 Q62.5615 956.417 59.5059 959.664 Q56.4186 962.879 51.2623 962.879 Q45.2467 962.879 42.1912 958.868 Q39.1357 954.826 39.1357 946.837 L39.1357 938.625 L38.5628 938.625 Q34.5205 938.625 32.3244 941.299 Q30.0964 943.941 30.0964 948.747 Q30.0964 951.802 30.8284 954.699 Q31.5605 957.595 33.0246 960.269 L27.6137 960.269 Q26.3724 957.054 25.7677 954.03 Q25.1311 951.007 25.1311 948.142 Q25.1311 940.408 29.1415 936.588 Q33.1519 932.769 41.3 932.769 Z" fill="#000000" fill-rule="nonzero" fill-opacity="1" /><path clip-path="url(#clip760)" d="M25.9905 891.073 L43.337 903.964 L61.6384 890.405 L61.6384 897.312 L47.6339 907.688 L61.6384 918.064 L61.6384 924.971 L42.9869 911.125 L25.9905 923.793 L25.9905 916.886 L38.6901 907.433 L25.9905 897.98 L25.9905 891.073 Z" fill="#000000" fill-rule="nonzero" fill-opacity="1" /><path clip-path="url(#clip760)" d="M25.9905 882.13 L25.9905 876.273 L61.6384 876.273 L61.6384 882.13 L25.9905 882.13 M12.1132 882.13 L12.1132 876.273 L19.5293 876.273 L19.5293 882.13 L12.1132 882.13 Z" fill="#000000" fill-rule="nonzero" fill-opacity="1" /><path clip-path="url(#clip760)" d="M27.0408 841.294 L32.579 841.294 Q31.3059 843.776 30.6693 846.45 Q30.0327 849.123 30.0327 851.988 Q30.0327 856.348 31.3695 858.545 Q32.7063 860.709 35.3799 860.709 Q37.4169 860.709 38.5946 859.149 Q39.7404 857.59 40.7908 852.879 L41.2364 850.874 Q42.5732 844.636 45.0239 842.026 Q47.4429 839.384 51.8034 839.384 Q56.7687 839.384 59.6651 843.331 Q62.5615 847.246 62.5615 854.12 Q62.5615 856.985 61.9886 860.104 Q61.4475 863.192 60.3335 866.629 L54.2861 866.629 Q55.973 863.383 56.8323 860.232 Q57.6599 857.081 57.6599 853.993 Q57.6599 849.855 56.2594 847.627 Q54.8271 845.399 52.249 845.399 Q49.8619 845.399 48.5887 847.023 Q47.3156 848.614 46.1379 854.057 L45.6605 856.094 Q44.5147 861.537 42.1594 863.955 Q39.7722 866.374 35.6345 866.374 Q30.6056 866.374 27.8684 862.81 Q25.1311 859.245 25.1311 852.688 Q25.1311 849.442 25.6085 846.577 Q26.086 843.713 27.0408 841.294 Z" fill="#000000" fill-rule="nonzero" fill-opacity="1" /><path clip-path="url(#clip760)" d="M1036.64 18.8205 L1036.64 41.5461 L1046.93 41.5461 Q1052.64 41.5461 1055.76 38.5889 Q1058.88 35.6318 1058.88 30.163 Q1058.88 24.7348 1055.76 21.7777 Q1052.64 18.8205 1046.93 18.8205 L1036.64 18.8205 M1028.46 12.096 L1046.93 12.096 Q1057.1 12.096 1062.28 16.714 Q1067.51 21.2916 1067.51 30.163 Q1067.51 39.1155 1062.28 43.6931 Q1057.1 48.2706 1046.93 48.2706 L1036.64 48.2706 L1036.64 72.576 L1028.46 72.576 L1028.46 12.096 Z" fill="#000000" fill-rule="nonzero" fill-opacity="1" /><path clip-path="url(#clip760)" d="M1078.16 9.54393 L1085.62 9.54393 L1085.62 72.576 L1078.16 72.576 L1078.16 9.54393 Z" fill="#000000" fill-rule="nonzero" fill-opacity="1" /><path clip-path="url(#clip760)" d="M1118.79 32.4315 Q1112.8 32.4315 1109.32 37.1306 Q1105.83 41.7891 1105.83 49.9314 Q1105.83 58.0738 1109.27 62.7728 Q1112.76 67.4314 1118.79 67.4314 Q1124.75 67.4314 1128.23 62.7323 Q1131.72 58.0333 1131.72 49.9314 Q1131.72 41.8701 1128.23 37.1711 Q1124.75 32.4315 1118.79 32.4315 M1118.79 26.1121 Q1128.52 26.1121 1134.07 32.4315 Q1139.62 38.7509 1139.62 49.9314 Q1139.62 61.0714 1134.07 67.4314 Q1128.52 73.7508 1118.79 73.7508 Q1109.03 73.7508 1103.48 67.4314 Q1097.97 61.0714 1097.97 49.9314 Q1097.97 38.7509 1103.48 32.4315 Q1109.03 26.1121 1118.79 26.1121 Z" fill="#000000" fill-rule="nonzero" fill-opacity="1" /><path clip-path="url(#clip760)" d="M1159.34 14.324 L1159.34 27.2059 L1174.7 27.2059 L1174.7 32.9987 L1159.34 32.9987 L1159.34 57.6282 Q1159.34 63.1779 1160.84 64.7578 Q1162.38 66.3376 1167.04 66.3376 L1174.7 66.3376 L1174.7 72.576 L1167.04 72.576 Q1158.41 72.576 1155.13 69.3758 Q1151.85 66.1351 1151.85 57.6282 L1151.85 32.9987 L1146.38 32.9987 L1146.38 27.2059 L1151.85 27.2059 L1151.85 14.324 L1159.34 14.324 Z" fill="#000000" fill-rule="nonzero" fill-opacity="1" /><path clip-path="url(#clip760)" d="M1206.54 27.2059 L1213.99 27.2059 L1223.31 62.6108 L1232.58 27.2059 L1241.37 27.2059 L1250.69 62.6108 L1259.97 27.2059 L1267.42 27.2059 L1255.55 72.576 L1246.76 72.576 L1237 35.3887 L1227.2 72.576 L1218.41 72.576 L1206.54 27.2059 Z" fill="#000000" fill-rule="nonzero" fill-opacity="1" /><path clip-path="url(#clip760)" d="M1278.72 27.2059 L1286.18 27.2059 L1286.18 72.576 L1278.72 72.576 L1278.72 27.2059 M1278.72 9.54393 L1286.18 9.54393 L1286.18 18.9825 L1278.72 18.9825 L1278.72 9.54393 Z" fill="#000000" fill-rule="nonzero" fill-opacity="1" /><path clip-path="url(#clip760)" d="M1309.15 14.324 L1309.15 27.2059 L1324.5 27.2059 L1324.5 32.9987 L1309.15 32.9987 L1309.15 57.6282 Q1309.15 63.1779 1310.65 64.7578 Q1312.18 66.3376 1316.84 66.3376 L1324.5 66.3376 L1324.5 72.576 L1316.84 72.576 Q1308.21 72.576 1304.93 69.3758 Q1301.65 66.1351 1301.65 57.6282 L1301.65 32.9987 L1296.18 32.9987 L1296.18 27.2059 L1301.65 27.2059 L1301.65 14.324 L1309.15 14.324 Z" fill="#000000" fill-rule="nonzero" fill-opacity="1" /><path clip-path="url(#clip760)" d="M1372.02 45.1919 L1372.02 72.576 L1364.56 72.576 L1364.56 45.4349 Q1364.56 38.994 1362.05 35.7938 Q1359.54 32.5936 1354.52 32.5936 Q1348.48 32.5936 1345 36.4419 Q1341.51 40.2903 1341.51 46.9338 L1341.51 72.576 L1334.02 72.576 L1334.02 9.54393 L1341.51 9.54393 L1341.51 34.2544 Q1344.19 30.163 1347.79 28.1376 Q1351.44 26.1121 1356.18 26.1121 Q1364 26.1121 1368.01 30.9732 Q1372.02 35.7938 1372.02 45.1919 Z" fill="#000000" fill-rule="nonzero" fill-opacity="1" /><path clip-path="url(#clip760)" d="M1405.19 12.096 L1456.36 12.096 L1456.36 18.9825 L1434.89 18.9825 L1434.89 72.576 L1426.66 72.576 L1426.66 18.9825 L1405.19 18.9825 L1405.19 12.096 Z" fill="#000000" fill-rule="nonzero" fill-opacity="1" /><path clip-path="url(#clip760)" d="M1445.86 27.2059 L1453.32 27.2059 L1462.63 62.6108 L1471.91 27.2059 L1480.7 27.2059 L1490.02 62.6108 L1499.3 27.2059 L1506.75 27.2059 L1494.88 72.576 L1486.09 72.576 L1476.33 35.3887 L1466.52 72.576 L1457.73 72.576 L1445.86 27.2059 Z" fill="#000000" fill-rule="nonzero" fill-opacity="1" /><path clip-path="url(#clip760)" d="M1535.63 32.4315 Q1529.64 32.4315 1526.15 37.1306 Q1522.67 41.7891 1522.67 49.9314 Q1522.67 58.0738 1526.11 62.7728 Q1529.6 67.4314 1535.63 67.4314 Q1541.59 67.4314 1545.07 62.7323 Q1548.55 58.0333 1548.55 49.9314 Q1548.55 41.8701 1545.07 37.1711 Q1541.59 32.4315 1535.63 32.4315 M1535.63 26.1121 Q1545.35 26.1121 1550.9 32.4315 Q1556.45 38.7509 1556.45 49.9314 Q1556.45 61.0714 1550.9 67.4314 Q1545.35 73.7508 1535.63 73.7508 Q1525.87 73.7508 1520.32 67.4314 Q1514.81 61.0714 1514.81 49.9314 Q1514.81 38.7509 1520.32 32.4315 Q1525.87 26.1121 1535.63 26.1121 Z" fill="#000000" fill-rule="nonzero" fill-opacity="1" /><path clip-path="url(#clip760)" d="M1631.76 14.0809 L1631.76 22.0612 Q1627.1 19.8332 1622.97 18.7395 Q1618.84 17.6457 1614.99 17.6457 Q1608.31 17.6457 1604.66 20.2383 Q1601.05 22.8309 1601.05 27.611 Q1601.05 31.6214 1603.44 33.6873 Q1605.87 35.7128 1612.6 36.9686 L1617.54 37.9813 Q1626.7 39.7232 1631.03 44.1387 Q1635.41 48.5136 1635.41 55.8863 Q1635.41 64.6767 1629.49 69.2137 Q1623.62 73.7508 1612.23 73.7508 Q1607.94 73.7508 1603.08 72.7785 Q1598.26 71.8063 1593.07 69.9024 L1593.07 61.4765 Q1598.06 64.2716 1602.84 65.6895 Q1607.62 67.1073 1612.23 67.1073 Q1619.24 67.1073 1623.05 64.3527 Q1626.86 61.598 1626.86 56.4939 Q1626.86 52.0379 1624.1 49.5264 Q1621.39 47.0148 1615.15 45.759 L1610.17 44.7868 Q1601.01 42.9639 1596.92 39.075 Q1592.83 35.1862 1592.83 28.2591 Q1592.83 20.2383 1598.46 15.6203 Q1604.13 11.0023 1614.06 11.0023 Q1618.31 11.0023 1622.73 11.7719 Q1627.14 12.5416 1631.76 14.0809 Z" fill="#000000" fill-rule="nonzero" fill-opacity="1" /><path clip-path="url(#clip760)" d="M1686.65 48.0275 L1686.65 51.6733 L1652.38 51.6733 Q1652.87 59.3701 1657 63.421 Q1661.17 67.4314 1668.58 67.4314 Q1672.88 67.4314 1676.89 66.3781 Q1680.94 65.3249 1684.91 63.2184 L1684.91 70.267 Q1680.9 71.9684 1676.68 72.8596 Q1672.47 73.7508 1668.14 73.7508 Q1657.28 73.7508 1650.92 67.4314 Q1644.6 61.1119 1644.6 50.3365 Q1644.6 39.1965 1650.6 32.6746 Q1656.63 26.1121 1666.84 26.1121 Q1676 26.1121 1681.3 32.0264 Q1686.65 37.9003 1686.65 48.0275 M1679.2 45.84 Q1679.12 39.7232 1675.75 36.0774 Q1672.43 32.4315 1666.92 32.4315 Q1660.68 32.4315 1656.92 35.9558 Q1653.19 39.4801 1652.62 45.8805 L1679.2 45.84 Z" fill="#000000" fill-rule="nonzero" fill-opacity="1" /><path clip-path="url(#clip760)" d="M1725.17 34.1734 Q1723.92 33.4443 1722.42 33.1202 Q1720.96 32.7556 1719.18 32.7556 Q1712.86 32.7556 1709.46 36.8875 Q1706.09 40.9789 1706.09 48.6757 L1706.09 72.576 L1698.6 72.576 L1698.6 27.2059 L1706.09 27.2059 L1706.09 34.2544 Q1708.44 30.1225 1712.21 28.1376 Q1715.98 26.1121 1721.37 26.1121 Q1722.14 26.1121 1723.07 26.2337 Q1724 26.3147 1725.13 26.5172 L1725.17 34.1734 Z" fill="#000000" fill-rule="nonzero" fill-opacity="1" /><path clip-path="url(#clip760)" d="M1732.99 27.2059 L1740.45 27.2059 L1740.45 72.576 L1732.99 72.576 L1732.99 27.2059 M1732.99 9.54393 L1740.45 9.54393 L1740.45 18.9825 L1732.99 18.9825 L1732.99 9.54393 Z" fill="#000000" fill-rule="nonzero" fill-opacity="1" /><path clip-path="url(#clip760)" d="M1794.85 48.0275 L1794.85 51.6733 L1760.58 51.6733 Q1761.07 59.3701 1765.2 63.421 Q1769.37 67.4314 1776.78 67.4314 Q1781.08 67.4314 1785.09 66.3781 Q1789.14 65.3249 1793.11 63.2184 L1793.11 70.267 Q1789.1 71.9684 1784.88 72.8596 Q1780.67 73.7508 1776.34 73.7508 Q1765.48 73.7508 1759.12 67.4314 Q1752.8 61.1119 1752.8 50.3365 Q1752.8 39.1965 1758.8 32.6746 Q1764.83 26.1121 1775.04 26.1121 Q1784.2 26.1121 1789.5 32.0264 Q1794.85 37.9003 1794.85 48.0275 M1787.4 45.84 Q1787.31 39.7232 1783.95 36.0774 Q1780.63 32.4315 1775.12 32.4315 Q1768.88 32.4315 1765.12 35.9558 Q1761.39 39.4801 1760.82 45.8805 L1787.4 45.84 Z" fill="#000000" fill-rule="nonzero" fill-opacity="1" /><path clip-path="url(#clip760)" d="M1836.01 28.5427 L1836.01 35.5912 Q1832.85 33.9709 1829.44 33.1607 Q1826.04 32.3505 1822.4 32.3505 Q1816.85 32.3505 1814.05 34.0519 Q1811.3 35.7533 1811.3 39.156 Q1811.3 41.7486 1813.28 43.2475 Q1815.27 44.7058 1821.26 46.0426 L1823.81 46.6097 Q1831.75 48.3111 1835.08 51.4303 Q1838.44 54.509 1838.44 60.0587 Q1838.44 66.3781 1833.41 70.0644 Q1828.43 73.7508 1819.68 73.7508 Q1816.04 73.7508 1812.07 73.0216 Q1808.14 72.3329 1803.76 70.9151 L1803.76 63.2184 Q1807.89 65.3654 1811.9 66.4591 Q1815.91 67.5124 1819.84 67.5124 Q1825.11 67.5124 1827.95 65.73 Q1830.78 63.9071 1830.78 60.6258 Q1830.78 57.5877 1828.72 55.9673 Q1826.69 54.3469 1819.76 52.8481 L1817.17 52.2405 Q1810.24 50.7821 1807.16 47.7845 Q1804.09 44.7463 1804.09 39.4801 Q1804.09 33.0797 1808.62 29.5959 Q1813.16 26.1121 1821.5 26.1121 Q1825.64 26.1121 1829.28 26.7198 Q1832.93 27.3274 1836.01 28.5427 Z" fill="#000000" fill-rule="nonzero" fill-opacity="1" /><polyline clip-path="url(#clip761)" style="stroke:#009af9; stroke-linecap:round; stroke-linejoin:round; stroke-width:4; stroke-opacity:1; fill:none" points="294.479,1134.47 414.37,552.203 534.262,623.852 654.153,350.357 774.045,1337.07 893.936,1231.1 1013.83,327.967 1133.72,350.406 1253.61,1009.57 1373.5,714.344 1493.39,1269.59 1613.29,950.447 1733.18,609.689 1853.07,1556.75 1972.96,1138.38 2092.85,256.666 2212.74,1325.23 2332.63,183.784 2452.53,1222.74 2572.42,937.474 "/>
<polyline clip-path="url(#clip761)" style="stroke:#e26f46; stroke-linecap:round; stroke-linejoin:round; stroke-width:4; stroke-opacity:1; fill:none" points="294.479,1502.83 414.37,1136.28 534.262,360.013 654.153,1154.2 774.045,522.154 893.936,173.254 1013.83,555.929 1133.72,347.209 1253.61,1021.83 1373.5,815.965 1493.39,1096.63 1613.29,894.265 1733.18,1249.72 1853.07,1006.85 1972.96,1240.4 2092.85,1214.81 2212.74,1043.27 2332.63,928.75 2452.53,1688.65 2572.42,1072.56 "/>
<path clip-path="url(#clip760)" d="M306.628 1680.57 L737.857 1680.57 L737.857 1525.05 L306.628 1525.05  Z" fill="#ffffff" fill-rule="evenodd" fill-opacity="1"/>
<polyline clip-path="url(#clip760)" style="stroke:#000000; stroke-linecap:round; stroke-linejoin:round; stroke-width:4; stroke-opacity:1; fill:none" points="306.628,1680.57 737.857,1680.57 737.857,1525.05 306.628,1525.05 306.628,1680.57 "/>
<polyline clip-path="url(#clip760)" style="stroke:#009af9; stroke-linecap:round; stroke-linejoin:round; stroke-width:4; stroke-opacity:1; fill:none" points="333.457,1576.89 494.431,1576.89 "/>
<path clip-path="url(#clip760)" d="M543.505 1560.75 L543.505 1565.31 Q540.843 1564.03 538.482 1563.41 Q536.121 1562.78 533.922 1562.78 Q530.103 1562.78 528.019 1564.27 Q525.959 1565.75 525.959 1568.48 Q525.959 1570.77 527.325 1571.95 Q528.714 1573.11 532.556 1573.83 L535.381 1574.4 Q540.612 1575.4 543.089 1577.92 Q545.589 1580.42 545.589 1584.64 Q545.589 1589.66 542.209 1592.25 Q538.853 1594.84 532.348 1594.84 Q529.894 1594.84 527.117 1594.29 Q524.362 1593.73 521.399 1592.65 L521.399 1587.83 Q524.246 1589.43 526.978 1590.24 Q529.709 1591.05 532.348 1591.05 Q536.353 1591.05 538.529 1589.47 Q540.705 1587.9 540.705 1584.98 Q540.705 1582.44 539.13 1581 Q537.58 1579.57 534.015 1578.85 L531.168 1578.29 Q525.936 1577.25 523.598 1575.03 Q521.26 1572.81 521.26 1568.85 Q521.26 1564.27 524.478 1561.63 Q527.719 1558.99 533.39 1558.99 Q535.82 1558.99 538.343 1559.43 Q540.867 1559.87 543.505 1560.75 Z" fill="#000000" fill-rule="nonzero" fill-opacity="1" /><path clip-path="url(#clip760)" d="M574.871 1580.15 L574.871 1582.23 L555.288 1582.23 Q555.566 1586.63 557.927 1588.94 Q560.311 1591.23 564.547 1591.23 Q567.001 1591.23 569.292 1590.63 Q571.607 1590.03 573.876 1588.83 L573.876 1592.85 Q571.584 1593.83 569.177 1594.33 Q566.769 1594.84 564.292 1594.84 Q558.089 1594.84 554.454 1591.23 Q550.843 1587.62 550.843 1581.46 Q550.843 1575.1 554.269 1571.37 Q557.718 1567.62 563.552 1567.62 Q568.783 1567.62 571.815 1571 Q574.871 1574.36 574.871 1580.15 M570.612 1578.9 Q570.565 1575.4 568.644 1573.32 Q566.746 1571.23 563.598 1571.23 Q560.033 1571.23 557.88 1573.25 Q555.751 1575.26 555.427 1578.92 L570.612 1578.9 Z" fill="#000000" fill-rule="nonzero" fill-opacity="1" /><path clip-path="url(#clip760)" d="M596.885 1572.23 Q596.167 1571.81 595.311 1571.63 Q594.477 1571.42 593.459 1571.42 Q589.848 1571.42 587.903 1573.78 Q585.982 1576.12 585.982 1580.52 L585.982 1594.17 L581.7 1594.17 L581.7 1568.25 L585.982 1568.25 L585.982 1572.27 Q587.325 1569.91 589.477 1568.78 Q591.63 1567.62 594.709 1567.62 Q595.149 1567.62 595.681 1567.69 Q596.214 1567.74 596.862 1567.85 L596.885 1572.23 Z" fill="#000000" fill-rule="nonzero" fill-opacity="1" /><path clip-path="url(#clip760)" d="M601.352 1568.25 L605.612 1568.25 L605.612 1594.17 L601.352 1594.17 L601.352 1568.25 M601.352 1558.15 L605.612 1558.15 L605.612 1563.55 L601.352 1563.55 L601.352 1558.15 Z" fill="#000000" fill-rule="nonzero" fill-opacity="1" /><path clip-path="url(#clip760)" d="M636.699 1580.15 L636.699 1582.23 L617.116 1582.23 Q617.394 1586.63 619.755 1588.94 Q622.139 1591.23 626.375 1591.23 Q628.829 1591.23 631.121 1590.63 Q633.436 1590.03 635.704 1588.83 L635.704 1592.85 Q633.412 1593.83 631.005 1594.33 Q628.598 1594.84 626.121 1594.84 Q619.917 1594.84 616.283 1591.23 Q612.672 1587.62 612.672 1581.46 Q612.672 1575.1 616.098 1571.37 Q619.547 1567.62 625.38 1567.62 Q630.611 1567.62 633.644 1571 Q636.699 1574.36 636.699 1580.15 M632.44 1578.9 Q632.394 1575.4 630.473 1573.32 Q628.574 1571.23 625.426 1571.23 Q621.862 1571.23 619.709 1573.25 Q617.579 1575.26 617.255 1578.92 L632.44 1578.9 Z" fill="#000000" fill-rule="nonzero" fill-opacity="1" /><path clip-path="url(#clip760)" d="M660.218 1569.01 L660.218 1573.04 Q658.412 1572.11 656.468 1571.65 Q654.523 1571.19 652.44 1571.19 Q649.269 1571.19 647.672 1572.16 Q646.098 1573.13 646.098 1575.08 Q646.098 1576.56 647.232 1577.41 Q648.366 1578.25 651.792 1579.01 L653.25 1579.33 Q657.787 1580.31 659.685 1582.09 Q661.607 1583.85 661.607 1587.02 Q661.607 1590.63 658.736 1592.74 Q655.889 1594.84 650.889 1594.84 Q648.806 1594.84 646.537 1594.43 Q644.292 1594.03 641.792 1593.22 L641.792 1588.83 Q644.153 1590.05 646.445 1590.68 Q648.736 1591.28 650.982 1591.28 Q653.991 1591.28 655.611 1590.26 Q657.232 1589.22 657.232 1587.34 Q657.232 1585.61 656.051 1584.68 Q654.894 1583.76 650.935 1582.9 L649.454 1582.55 Q645.496 1581.72 643.736 1580.01 Q641.977 1578.27 641.977 1575.26 Q641.977 1571.6 644.57 1569.61 Q647.162 1567.62 651.931 1567.62 Q654.292 1567.62 656.375 1567.97 Q658.459 1568.32 660.218 1569.01 Z" fill="#000000" fill-rule="nonzero" fill-opacity="1" /><path clip-path="url(#clip760)" d="M695.194 1564.22 L688.852 1581.42 L701.56 1581.42 L695.194 1564.22 M692.556 1559.61 L697.856 1559.61 L711.028 1594.17 L706.167 1594.17 L703.018 1585.31 L687.44 1585.31 L684.292 1594.17 L679.361 1594.17 L692.556 1559.61 Z" fill="#000000" fill-rule="nonzero" fill-opacity="1" /><polyline clip-path="url(#clip760)" style="stroke:#e26f46; stroke-linecap:round; stroke-linejoin:round; stroke-width:4; stroke-opacity:1; fill:none" points="333.457,1628.73 494.431,1628.73 "/>
<path clip-path="url(#clip760)" d="M543.505 1612.59 L543.505 1617.15 Q540.843 1615.87 538.482 1615.25 Q536.121 1614.62 533.922 1614.62 Q530.103 1614.62 528.019 1616.11 Q525.959 1617.59 525.959 1620.32 Q525.959 1622.61 527.325 1623.79 Q528.714 1624.95 532.556 1625.67 L535.381 1626.24 Q540.612 1627.24 543.089 1629.76 Q545.589 1632.26 545.589 1636.48 Q545.589 1641.5 542.209 1644.09 Q538.853 1646.68 532.348 1646.68 Q529.894 1646.68 527.117 1646.13 Q524.362 1645.57 521.399 1644.49 L521.399 1639.67 Q524.246 1641.27 526.978 1642.08 Q529.709 1642.89 532.348 1642.89 Q536.353 1642.89 538.529 1641.31 Q540.705 1639.74 540.705 1636.82 Q540.705 1634.28 539.13 1632.84 Q537.58 1631.41 534.015 1630.69 L531.168 1630.13 Q525.936 1629.09 523.598 1626.87 Q521.26 1624.65 521.26 1620.69 Q521.26 1616.11 524.478 1613.47 Q527.719 1610.83 533.39 1610.83 Q535.82 1610.83 538.343 1611.27 Q540.867 1611.71 543.505 1612.59 Z" fill="#000000" fill-rule="nonzero" fill-opacity="1" /><path clip-path="url(#clip760)" d="M574.871 1631.99 L574.871 1634.07 L555.288 1634.07 Q555.566 1638.47 557.927 1640.78 Q560.311 1643.07 564.547 1643.07 Q567.001 1643.07 569.292 1642.47 Q571.607 1641.87 573.876 1640.67 L573.876 1644.69 Q571.584 1645.67 569.177 1646.17 Q566.769 1646.68 564.292 1646.68 Q558.089 1646.68 554.454 1643.07 Q550.843 1639.46 550.843 1633.3 Q550.843 1626.94 554.269 1623.21 Q557.718 1619.46 563.552 1619.46 Q568.783 1619.46 571.815 1622.84 Q574.871 1626.2 574.871 1631.99 M570.612 1630.74 Q570.565 1627.24 568.644 1625.16 Q566.746 1623.07 563.598 1623.07 Q560.033 1623.07 557.88 1625.09 Q555.751 1627.1 555.427 1630.76 L570.612 1630.74 Z" fill="#000000" fill-rule="nonzero" fill-opacity="1" /><path clip-path="url(#clip760)" d="M596.885 1624.07 Q596.167 1623.65 595.311 1623.47 Q594.477 1623.26 593.459 1623.26 Q589.848 1623.26 587.903 1625.62 Q585.982 1627.96 585.982 1632.36 L585.982 1646.01 L581.7 1646.01 L581.7 1620.09 L585.982 1620.09 L585.982 1624.11 Q587.325 1621.75 589.477 1620.62 Q591.63 1619.46 594.709 1619.46 Q595.149 1619.46 595.681 1619.53 Q596.214 1619.58 596.862 1619.69 L596.885 1624.07 Z" fill="#000000" fill-rule="nonzero" fill-opacity="1" /><path clip-path="url(#clip760)" d="M601.352 1620.09 L605.612 1620.09 L605.612 1646.01 L601.352 1646.01 L601.352 1620.09 M601.352 1609.99 L605.612 1609.99 L605.612 1615.39 L601.352 1615.39 L601.352 1609.99 Z" fill="#000000" fill-rule="nonzero" fill-opacity="1" /><path clip-path="url(#clip760)" d="M636.699 1631.99 L636.699 1634.07 L617.116 1634.07 Q617.394 1638.47 619.755 1640.78 Q622.139 1643.07 626.375 1643.07 Q628.829 1643.07 631.121 1642.47 Q633.436 1641.87 635.704 1640.67 L635.704 1644.69 Q633.412 1645.67 631.005 1646.17 Q628.598 1646.68 626.121 1646.68 Q619.917 1646.68 616.283 1643.07 Q612.672 1639.46 612.672 1633.3 Q612.672 1626.94 616.098 1623.21 Q619.547 1619.46 625.38 1619.46 Q630.611 1619.46 633.644 1622.84 Q636.699 1626.2 636.699 1631.99 M632.44 1630.74 Q632.394 1627.24 630.473 1625.16 Q628.574 1623.07 625.426 1623.07 Q621.862 1623.07 619.709 1625.09 Q617.579 1627.1 617.255 1630.76 L632.44 1630.74 Z" fill="#000000" fill-rule="nonzero" fill-opacity="1" /><path clip-path="url(#clip760)" d="M660.218 1620.85 L660.218 1624.88 Q658.412 1623.95 656.468 1623.49 Q654.523 1623.03 652.44 1623.03 Q649.269 1623.03 647.672 1624 Q646.098 1624.97 646.098 1626.92 Q646.098 1628.4 647.232 1629.25 Q648.366 1630.09 651.792 1630.85 L653.25 1631.17 Q657.787 1632.15 659.685 1633.93 Q661.607 1635.69 661.607 1638.86 Q661.607 1642.47 658.736 1644.58 Q655.889 1646.68 650.889 1646.68 Q648.806 1646.68 646.537 1646.27 Q644.292 1645.87 641.792 1645.06 L641.792 1640.67 Q644.153 1641.89 646.445 1642.52 Q648.736 1643.12 650.982 1643.12 Q653.991 1643.12 655.611 1642.1 Q657.232 1641.06 657.232 1639.18 Q657.232 1637.45 656.051 1636.52 Q654.894 1635.6 650.935 1634.74 L649.454 1634.39 Q645.496 1633.56 643.736 1631.85 Q641.977 1630.11 641.977 1627.1 Q641.977 1623.44 644.57 1621.45 Q647.162 1619.46 651.931 1619.46 Q654.292 1619.46 656.375 1619.81 Q658.459 1620.16 660.218 1620.85 Z" fill="#000000" fill-rule="nonzero" fill-opacity="1" /><path clip-path="url(#clip760)" d="M688.319 1629.51 L688.319 1642.17 L695.819 1642.17 Q699.593 1642.17 701.398 1640.62 Q703.227 1639.05 703.227 1635.83 Q703.227 1632.59 701.398 1631.06 Q699.593 1629.51 695.819 1629.51 L688.319 1629.51 M688.319 1615.3 L688.319 1625.71 L695.241 1625.71 Q698.667 1625.71 700.333 1624.44 Q702.023 1623.14 702.023 1620.5 Q702.023 1617.89 700.333 1616.59 Q698.667 1615.3 695.241 1615.3 L688.319 1615.3 M683.644 1611.45 L695.588 1611.45 Q700.935 1611.45 703.829 1613.68 Q706.722 1615.9 706.722 1619.99 Q706.722 1623.17 705.241 1625.04 Q703.759 1626.92 700.889 1627.38 Q704.338 1628.12 706.236 1630.48 Q708.157 1632.82 708.157 1636.34 Q708.157 1640.97 705.009 1643.49 Q701.861 1646.01 696.051 1646.01 L683.644 1646.01 L683.644 1611.45 Z" fill="#000000" fill-rule="nonzero" fill-opacity="1" /></svg>
